<svg xmlns="http://www.w3.org/2000/svg" width="450.8" height="325.515" viewBox="0 0 450.8 325.515">
  <g id="undraw_searching_p5ux" transform="translate(0 0)">
    <rect id="Rectangle_1" data-name="Rectangle 1" width="4.013" height="158.508" transform="translate(391.447 158.556)" fill="#21be3d"/>
    <path id="Path_1" data-name="Path 1" d="M993.691,343.938c.255,55.426-38.74,100.539-38.74,100.539S915.542,399.726,915.286,344.3s38.74-100.539,38.74-100.539S993.434,288.512,993.691,343.938Z" transform="translate(-561.197 -165.182)" fill="#ffc400"/>
    <rect id="Rectangle_2" data-name="Rectangle 2" width="2.064" height="81.524" transform="translate(313.159 233.136)" fill="#21be3d"/>
    <path id="Path_2" data-name="Path 2" d="M808.26,573.172c.131,28.507-19.925,51.71-19.925,51.71s-20.269-23.017-20.4-51.523,19.925-51.71,19.925-51.71S808.128,544.666,808.26,573.172Z" transform="translate(-473.989 -329.647)" fill="#0054d3"/>
    <ellipse id="Ellipse_1" data-name="Ellipse 1" cx="55.918" cy="8.571" rx="55.918" ry="8.571" transform="translate(299.986 308.372)" fill="#21be3d"/>
    <path id="Path_3" data-name="Path 3" d="M878.027,326.132c-4.738-8-14.11-8.378-14.11-8.378s-9.133-1.168-14.992,11.024c-5.461,11.364-13,22.335-1.213,25l2.129-6.625,1.318,7.118a46.1,46.1,0,0,0,5.042.086c12.62-.407,24.639.119,24.252-4.409C879.937,343.923,882.585,333.834,878.027,326.132Z" transform="translate(-517.51 -208.956)" fill="#2f2e41"/>
    <path id="Path_4" data-name="Path 4" d="M889.234,370.523s6.122,8.571,2.449,15.51,8.571,14.286,8.571,14.286l8.979-19.592s-10.612-6.939-7.755-13.469Z" transform="translate(-545.779 -238.273)" fill="#fbbebe"/>
    <circle id="Ellipse_2" data-name="Ellipse 2" cx="10.612" cy="10.612" r="10.612" transform="translate(336.925 114.7)" fill="#fbbebe"/>
    <path id="Path_5" data-name="Path 5" d="M809.255,355.18l8.869-11.442s3.123-11.994,7.645-11.386-1.786,14.384-1.786,14.384L815.171,359.4Z" transform="translate(-498.444 -217.6)" fill="#fbbebe"/>
    <path id="Path_6" data-name="Path 6" d="M871.469,708.24l2.857,15.1,6.122,1.633-1.633-17.959Z" transform="translate(-515.769 -418.439)" fill="#fbbebe"/>
    <path id="Path_7" data-name="Path 7" d="M1022.47,665.28l11.02,15.1,4.49,2.041,3.673-6.122-11.02-14.286Z" transform="translate(-605.137 -391.806)" fill="#fbbebe"/>
    <path id="Path_8" data-name="Path 8" d="M882.152,408.584l-6.809-8.963s-13.191,2.432-14.416,3.657,3.265,23.673,3.265,23.673.816,6.122,4.49,9.388l3.673,2.449,30.2-6.122,1.136-13.439a35.27,35.27,0,0,0-9.3-26.969h0l-5.255.718Z" transform="translate(-528.901 -253.069)" fill="#575a89"/>
    <path id="Path_9" data-name="Path 9" d="M822.027,395.217l-2.041-.816-9.388-.816s-3.265-.816-2.449-2.449,1.633-2.041,0-2.449-2.041-.816-1.633-2.041,2.857-3.673,2.857-3.673l-6.939-5.714s-.376.266-.983.757c-3.445,2.789-14.346,12.853-6.364,22.916,9.388,11.837,20.408,18.775,29.388,16.326Z" transform="translate(-488.368 -244.191)" fill="#575a89"/>
    <path id="Path_10" data-name="Path 10" d="M883.321,495.34v5.714s-3.673,6.939-2.449,13.469,1.633,9.8,1.633,9.8a55.728,55.728,0,0,0,2.857,16.326c2.857,8.163-6.531,61.632,5.306,62.449s18.367,1.633,22.041-2.449-6.122-74.285-6.122-74.285,33.469,69.8,40.408,66.939,24.49-9.388,22.449-13.061-53.469-85.306-53.469-85.306l-1.633-3.673Z" transform="translate(-540.682 -311.661)" fill="#575a89"/>
    <path id="Path_11" data-name="Path 11" d="M920.378,791.21s-6.531-.408-6.531,1.633-3.265,8.98-3.265,8.98-2.449,8.163,4.082,7.347,10.612-8.163,10.612-8.163l-1.633-7.755Z" transform="translate(-558.147 -489.164)" fill="#5b5984"/>
    <path id="Path_12" data-name="Path 12" d="M1094.506,750.31s-5.714-3.673-5.306-1.224.816,8.979,3.673,9.388,11.428,2.857,11.837,3.673,10.2,4.082,10.2-1.224-6.122-9.388-6.122-9.388l-6.939-5.306s-4.49-.408-5.306,2.449S1094.506,750.31,1094.506,750.31Z" transform="translate(-664.114 -462.55)" fill="#5b5984"/>
    <circle id="Ellipse_3" data-name="Ellipse 3" cx="6.777" cy="6.777" r="6.777" transform="translate(340.776 102.061)" fill="#2f2e41"/>
    <path id="Path_13" data-name="Path 13" d="M878.853,303.7a6.777,6.777,0,0,1,6.063-6.739,6.846,6.846,0,0,0-.713-.038,6.777,6.777,0,1,0,0,13.554,6.861,6.861,0,0,0,.713-.038A6.777,6.777,0,0,1,878.853,303.7Z" transform="translate(-538.791 -196.646)" fill="#2f2e41"/>
    <path id="Path_14" data-name="Path 14" d="M842.331,278.158l-9.26-4.851-12.788,1.984-2.646,11.685,6.586-.253,1.84-4.293v4.222l3.039-.117,1.764-6.835,1.1,7.275,10.8-.22Z" transform="translate(-483.91 -161.754)" fill="#2f2e41"/>
    <path id="Path_15" data-name="Path 15" d="M887.12,492.925l-14.28.386s-12.185,2.371-11.5-2.547,12.571-3.2,12.571-3.2l13.012-1.985Z" transform="translate(-529.253 -308.3)" fill="#fbbebe"/>
    <path id="Path_16" data-name="Path 16" d="M930.246,390.512a3.048,3.048,0,0,1,3.362,2.093c2.8,8.81,11.408,38.291,2.851,42.336-10.079,4.764-17.434,4.554-17.434,4.554l-3.937-9.693,3.584-3.363,3.826-24.6,1.833-10.429Z" transform="translate(-561.08 -252.015)" fill="#575a89"/>
    <path id="Path_17" data-name="Path 17" d="M874.887,379.515l-1.633,16.326-14.286,6.122,15.918-3.673Z" transform="translate(-508.371 -224.612)" opacity="0.4"/>
    <path id="Path_18" data-name="Path 18" d="M748.179,298.7h0a19.118,19.118,0,0,1,11.164,8.11l1.335,2.068.067.086,23.422,6.854a1.707,1.707,0,0,1,1.168,2.088l-1.818,6.667a1.707,1.707,0,0,1-2.107,1.2l-23.428-6.548h0l-2.353.89a21.026,21.026,0,0,1-13.519.459h0Z" transform="translate(-458.705 -197.7)" fill="#21be3d"/>
    <ellipse id="Ellipse_4" data-name="Ellipse 4" cx="1.43" cy="2.682" rx="1.43" ry="2.682" transform="translate(308.59 120.205) rotate(-73.69)" fill="#575a89"/>
    <circle id="Ellipse_5" data-name="Ellipse 5" cx="0.983" cy="0.983" r="0.983" transform="translate(311.961 119.073)" fill="#3f3d56"/>
    <ellipse id="Ellipse_6" data-name="Ellipse 6" cx="11.465" cy="5.185" rx="11.465" ry="5.185" transform="matrix(0.308, -0.951, 0.951, 0.308, 278.032, 121.342)" fill="#21be3d"/>
    <path id="Path_19" data-name="Path 19" d="M748.351,311.159c1.882-5.8,1.37-11.213-1.106-12.39a2.4,2.4,0,0,1,.439.1c2.724.883,3.349,6.482,1.4,12.506s-5.745,10.19-8.469,9.307a2.392,2.392,0,0,1-.289-.116C743,320.9,746.5,316.865,748.351,311.159Z" transform="translate(-457.647 -197.738)" opacity="0.4"/>
    <path id="Path_20" data-name="Path 20" d="M337.547,152.269,284.39,111.034a351.806,351.806,0,0,1-27.026-23.423c-15.153-14.444-35.724-25.992-59.674-32.14C139.5,40.533,93.4,67.02,72.438,105.911,40.4,165.341,15.847,261.779,157.9,210.445c31.068-11.227,62.516-12.42,86.361-18.334l86.342-17.8Z" transform="translate(-47.766 -51.242)" fill="#21be3d"/>
    <circle id="Ellipse_7" data-name="Ellipse 7" cx="2.857" cy="2.857" r="2.857" transform="translate(127.334 25.924)" fill="#f2f2f2"/>
    <path id="Path_21" data-name="Path 21" d="M452.582,85.617h-.744v-.744h-.145v.744h-.744v.145h.744v.744h.145v-.744h.744Z" transform="translate(-266.889 -50.231)" fill="#f2f2f2"/>
    <path id="Path_22" data-name="Path 22" d="M635.582,237.617h-.744v-.744h-.145v.744h-.744v.145h.744v.744h.145v-.744h.744Z" transform="translate(-375.195 -140.191)" fill="#f2f2f2"/>
    <path id="Path_23" data-name="Path 23" d="M622.582,284.617h-.744v-.744h-.145v.744h-.744v.145h.744v.744h.145v-.744h.744Z" transform="translate(-367.502 -168.007)" fill="#f2f2f2"/>
    <path id="Path_24" data-name="Path 24" d="M63.582,324.617h-.744v-.744h-.145v.744h-.744v.145h.744v.744h.145v-.744h.744Z" transform="translate(-36.664 -191.68)" fill="#f2f2f2"/>
    <path id="Path_25" data-name="Path 25" d="M143.582,106.617h-.744v-.744h-.145v.744h-.744v.145h.744v.744h.145v-.744h.744Z" transform="translate(-84.011 -62.66)" fill="#f2f2f2"/>
    <path id="Path_26" data-name="Path 26" d="M454.582,292.617h-.744v-.744h-.145v.744h-.744v.145h.744v.744h.145v-.744h.744Z" transform="translate(-268.073 -172.742)" fill="#f2f2f2"/>
    <path id="Path_27" data-name="Path 27" d="M263.582,42.617h-.744v-.744h-.145v.744h-.744v.145h.744v.744h.145v-.744h.744Z" transform="translate(-155.032 -24.782)" fill="#f2f2f2"/>
    <path id="Path_28" data-name="Path 28" d="M313.072,238.915l-.927.143c.29,1.853.518,3.747.686,5.62l.935-.082C313.6,242.7,313.365,240.788,313.072,238.915Z" transform="translate(-204.236 -162.314)" fill="#e6e6e6"/>
    <path id="Path_29" data-name="Path 29" d="M306.9,211.575l-.9.273c.543,1.8,1.029,3.637,1.441,5.469l.918-.208C307.944,215.257,307.45,213.4,306.9,211.575Z" transform="translate(-200.602 -146.133)" fill="#e6e6e6"/>
    <path id="Path_30" data-name="Path 30" d="M297.058,185.355l-.853.392c.784,1.71,1.518,3.465,2.184,5.22l.878-.331C298.593,188.861,297.854,187.082,297.058,185.355Z" transform="translate(-194.802 -130.615)" fill="#e6e6e6"/>
    <path id="Path_31" data-name="Path 31" d="M283.747,160.775l-.792.5c1.008,1.584,1.975,3.224,2.873,4.869l.824-.449C285.747,164.032,284.767,162.375,283.747,160.775Z" transform="translate(-186.96 -116.068)" fill="#e6e6e6"/>
    <path id="Path_32" data-name="Path 32" d="M267.2,138.245l-.714.608c1.216,1.429,2.4,2.922,3.518,4.433l.751-.559C269.628,141.2,268.432,139.69,267.2,138.245Z" transform="translate(-177.212 -102.734)" fill="#e6e6e6"/>
    <path id="Path_33" data-name="Path 33" d="M247.749,118.185l-.624.7c1.4,1.253,2.78,2.571,4.09,3.914l.673-.657C250.562,120.781,249.17,119.45,247.749,118.185Z" transform="translate(-165.754 -90.862)" fill="#e6e6e6"/>
    <path id="Path_34" data-name="Path 34" d="M225.772,100.965l-.527.776c1.559,1.049,3.1,2.167,4.584,3.322l.58-.739C228.906,103.157,227.347,102.026,225.772,100.965Z" transform="translate(-152.805 -80.67)" fill="#e6e6e6"/>
    <path id="Path_35" data-name="Path 35" d="M206.4,89.006v1.061c.975.51,1.943,1.045,2.89,1.592l.469-.812Q208.111,89.891,206.4,89.006Z" transform="translate(-141.655 -73.592)" fill="#e6e6e6"/>
    <path id="Path_36" data-name="Path 36" d="M314.57,267.2l.938-.017c.017.947.019,1.9,0,2.831l-.938-.015C314.588,269.075,314.587,268.133,314.57,267.2Z" transform="translate(-205.671 -179.042)" fill="#e6e6e6"/>
    <path id="Path_37" data-name="Path 37" d="M178.072,435.915l-.927.143c.29,1.853.518,3.747.686,5.62l.935-.082C178.6,439.7,178.365,437.788,178.072,435.915Z" transform="translate(-124.338 -278.906)" fill="#e6e6e6"/>
    <path id="Path_38" data-name="Path 38" d="M171.9,408.575l-.9.273c.543,1.8,1.029,3.637,1.441,5.469l.918-.208C172.944,412.257,172.45,410.4,171.9,408.575Z" transform="translate(-120.704 -262.726)" fill="#e6e6e6"/>
    <path id="Path_39" data-name="Path 39" d="M162.058,382.355l-.853.392c.784,1.71,1.518,3.465,2.184,5.22l.878-.331C163.593,385.861,162.854,384.082,162.058,382.355Z" transform="translate(-114.904 -247.208)" fill="#e6e6e6"/>
    <path id="Path_40" data-name="Path 40" d="M148.747,357.775l-.792.5c1.008,1.584,1.976,3.224,2.873,4.869l.824-.449C150.747,361.032,149.767,359.375,148.747,357.775Z" transform="translate(-107.062 -232.66)" fill="#e6e6e6"/>
    <path id="Path_41" data-name="Path 41" d="M132.2,335.245l-.714.608c1.216,1.429,2.4,2.922,3.518,4.433l.751-.559C134.628,338.2,133.432,336.69,132.2,335.245Z" transform="translate(-97.314 -219.326)" fill="#e6e6e6"/>
    <path id="Path_42" data-name="Path 42" d="M112.749,315.185l-.624.7c1.4,1.253,2.78,2.571,4.09,3.914l.673-.657C115.562,317.781,114.17,316.45,112.749,315.185Z" transform="translate(-85.856 -207.454)" fill="#e6e6e6"/>
    <path id="Path_43" data-name="Path 43" d="M90.771,297.965l-.527.776c1.559,1.049,3.1,2.167,4.584,3.322l.58-.739C93.906,300.157,92.347,299.026,90.771,297.965Z" transform="translate(-72.907 -197.262)" fill="#e6e6e6"/>
    <path id="Path_44" data-name="Path 44" d="M71.4,286.005v1.061c.976.51,1.943,1.045,2.89,1.592l.469-.812Q73.111,286.891,71.4,286.005Z" transform="translate(-61.756 -190.184)" fill="#e6e6e6"/>
    <path id="Path_45" data-name="Path 45" d="M179.57,464.2l.938-.017c.017.947.019,1.9,0,2.831l-.938-.015C179.588,466.075,179.587,465.133,179.57,464.2Z" transform="translate(-125.773 -295.634)" fill="#e6e6e6"/>
    <path id="Path_46" data-name="Path 46" d="M640.072,336.915l-.927.143c.29,1.853.518,3.747.686,5.62l.935-.082C640.6,340.7,640.365,338.788,640.072,336.915Z" transform="translate(-397.767 -220.314)" fill="#e6e6e6"/>
    <path id="Path_47" data-name="Path 47" d="M633.9,309.575l-.9.273c.543,1.8,1.029,3.637,1.441,5.469l.918-.208C634.944,313.257,634.45,311.4,633.9,309.575Z" transform="translate(-394.133 -204.134)" fill="#e6e6e6"/>
    <path id="Path_48" data-name="Path 48" d="M624.058,283.355l-.853.392c.784,1.71,1.518,3.465,2.184,5.22l.878-.331C625.593,286.861,624.854,285.082,624.058,283.355Z" transform="translate(-388.333 -188.616)" fill="#e6e6e6"/>
    <path id="Path_49" data-name="Path 49" d="M610.747,258.775l-.792.5c1.008,1.584,1.976,3.224,2.873,4.869l.824-.449C612.747,262.032,611.767,260.375,610.747,258.775Z" transform="translate(-380.491 -174.068)" fill="#e6e6e6"/>
    <path id="Path_50" data-name="Path 50" d="M594.2,236.245l-.714.608c1.216,1.429,2.4,2.922,3.518,4.433l.751-.559C596.628,239.2,595.432,237.69,594.2,236.245Z" transform="translate(-370.743 -160.734)" fill="#e6e6e6"/>
    <path id="Path_51" data-name="Path 51" d="M574.75,216.185l-.625.7c1.4,1.253,2.78,2.571,4.09,3.914l.674-.657C577.562,218.781,576.17,217.45,574.75,216.185Z" transform="translate(-359.285 -148.862)" fill="#e6e6e6"/>
    <path id="Path_52" data-name="Path 52" d="M552.772,198.965l-.527.776c1.559,1.049,3.1,2.167,4.584,3.322l.58-.739C555.906,201.157,554.347,200.026,552.772,198.965Z" transform="translate(-346.336 -138.67)" fill="#e6e6e6"/>
    <path id="Path_53" data-name="Path 53" d="M533.405,187.005v1.061c.976.51,1.943,1.045,2.89,1.592l.469-.812Q535.111,187.891,533.405,187.005Z" transform="translate(-335.186 -131.592)" fill="#e6e6e6"/>
    <path id="Path_54" data-name="Path 54" d="M641.57,365.2l.938-.017c.017.947.018,1.9,0,2.831l-.938-.015C641.588,367.075,641.587,366.133,641.57,365.2Z" transform="translate(-399.202 -237.042)" fill="#e6e6e6"/>
    <path id="Path_55" data-name="Path 55" d="M147.092,198.891H146.4V198.2h-.135v.692h-.692v.135h.692v.692h.135v-.692h.692Z" transform="translate(-86.156 -117.302)" fill="#f2f2f2"/>
    <path id="Path_56" data-name="Path 56" d="M127.551,301.248h-.692v-.692h-.135v.692h-.692v.135h.692v.692h.135v-.692h.692Z" transform="translate(-74.591 -177.881)" fill="#f2f2f2"/>
    <path id="Path_57" data-name="Path 57" d="M70.214,390.956h-.692v-.692h-.135v.692h-.692v.135h.692v.692h.135v-.692h.692Z" transform="translate(-40.657 -230.973)" fill="#f2f2f2"/>
    <path id="Path_58" data-name="Path 58" d="M267.255,216.169a50.127,50.127,0,1,1,23.258,18.674,16.215,16.215,0,1,1-23.258-18.674Z" transform="translate(-172.595 -102.626)" fill="#3f3d56"/>
    <path id="Path_59" data-name="Path 59" d="M354.048,190.679c11.491,0,19.4,6.374,19.4,15.536,0,6.067-2.942,10.266-8.611,13.606-5.332,3.1-7.14,5.363-7.14,9.285h0a2.421,2.421,0,0,1-2.421,2.421H349.4a2.421,2.421,0,0,1-2.419-2.336l-.01-.3c-.521-6.313,1.685-10.235,7.232-13.483,5.179-3.1,7.354-5.056,7.354-8.856s-3.677-6.588-8.243-6.588a7.852,7.852,0,0,0-7.477,4.447,5.409,5.409,0,0,1-4.944,3.091h0a5.318,5.318,0,0,1-4.748-7.751C339.089,194.186,345.3,190.679,354.048,190.679Zm-8.06,52.523a6.578,6.578,0,1,1,6.558,6.313A6.418,6.418,0,0,1,345.988,243.2Z" transform="translate(-218.078 -133.766)" fill="#21be3d"/>
  </g>
</svg>
