<svg xmlns="http://www.w3.org/2000/svg" width="291" height="192" viewBox="0 0 291 192" xmlns:xlink="http://www.w3.org/1999/xlink">
  <defs>
    <polygon id="a" points="289.822 .367 289.822 127.309 .001 127.309 .001 .367 289.822 .367"/>
  </defs>
  <g fill="none" fill-rule="evenodd">
    <g transform="translate(0 32.006)">
      <mask id="b" fill="white">
        <use xlink:href="#a"/>
      </mask>
      <path fill="#E4EEF8" d="M278.714975,35.2757818 L243.805884,35.2757818 L194.615802,35.2757818 C191.124893,35.2757818 188.268694,32.4195835 188.268694,28.9286744 C188.268694,25.4377653 191.124893,22.5815669 194.615802,22.5815669 L243.805884,22.5815669 L251.322446,22.5815669 C257.431537,22.5815669 262.429884,17.5832198 262.429884,11.4741289 C262.429884,5.36503802 257.431537,0.366690909 251.322446,0.366690909 L72.7021488,0.366690909 C66.5930579,0.366690909 61.5947107,5.36503802 61.5947107,11.4741289 C61.5947107,17.5832198 66.5930579,22.5815669 72.7021488,22.5815669 L96.2356364,22.5815669 C99.7265455,22.5815669 102.582744,25.4377653 102.582744,28.9286744 C102.582744,32.4195835 99.7265455,35.2757818 96.2356364,35.2757818 L53.3926612,35.2757818 L11.1082314,35.2757818 C4.9991405,35.2757818 0.00079338843,40.2741289 0.00079338843,46.3832198 C0.00079338843,52.4923107 4.9991405,57.4906579 11.1082314,57.4906579 L53.3926612,57.4906579 L64.5000992,57.4906579 C67.9910083,57.4906579 70.8472066,60.3468562 70.8472066,63.8377653 C70.8472066,67.3286744 67.9910083,70.1848727 64.5000992,70.1848727 L53.3926612,70.1848727 L28.4850248,70.1848727 C22.3759339,70.1848727 17.3775868,75.1832198 17.3775868,81.2923107 C17.3775868,87.4014017 22.3759339,92.3997488 28.4850248,92.3997488 L48.6323306,92.3997488 L74.0207603,92.3997488 C77.5116694,92.3997488 80.3678678,95.2559471 80.3678678,98.7468562 C80.3678678,102.237765 77.5116694,105.093964 77.194314,105.093964 L58.1529917,105.093964 C52.0439008,105.093964 47.0455537,110.092311 47.0455537,116.201402 C47.0455537,122.310493 52.0439008,127.30884 58.1529917,127.30884 L218.541223,127.30884 C224.650314,127.30884 229.648661,122.310493 229.648661,116.201402 C229.648661,110.092311 224.650314,105.093964 218.541223,105.093964 L207.310017,105.093964 C203.819107,105.093964 200.962909,102.237765 200.962909,98.7468562 C200.962909,95.2559471 203.819107,92.3997488 207.310017,92.3997488 L239.045554,92.3997488 L241.235306,92.3997488 C247.344397,92.3997488 252.342744,87.4014017 252.342744,81.2923107 C252.342744,75.1832198 247.344397,70.1848727 241.235306,70.1848727 L223.177785,70.1848727 C219.686876,70.1848727 216.830678,67.3286744 216.830678,63.8377653 C216.830678,60.3468562 219.686876,57.4906579 223.177785,57.4906579 L243.805884,57.4906579 L278.714975,57.4906579 C284.824066,57.4906579 289.822413,52.4923107 289.822413,46.3832198 C289.822413,40.2741289 284.824066,35.2757818 278.714975,35.2757818" mask="url(#b)"/>
    </g>
    <path fill="#100816" d="M83.6402777,20.0670149 C82.8643438,20.0670149 82.1867901,19.4989488 82.0725421,18.7087339 C81.9456,17.8423537 82.5469884,17.0362711 83.4133686,16.9109157 C86.0283769,16.5300893 88.7036826,16.3317421 91.3647074,16.325395 L91.3694678,16.325395 C92.2437818,16.325395 92.9530711,17.0315107 92.9562446,17.9074116 C92.9594182,18.7833124 92.2517157,19.4957752 91.3742281,19.4989488 C88.8623603,19.5052959 86.3377983,19.6925355 83.8703603,20.0495603 C83.7926083,20.0622545 83.716443,20.0670149 83.6402777,20.0670149 L83.6402777,20.0670149 Z M106.681864,21.6331636 C106.535881,21.6331636 106.388311,21.6141223 106.239154,21.5712793 C103.839947,20.8778579 101.366162,20.3510479 98.8828562,20.0035438 C98.0148893,19.8829488 97.4103273,19.0816264 97.5309223,18.2136595 C97.6515174,17.3441058 98.4449058,16.7284364 99.3208066,16.8601388 C101.953269,17.2282711 104.577798,17.7868165 107.122988,18.5214942 C107.96398,18.7658579 108.449534,19.6449322 108.20517,20.4890975 C108.00365,21.182519 107.370526,21.6331636 106.681864,21.6331636 L106.681864,21.6331636 Z M68.8197818,24.4592132 C68.2183934,24.4592132 67.6455669,24.1164694 67.3774017,23.5372959 C67.0108562,22.7407339 67.3583603,21.7981884 68.1533355,21.4300562 C70.5636496,20.3208992 73.0755174,19.3735934 75.6207074,18.6198744 C76.4664595,18.3691636 77.3439471,18.8515438 77.5930711,19.6909488 C77.8437818,20.5303537 77.3629884,21.4141884 76.5235835,21.6633124 C74.1227901,22.3741884 71.755319,23.265957 69.4830545,24.3132298 C69.2672529,24.4116099 69.0419306,24.4592132 68.8197818,24.4592132 L68.8197818,24.4592132 Z M120.769269,28.023114 C120.477302,28.023114 120.180575,27.9421884 119.91717,27.7724033 C117.803583,26.423643 115.578922,25.214519 113.300311,24.1799405 C112.502162,23.8181554 112.149898,22.8771967 112.511683,22.0806347 C112.873468,21.282486 113.81284,20.9254612 114.612575,21.2904198 C117.026063,22.3868826 119.3856,23.6689983 121.624542,25.0986843 C122.36398,25.5715438 122.579782,26.5521719 122.108509,27.2900231 C121.805435,27.7644694 121.292906,28.023114 120.769269,28.023114 L120.769269,28.023114 Z M55.8462942,32.8580231 C55.4051702,32.8580231 54.9640463,32.6723702 54.6498645,32.3137587 C54.0738645,31.6520727 54.1436826,30.6492298 54.8037818,30.0748165 C56.8062942,28.3309488 58.9468562,26.7156099 61.1715174,25.2764033 C61.9077818,24.7971967 62.8899967,25.0098248 63.3660298,25.7445025 C63.8420628,26.4807669 63.6326083,27.4629818 62.8979306,27.9390149 C60.7986248,29.2988826 58.7770711,30.8221884 56.8903934,32.4660893 C56.5889058,32.7279074 56.2176,32.8580231 55.8462942,32.8580231 L55.8462942,32.8580231 Z M132.484443,38.1102545 C132.043319,38.1102545 131.603782,37.9261884 131.288013,37.5659901 C129.644112,35.682486 127.847881,33.8989488 125.951683,32.2645686 C125.286823,31.6933289 125.212245,30.6920727 125.785071,30.0272132 C126.356311,29.3607669 127.359154,29.2877752 128.022426,29.8606017 C130.032873,31.5917752 131.937005,33.4816264 133.680873,35.4809653 C134.255286,36.1410645 134.187055,37.1439074 133.526955,37.7199074 C133.227055,37.9817256 132.855749,38.1102545 132.484443,38.1102545 L132.484443,38.1102545 Z M45.7416992,44.5652628 C45.4497322,44.5652628 45.153005,44.485924 44.8880132,44.3145521 C44.1485752,43.8416926 43.9359471,42.8610645 44.4072198,42.1232132 C45.8400793,39.8874446 47.4443107,37.7357752 49.1770711,35.7300893 C49.7530711,35.063643 50.755914,34.9954116 51.4144264,35.5666512 C52.0776992,36.1394777 52.1522777,37.1407339 51.5794512,37.8040066 C49.9450711,39.6970314 48.431286,41.7249322 47.0793521,43.8353455 C46.7778645,44.308205 46.2637488,44.5652628 45.7416992,44.5652628 L45.7416992,44.5652628 Z M140.900707,51.0758083 C140.300906,51.0758083 139.726493,50.7346512 139.458327,50.1554777 C138.409468,47.8832132 137.186063,45.6680727 135.824608,43.5719405 C135.346988,42.835676 135.556443,41.8518744 136.291121,41.3758413 C137.028972,40.8966347 138.0096,41.107676 138.485633,41.8423537 C139.931187,44.0654281 141.225997,46.4138579 142.339914,48.8225851 C142.708046,49.6191471 142.360542,50.5616926 141.565567,50.9298248 C141.349765,51.0297917 141.122856,51.0758083 140.900707,51.0758083 L140.900707,51.0758083 Z M39.3438149,58.6463207 C39.1978314,58.6463207 39.0470876,58.6272793 38.9011041,58.5828496 C38.0585256,58.338486 37.5761455,57.4578248 37.8205091,56.6168331 C38.5599471,54.0748165 39.4945587,51.5566017 40.594195,49.1320066 C40.9559802,48.3338579 41.8953521,47.9768331 42.6935008,48.3433785 C43.4916496,48.7051636 43.8455008,49.6461223 43.4821289,50.4442711 C42.4459636,52.7308165 41.5653025,55.1046347 40.8671207,57.5038413 C40.6656,58.1972628 40.032476,58.6463207 39.3438149,58.6463207 L39.3438149,58.6463207 Z M145.302426,65.8947174 C144.528079,65.8947174 143.848939,65.3266512 143.734691,64.5364364 C143.372906,62.0594777 142.827055,59.5872793 142.114592,57.1912463 C141.863881,56.3518413 142.343088,55.4695934 143.182493,55.2172959 C144.023484,54.9761058 144.905732,55.4473785 145.15803,56.2867835 C145.911749,58.8303868 146.489336,61.4501554 146.874922,64.0778579 C147.001864,64.944238 146.402063,65.7503207 145.534096,65.8772628 C145.456344,65.889957 145.378592,65.8947174 145.302426,65.8947174 L145.302426,65.8947174 Z M37.1905587,73.9000066 C36.3130711,73.9000066 35.6037818,73.2462545 35.6037818,72.3687669 L35.6037818,72.2576926 C35.6037818,69.6363372 35.7862612,67.0007008 36.1480463,64.4190149 C36.2702281,63.5526347 37.0636165,62.9433124 37.9395174,63.0686678 C38.8074843,63.1892628 39.4136331,63.9921719 39.2914512,64.8601388 C38.9502942,67.2958413 38.7773355,69.7839074 38.7773355,72.2576926 C38.7773355,73.1335934 38.0664595,73.9000066 37.1905587,73.9000066 L37.1905587,73.9000066 Z M145.340509,81.5752463 C145.265931,81.5752463 145.191352,81.570486 145.115187,81.5593785 C144.24722,81.4356099 143.644245,80.6327008 143.768013,79.7647339 C144.118691,77.2941223 144.297997,74.7695603 144.297997,72.2576926 L144.297997,72.0323702 C144.297997,71.1548826 145.007286,70.4455934 145.884774,70.4455934 C146.760674,70.4455934 147.47155,71.1548826 147.47155,72.0323702 L147.47155,72.2576926 C147.47155,74.9187174 147.281137,77.5956099 146.909831,80.2106182 C146.79717,81.0024198 146.11803,81.5752463 145.340509,81.5752463 L145.340509,81.5752463 Z M39.4056992,89.2552463 C38.7186248,89.2552463 38.0870876,88.8077752 37.8839802,88.1175273 C37.1302612,85.5691636 36.5590215,82.9478083 36.1813686,80.3248661 C36.0576,79.4568992 36.6589884,78.6524033 37.5253686,78.5270479 C38.4060298,78.3953455 39.1978314,79.0062545 39.3231868,79.8710479 C39.6786248,82.3448331 40.2181289,84.8170314 40.9274182,87.2178248 C41.1749554,88.0588165 40.6957488,88.9410645 39.854757,89.1901884 C39.7056,89.2346182 39.5548562,89.2552463 39.4056992,89.2552463 L39.4056992,89.2552463 Z M140.98798,96.4131967 C140.767418,96.4131967 140.542096,96.3671802 140.329468,96.2688 C139.532906,95.9054281 139.182228,94.9628826 139.5456,94.1663207 C140.588112,91.8892959 141.471947,89.5170645 142.176476,87.1146843 C142.422426,86.2736926 143.306261,85.7928992 144.145666,86.0372628 C144.986658,86.2832132 145.469038,87.1654612 145.223088,88.0064529 C144.475716,90.5548165 143.536344,93.0714446 142.431947,95.486519 C142.165369,96.0688661 141.590955,96.4131967 140.98798,96.4131967 L140.98798,96.4131967 Z M45.8575339,103.301395 C45.3370711,103.301395 44.8277157,103.045924 44.5246413,102.576238 C43.0870215,100.353164 41.7953851,98.0015603 40.6862281,95.5896595 C40.3180959,94.7930975 40.6671868,93.8505521 41.4637488,93.4855934 C42.2650711,93.1174612 43.204443,93.4681388 43.5678149,94.263114 C44.6150876,96.5385521 45.8337322,98.7568661 47.1888397,100.852998 C47.6648727,101.589263 47.4538314,102.571478 46.7175669,103.047511 C46.4509884,103.218883 46.1526744,103.301395 45.8575339,103.301395 L45.8575339,103.301395 Z M132.624079,109.421593 C132.255947,109.421593 131.884641,109.293064 131.58474,109.032833 C130.923055,108.45842 130.85165,107.455577 131.424476,106.793891 C133.063617,104.90404 134.582162,102.877726 135.937269,100.772073 C136.410129,100.035808 137.393931,99.8263537 138.130195,100.297626 C138.868046,100.770486 139.079088,101.752701 138.606228,102.488965 C137.170195,104.723147 135.561203,106.870056 133.823683,108.874155 C133.509501,109.234354 133.06679,109.421593 132.624079,109.421593 L132.624079,109.421593 Z M56.0017983,114.965792 C55.6336661,114.965792 55.2639471,114.83885 54.9640463,114.578618 C52.9520132,112.837924 51.0526413,110.943312 49.3167074,108.947147 C48.7422942,108.285461 48.8121124,107.282618 49.4737983,106.708205 C50.1354843,106.136965 51.1367405,106.202023 51.7127405,106.863709 C53.3487074,108.7488 55.1417653,110.537098 57.0395504,112.179412 C57.7028231,112.752238 57.7742281,113.753494 57.2014017,114.416767 C56.8888066,114.778552 56.4445091,114.965792 56.0017983,114.965792 L56.0017983,114.965792 Z M120.948575,119.553164 C120.426526,119.553164 119.915583,119.296106 119.612509,118.82642 C119.138063,118.088569 119.350691,117.106354 120.086955,116.631907 C122.183088,115.283147 124.207815,113.763015 126.104013,112.119114 C126.765699,111.541527 127.768542,111.612932 128.341369,112.276205 C128.915782,112.937891 128.844377,113.940734 128.182691,114.51356 C126.175418,116.259015 124.028509,117.869593 121.807021,119.300866 C121.540443,119.472238 121.242129,119.553164 120.948575,119.553164 L120.948575,119.553164 Z M69.0165421,123.320172 C68.7975669,123.320172 68.5738314,123.275742 68.3596165,123.177362 C65.952476,122.079312 63.5945256,120.794023 61.3539967,119.356403 C60.6161455,118.883544 60.4019306,117.901329 60.8747901,117.163478 C61.3492364,116.425626 62.3282777,116.209825 63.0677157,116.685858 C65.1813025,118.040965 67.4059636,119.25485 69.6766413,120.289428 C70.4732033,120.654387 70.8254678,121.593759 70.4620959,122.391907 C70.1955174,122.975841 69.6195174,123.320172 69.0165421,123.320172 L69.0165421,123.320172 Z M106.896079,125.990717 C106.210592,125.990717 105.577468,125.543246 105.37436,124.851412 C105.126823,124.01042 105.609203,123.128172 106.448608,122.882221 C108.850988,122.176106 111.220046,121.289098 113.492311,120.246585 C114.292046,119.883213 115.231418,120.230717 115.597964,121.027279 C115.962922,121.823841 115.612245,122.766387 114.815683,123.131345 C112.405369,124.235742 109.890327,125.176701 107.34355,125.92566 C107.194393,125.970089 107.04365,125.990717 106.896079,125.990717 L106.896079,125.990717 Z M83.8656,127.65366 C83.7926083,127.65366 83.716443,127.648899 83.6418645,127.637792 C81.0157488,127.266486 78.3912198,126.701593 75.844443,125.958982 C75.0034512,125.714618 74.5194843,124.833957 74.7638479,123.992965 C75.0097983,123.151974 75.8888727,122.663246 76.7314512,122.91237 C79.1338314,123.613726 81.6092033,124.145296 84.0845752,124.495974 C84.9525421,124.618155 85.5571041,125.421064 85.4349223,126.287445 C85.3238479,127.080833 84.6431207,127.65366 83.8656,127.65366 L83.8656,127.65366 Z M91.5932033,128.191577 C90.7173025,128.191577 90.0064264,127.480701 90.0064264,126.606387 C90.0064264,125.728899 90.7157157,125.018023 91.5916165,125.018023 C94.1018975,125.016436 96.6264595,124.833957 99.0954843,124.480106 C99.9777322,124.353164 100.767947,124.959312 100.893302,125.824106 C101.017071,126.692073 100.414096,127.496569 99.5477157,127.621924 C96.9279471,127.99799 94.2526413,128.18999 91.5947901,128.191577 L91.5932033,128.191577 Z"/>
    <path fill="#FFFFFF" d="M245.851557,30.9421488 C245.851557,47.1542479 232.708284,60.2975207 216.496185,60.2975207 C200.284086,60.2975207 187.140813,47.1542479 187.140813,30.9421488 C187.140813,14.7300496 200.284086,1.58677686 216.496185,1.58677686 C232.708284,1.58677686 245.851557,14.7300496 245.851557,30.9421488"/>
    <path fill="#100816" d="M216.49555,3.17355372 C201.18474,3.17355372 188.726955,15.6313388 188.726955,30.9421488 C188.726955,46.2529587 201.18474,58.7107438 216.49555,58.7107438 C231.80636,58.7107438 244.264145,46.2529587 244.264145,30.9421488 C244.264145,15.6313388 231.80636,3.17355372 216.49555,3.17355372 M216.49555,61.8842975 C199.434526,61.8842975 185.553402,48.0031736 185.553402,30.9421488 C185.553402,13.881124 199.434526,0 216.49555,0 C233.556575,0 247.437699,13.881124 247.437699,30.9421488 C247.437699,48.0031736 233.556575,61.8842975 216.49555,61.8842975"/>
    <path fill="#100816" d="M222.786962,7.95244959 C222.720317,7.95244959 222.652086,7.9445157 222.583855,7.92547438 C220.608317,7.40501157 218.559788,7.14001983 216.495392,7.14001983 C216.057441,7.14001983 215.665507,6.7861686 215.665507,6.3466314 C215.665507,5.90868099 215.982863,5.55324298 216.420813,5.55324298 L216.495392,5.55324298 C218.696251,5.55324298 220.881243,5.83568926 222.990069,6.39264793 C223.413739,6.50372231 223.666036,6.9369124 223.553375,7.3621686 C223.459755,7.71760661 223.139226,7.95244959 222.786962,7.95244959 M204.140747,10.4643174 C203.867821,10.4643174 203.60283,10.3230942 203.45526,10.0707967 C203.234698,9.69155702 203.363226,9.20600331 203.740879,8.98544132 C205.662466,7.86676364 207.718929,7.00673058 209.854731,6.43231736 C210.27364,6.32124298 210.713177,6.56878017 210.825838,6.99244959 C210.940086,7.41453223 210.689375,7.85089587 210.265706,7.96355702 C208.267954,8.50306116 206.34002,9.30755702 204.540615,10.3564165 C204.41526,10.430995 204.27721,10.4643174 204.140747,10.4643174 M233.826169,14.2821025 C233.623061,14.2821025 233.42154,14.2043504 233.266036,14.0520198 C231.791921,12.585838 230.130565,11.3180033 228.327987,10.2850116 C227.948747,10.0660364 227.817045,9.58048264 228.03602,9.20124298 C228.253408,8.81882975 228.735788,8.6918876 229.118202,8.90927603 C231.039788,10.012086 232.812218,11.3624331 234.386301,12.926995 C234.695722,13.2348298 234.697309,13.737838 234.389474,14.0488463 C234.23397,14.2043504 234.030863,14.2821025 233.826169,14.2821025 M195.162764,19.4883174 C195.027888,19.4883174 194.891425,19.4534083 194.766069,19.3820033 C194.38683,19.1630281 194.256714,18.6790612 194.474102,18.2982347 C195.580086,16.3782347 196.933607,14.6073917 198.496582,13.0364826 C198.80759,12.7238876 199.309012,12.7270612 199.618433,13.0333091 C199.931028,13.3411438 199.931028,13.8457388 199.621607,14.1551603 C198.157012,15.629276 196.88759,17.2890446 195.849838,19.0916231 C195.703855,19.3455074 195.437276,19.4883174 195.162764,19.4883174 M240.231987,25.2752926 C239.881309,25.2752926 239.562367,25.0436231 239.46716,24.6897719 C238.922896,22.6872595 238.115226,20.7609124 237.067954,18.9630942 C236.845805,18.5854413 236.974334,18.0998876 237.353574,17.8793256 C237.72964,17.6540033 238.21678,17.784119 238.437342,18.1649455 C239.55602,20.0817719 240.41764,22.1366479 240.9984,24.2740364 C241.112648,24.6977058 240.863524,25.1324826 240.439855,25.2467306 C240.370036,25.2657719 240.300218,25.2752926 240.231987,25.2752926 M191.90035,31.7604496 C191.4624,31.7604496 191.106962,31.4304 191.106962,30.9924496 L191.106962,30.9416727 C191.106962,28.7344661 191.390995,26.5431273 191.951127,24.4263669 C192.065375,24.0042843 192.492218,23.7440529 192.922235,23.8614744 C193.344317,23.9741355 193.596615,24.4089124 193.48554,24.8325818 C192.960317,26.8160529 192.693739,28.8725157 192.693739,30.9416727 C192.693739,31.3812099 192.339888,31.7604496 191.90035,31.7604496 M240.260549,38.0980364 C240.193904,38.0980364 240.124086,38.0885157 240.055855,38.0710612 C239.632185,37.9584 239.379888,37.5236231 239.492549,37.0999537 C240.027293,35.1037884 240.297045,33.0330446 240.297045,30.9416727 C240.297045,30.5037223 240.652483,30.0990942 241.090433,30.0990942 C241.52997,30.0990942 241.883821,30.4037554 241.883821,30.8432926 L241.883821,30.9416727 C241.883821,33.1710942 241.596615,35.3798876 241.026962,37.5093421 C240.931755,37.8647802 240.611226,38.0980364 240.260549,38.0980364 M195.21354,44.0706645 C194.940615,44.0706645 194.674036,43.9294413 194.526466,43.675557 C193.414136,41.7603174 192.555689,39.7038545 191.979689,37.560119 C191.865441,37.1380364 192.116152,36.7016727 192.539821,36.5890116 C192.958731,36.4779372 193.398268,36.7254744 193.510929,37.147557 C194.053607,39.1548298 194.854929,41.0827636 195.900615,42.878995 C196.11959,43.2566479 195.991061,43.7422017 195.611821,43.9627636 C195.486466,44.0357554 195.350003,44.0706645 195.21354,44.0706645 M233.895987,49.1182017 C233.692879,49.1182017 233.489772,49.0420364 233.334268,48.8865322 C233.024846,48.5771107 233.024846,48.0741025 233.334268,47.764681 C234.80521,46.2905653 236.079392,44.6339702 237.117144,42.8377388 C237.339293,42.4584992 237.826433,42.3299702 238.200912,42.5489455 C238.580152,42.7663339 238.710268,43.2518876 238.489706,43.6311273 C237.383722,45.5463669 236.027028,47.3156231 234.456119,48.8865322 C234.302202,49.0420364 234.099094,49.1182017 233.895987,49.1182017 M204.224846,53.0565818 C204.08997,53.0565818 203.953507,53.0216727 203.828152,52.9502678 C201.911326,51.8442843 200.142069,50.4891769 198.569574,48.9214413 C198.258565,48.6120198 198.258565,48.1105983 198.5664,47.7995901 C198.877408,47.486995 199.382003,47.4901686 199.688251,47.7964165 C201.163954,49.2673587 202.823722,50.5383669 204.62154,51.5745322 C205.00078,51.7950942 205.130896,52.2806479 204.911921,52.6598876 C204.765937,52.9137719 204.499359,53.0565818 204.224846,53.0565818 M222.883755,55.4922843 C222.533078,55.4922843 222.212549,55.2574413 222.117342,54.9051769 C222.003094,54.4815074 222.253805,54.0467306 222.677474,53.9340694 C224.681574,53.3945653 226.611094,52.593243 228.410499,51.5507306 C228.784979,51.3301686 229.273706,51.455524 229.495855,51.8379372 C229.71483,52.2171769 229.584714,52.7027306 229.207061,52.9232926 C227.287061,54.0356231 225.229012,54.8908959 223.08845,55.4637223 C223.018631,55.4827636 222.951987,55.4922843 222.883755,55.4922843 M216.52078,56.3301025 L216.495392,56.3301025 C214.280251,56.3301025 212.077805,56.0444826 209.953111,55.4795901 C209.529441,55.3669289 209.277144,54.9321521 209.389805,54.5100694 C209.502466,54.0848132 209.932483,53.8293421 210.359326,53.9451769 C212.352317,54.4751603 214.416714,54.7433256 216.495392,54.7433256 C216.934929,54.7433256 217.301474,55.0987636 217.301474,55.536714 C217.301474,55.9762512 216.958731,56.3301025 216.52078,56.3301025"/>
    <path fill="#100816" d="M229.931425,22.4225851 L227.94478,20.7183868 C227.505243,20.3423207 226.845144,20.3819901 226.454797,20.8104198 L213.931954,34.5534942 C213.530499,34.9930314 212.848185,35.0215934 212.411821,34.6185521 L207.242102,29.8407669 C206.796218,29.428205 206.09645,29.4694612 205.699755,29.9296264 L204.009838,31.9019901 C203.630598,32.343114 203.673441,33.0063868 204.106631,33.3967339 L208.521045,37.3747835 L208.517871,37.3795438 L213.203623,41.5210314 C213.509871,41.793957 213.979557,41.7669818 214.254069,41.4623207 L218.405078,36.8638413 L218.401904,36.8606678 L230.029805,23.9538248 C230.432846,23.5063537 230.388417,22.814519 229.931425,22.4225851"/>
    <path fill="#FFFFFF" d="M74.3195504,75.6167405 L15.9293355,75.6167405 C15.4025256,75.6167405 14.9756826,75.1898975 14.9756826,74.6630876 L14.9756826,38.8416 C14.9756826,38.2433851 15.4596496,37.7578314 16.0578645,37.7578314 L74.1894347,37.7578314 C74.7876496,37.7578314 75.2732033,38.2433851 75.2732033,38.8416 L75.2732033,74.6630876 C75.2732033,75.1898975 74.8463603,75.6167405 74.3195504,75.6167405"/>
    <path fill="#100816" d="M74.0823273,38.8403306 L74.0823273,66.8913719 L16.142757,66.8913719 L16.0586579,38.9466446 L74.0823273,38.8403306 Z M74.1886413,36.5664793 L16.0586579,36.5664793 C14.8051041,36.5664793 13.7848066,37.5867769 13.7848066,38.8403306 L13.7848066,74.663405 C13.7848066,75.8455537 14.7463934,76.8071405 15.9301289,76.8071405 L36.0393521,76.8071405 L32.8515174,80.8137521 L31.488476,80.8137521 C30.820443,80.8137521 30.2793521,81.3564298 30.2793521,82.0244628 L30.2793521,83.2335868 C30.2793521,83.9000331 30.820443,84.4427107 31.488476,84.4427107 L58.1241124,84.4427107 C58.7905587,84.4427107 59.3332364,83.9000331 59.3332364,83.2335868 L59.3332364,82.0244628 C59.3332364,81.3564298 58.7905587,80.8137521 58.1241124,80.8137521 L56.7721785,80.8137521 L53.6874843,76.8071405 L74.318757,76.8071405 C75.5024926,76.8071405 76.4624926,75.8455537 76.4624926,74.663405 L76.4624926,38.8403306 C76.4624926,37.5867769 75.442195,36.5664793 74.1886413,36.5664793 L74.1886413,36.5664793 Z"/>
    <path fill="#CADFF0" d="M14.975524,69.6618843 L75.2730446,69.6618843"/>
    <path fill="#FFFFFF" d="M150.313785,101.640833 L150.088463,101.640833 L122.841917,101.640833 C122.841917,101.640833 122.841917,101.274288 122.883174,100.618949 C124.874579,68.951643 170.269091,65.7622215 176.82724,96.8075107 C177.441322,99.714486 177.560331,101.640833 177.560331,101.640833 L150.313785,101.640833 Z M203.004298,186.306486 L203.004298,109.747676 C202.328331,100.964866 194.673719,101.415511 194.673719,101.415511 L190.170446,101.415511 C185.621157,61.3065521 150.534347,62.9076099 150.313785,62.9107835 C150.093223,62.9076099 114.781091,61.3065521 110.233388,101.415511 L105.728529,101.415511 C105.728529,101.415511 98.0739174,100.964866 97.3979504,109.747676 L97.3979504,186.306486 C97.3979504,186.306486 96.9473058,189.459412 100.999934,189.684734 L199.402314,189.684734 C203.454942,189.459412 203.004298,186.306486 203.004298,186.306486 L203.004298,186.306486 Z"/>
    <path fill="#100816" d="M124.515174,100.05358 L175.788694,100.05358 C175.680793,99.2871669 175.518942,98.2906711 175.274579,97.1339107 C172.066116,81.9452826 159.370314,75.9504397 148.188298,76.7834975 C137.241124,77.5800595 125.773488,85.0839273 124.515174,100.05358 L124.515174,100.05358 Z M177.561124,103.227134 L122.842711,103.227134 C121.968397,103.227134 121.257521,102.516258 121.255934,101.640357 C121.255934,101.640357 121.254347,101.238902 121.300364,100.521679 C122.388893,83.1972496 135.473455,74.5271008 147.956628,73.6178777 C160.50962,72.7102413 174.776331,79.4191339 178.379901,96.4785719 C179.011438,99.4664727 179.139967,101.459464 179.144727,101.541977 C179.171702,101.979927 179.017785,102.40677 178.716298,102.727299 C178.417983,103.046241 177.999074,103.227134 177.561124,103.227134 L177.561124,103.227134 Z M98.9680661,186.529745 C98.9696529,186.529745 98.9299835,187.070836 99.2647934,187.461183 C99.6646612,187.927696 100.477091,188.065745 101.088,188.099068 L199.401521,188.095894 C199.925157,188.065745 200.739174,187.927696 201.137455,187.461183 C201.480198,187.061316 201.431008,186.504357 201.431008,186.499597 C201.424661,186.44882 201.418314,186.358374 201.418314,186.30601 L201.418314,109.745613 C200.886744,102.911365 195.374281,102.963729 194.757025,103.000225 L190.169653,103.001812 C189.361983,103.001812 188.682843,102.39725 188.593983,101.59434 C186.786645,85.6710347 179.936529,74.6032661 168.230876,68.7004562 C159.575008,64.3352331 151.29838,64.4605884 150.38757,64.4954975 C149.318083,64.463762 140.998612,64.3320595 132.28086,68.702043 C120.502215,74.6048529 113.615603,85.6726215 111.808264,101.59434 C111.719405,102.39725 111.040264,103.001812 110.232595,103.001812 L105.729322,103.001812 C105.023207,102.984357 99.5139174,102.919299 98.9791736,109.869382 L98.9839339,186.30601 C98.9839339,186.380588 98.9791736,186.456754 98.9680661,186.529745 L98.9680661,186.529745 Z M101.000727,191.269448 C99.0839008,191.166307 97.6986446,190.555398 96.7957686,189.455762 C95.7484959,188.178407 95.7707107,186.710638 95.8103802,186.228258 L95.8103802,109.745613 C96.4450909,101.451531 102.612893,99.6188033 105.822942,99.8314314 L108.829884,99.8298446 C114.088463,60.6142413 148.826182,61.2711669 150.34314,61.3235306 C151.763306,61.2791008 186.315372,60.6269355 191.572364,99.8282579 L194.672926,99.8282579 C197.725884,99.642605 203.95557,101.448357 204.587107,109.623431 L204.591868,186.228258 C204.631537,186.709051 204.653752,188.178407 203.608066,189.454175 C202.703603,190.555398 201.318347,191.166307 199.49038,191.266274 L101.000727,191.269448 Z"/>
    <path fill="#100816" d="M164.090817,128.596681 C164.090817,121.367326 158.229263,115.505772 150.999907,115.505772 C143.770552,115.505772 137.908998,121.367326 137.908998,128.596681 C137.908998,133.157078 140.243147,137.16845 143.780073,139.512119 L137.908998,173.802367 C137.908998,174.779821 138.708734,175.579557 139.686188,175.579557 L162.313626,175.579557 C163.291081,175.579557 164.090817,174.779821 164.090817,173.802367 L158.219742,139.512119 C161.756668,137.16845 164.090817,133.157078 164.090817,128.596681"/>
  </g>
</svg>
