<svg xmlns="http://www.w3.org/2000/svg" xmlns:xlink="http://www.w3.org/1999/xlink" width="2198.942" height="1063.054" viewBox="0 0 2198.942 1063.054"><defs><clipPath id="a"><path d="M1053.9,55.43l-30.94,38.23,17.65,45.91,48.58,7.7,30.93-38.22-17.64-45.92Z" fill="none"/></clipPath><clipPath id="b"><rect width="98" height="93" transform="translate(1022.91 54.55)" fill="none"/></clipPath><clipPath id="c"><path d="M1102.48,63.13l17.64,45.92-30.93,38.22-48.58-7.7-17.65-45.91,30.94-38.23Z" fill="none"/></clipPath><clipPath id="e"><path d="M1053.9,55.43l-30.94,38.23,17.65,45.91,48.58,7.7,30.93-38.22-17.64-45.92" fill="none"/></clipPath><clipPath id="f"><rect width="85" height="33" transform="translate(1049.91 137.55)" fill="none"/></clipPath><clipPath id="g"><line x1="83.22" y2="32.21" transform="translate(1050.87 137.79)" fill="none"/></clipPath><clipPath id="j"><rect width="85" height="57" transform="translate(1049.91 125.55)" fill="none"/></clipPath><clipPath id="m"><rect width="84" height="34" transform="translate(1043.91 119.55)" fill="none"/></clipPath><clipPath id="n"><line x1="83.23" y2="32.21" transform="translate(1044.16 120.5)" fill="none"/></clipPath><clipPath id="q"><rect width="84" height="56" transform="translate(1043.91 108.55)" fill="none"/></clipPath><clipPath id="t"><rect width="84" height="33" transform="translate(1036.91 101.55)" fill="none"/></clipPath><clipPath id="u"><line x1="83.22" y2="32.21" transform="translate(1037.12 102.33)" fill="none"/></clipPath><clipPath id="x"><rect width="84" height="56" transform="translate(1036.91 90.55)" fill="none"/></clipPath><clipPath id="aa"><rect width="84" height="33" transform="translate(1029.91 84.55)" fill="none"/></clipPath><clipPath id="ab"><line x1="83.22" y2="32.21" transform="translate(1030.42 85.04)" fill="none"/></clipPath><clipPath id="ae"><rect width="84" height="57" transform="translate(1029.91 72.55)" fill="none"/></clipPath><clipPath id="ah"><rect width="57" height="144" transform="translate(1017.91 37.55)" fill="none"/></clipPath><clipPath id="ai"><line x1="55.61" y1="142.81" transform="translate(1018.71 38.32)" fill="none"/></clipPath><clipPath id="al"><rect width="56" height="144" transform="translate(1034.91 31.55)" fill="none"/></clipPath><clipPath id="am"><line x1="55.61" y1="142.81" transform="translate(1035.06 31.99)" fill="none"/></clipPath><clipPath id="ao"><path d="M1102.011,55.43l-79.051,97.677,45.1,117.3,124.121,19.673,79.025-97.651L1226.132,75.1" transform="translate(0)" fill="none"/></clipPath><clipPath id="ap"><rect width="143.079" height="429.236" fill="none"/></clipPath><clipPath id="aq"><rect width="250.388" height="237.613" fill="none"/></clipPath><clipPath id="as"><rect width="56" height="144" transform="translate(1051.91 24.55)" fill="none"/></clipPath><clipPath id="at"><line x1="55.6" y1="142.81" transform="translate(1052.31 25.32)" fill="none"/></clipPath><clipPath id="aw"><rect width="56" height="167" transform="translate(1051.91 13.55)" fill="none"/></clipPath><clipPath id="az"><rect width="57" height="144" transform="translate(1067.91 18.55)" fill="none"/></clipPath><clipPath id="ba"><line x1="55.6" y1="142.81" transform="translate(1068.66 18.99)" fill="none"/></clipPath><clipPath id="bd"><rect width="57" height="168" transform="translate(1067.91 6.55)" fill="none"/></clipPath><clipPath id="bg"><rect width="84" height="33" transform="translate(1022.91 66.55)" fill="none"/></clipPath><clipPath id="bh"><line x1="83.22" y2="32.21" transform="translate(1023.13 67.05)" fill="none"/></clipPath><clipPath id="bk"><rect width="84" height="57" transform="translate(1022.91 54.55)" fill="none"/></clipPath><clipPath id="bn"><rect width="84" height="33" transform="translate(1015.91 49.55)" fill="none"/></clipPath><clipPath id="bo"><line x1="83.22" y2="32.21" transform="translate(1016.43 49.76)" fill="none"/></clipPath><clipPath id="br"><rect width="84" height="57" transform="translate(1015.91 37.55)" fill="none"/></clipPath><clipPath id="bt"><path d="M532.318,507.878c-89,51.368-202.794,20.864-254.168-68.134S257.274,236.951,346.27,185.572s202.792-20.888,254.176,68.1c51.393,89.008,20.889,202.825-68.127,254.2" transform="translate(-253.198 -160.613)" fill="none"/></clipPath><clipPath id="bu"><path d="M290.771,110.581A23.089,23.089,0,1,1,321.662,121.2a23.089,23.089,0,0,1-30.892-10.617" transform="translate(0 0)" fill="none"/></clipPath><clipPath id="bv"><rect width="206.792" height="31.814" transform="translate(63.223 284.709) rotate(-26)" fill="none"/></clipPath><clipPath id="bw"><path d="M69.392,204.781.21,195.567,43.545,140.84" transform="translate(0 0)" fill="none"/></clipPath><clipPath id="bx"><path d="M253.95,146.59a20.5,20.5,0,1,1-2,28.92,20.5,20.5,0,0,1,2-28.92" fill="none"/></clipPath><clipPath id="by"><path d="M1088.639,55.43l-65.679,81.154,37.467,97.457,103.125,16.345,65.658-81.133-37.446-97.478" transform="translate(0)" fill="none"/></clipPath><clipPath id="bz"><rect width="120.999" height="354.505" fill="none"/></clipPath><clipPath id="ca"><rect width="208.033" height="197.419" fill="none"/></clipPath></defs><g transform="translate(124.51 127.054)"><path d="M12.121,540s51.515,87.273,181.818,111.515S378.788,669.7,478.788,615.151s466.667-230.3,466.667-230.3-372.727,130.3,103.03-69.7S1690.909,63.636,1690.909,63.636l224.242-69.7H0V540Z" fill="#0048b3" stroke="#707070" stroke-width="1" opacity="0.02"/><ellipse cx="194" cy="191" rx="194" ry="191" transform="translate(1543 554)" fill="#e7ff0a" opacity="0.09"/><ellipse cx="163" cy="161" rx="163" ry="161" transform="translate(1574 584)" fill="#faffc9"/><circle cx="22.5" cy="22.5" r="22.5" transform="translate(39 267)" fill="#fff"/><g transform="translate(1764.99 245.336) rotate(-50)" fill="#06c50c" stroke="#707070" stroke-width="1" opacity="0.07"><ellipse cx="140" cy="84.5" rx="140" ry="84.5" stroke="none"/><ellipse cx="140" cy="84.5" rx="139.5" ry="84" fill="none"/></g><path d="M1135.69,131.33a11,11,0,1,1,0-15.56,11,11,0,0,1,0,15.56" transform="translate(636.79 -53.17)" fill="#091e42"/><g transform="translate(799.79 329.83)" clip-path="url(#a)"><g clip-path="url(#b)"><g clip-path="url(#c)"><g clip-path="url(#b)"><rect width="107.81" height="99.89" transform="translate(998.116 104.149) rotate(-45)" fill="#0065ff"/></g></g></g></g><g transform="translate(799.79 329.83)" clip-path="url(#e)"><g clip-path="url(#f)"><g clip-path="url(#g)"><g clip-path="url(#b)"><rect width="91.62" height="46.07" transform="translate(1043.803 169.992) rotate(-45)" fill="#fff"/></g></g></g></g><g transform="translate(799.79 329.83)" clip-path="url(#e)"><g clip-path="url(#j)"><g clip-path="url(#b)"><line x1="83.22" y2="32.21" transform="translate(1050.87 137.79)" fill="none" stroke="#b3f5ff" stroke-miterlimit="10" stroke-width="1.664"/></g></g></g><g transform="translate(799.79 329.83)" clip-path="url(#e)"><g clip-path="url(#m)"><g clip-path="url(#n)"><g clip-path="url(#b)"><rect width="91.62" height="46.07" transform="translate(1037.093 152.71) rotate(-45)" fill="#fff"/></g></g></g></g><g transform="translate(799.79 329.83)" clip-path="url(#e)"><g clip-path="url(#q)"><g clip-path="url(#b)"><line x1="83.23" y2="32.21" transform="translate(1044.16 120.5)" fill="none" stroke="#b3f5ff" stroke-miterlimit="10" stroke-width="1.664"/></g></g></g><g transform="translate(799.79 329.83)" clip-path="url(#e)"><g clip-path="url(#t)"><g clip-path="url(#u)"><g clip-path="url(#b)"><rect width="91.62" height="46.07" transform="translate(1030.049 134.523) rotate(-45)" fill="#fff"/></g></g></g></g><g transform="translate(799.79 329.83)" clip-path="url(#e)"><g clip-path="url(#x)"><g clip-path="url(#b)"><line x1="83.22" y2="32.21" transform="translate(1037.12 102.33)" fill="none" stroke="#b3f5ff" stroke-miterlimit="10" stroke-width="1.664"/></g></g></g><g transform="translate(799.79 329.83)" clip-path="url(#e)"><g clip-path="url(#aa)"><g clip-path="url(#ab)"><g clip-path="url(#b)"><rect width="91.62" height="46.07" transform="translate(1023.353 117.242) rotate(-45)" fill="#fff"/></g></g></g></g><g transform="translate(799.79 329.83)" clip-path="url(#e)"><g clip-path="url(#ae)"><g clip-path="url(#b)"><line x1="83.22" y2="32.21" transform="translate(1030.42 85.04)" fill="none" stroke="#b3f5ff" stroke-miterlimit="10" stroke-width="1.664"/></g></g></g><g transform="translate(-298.21 456.83)" clip-path="url(#e)"><g clip-path="url(#ah)"><g clip-path="url(#ai)"><g clip-path="url(#b)"><rect width="71.66" height="150.3" transform="translate(968.044 81.92) rotate(-45)" fill="#fff"/></g></g></g></g><g transform="translate(799.79 329.83)" clip-path="url(#e)"><g clip-path="url(#al)"><g clip-path="url(#am)"><g clip-path="url(#b)"><rect width="71.66" height="150.3" transform="translate(984.389 75.593) rotate(-45)" fill="#fff"/></g></g></g></g><g transform="translate(225.79 100.83)" clip-path="url(#ao)"><g transform="translate(1053.492 -36.243)"><g clip-path="url(#ap)"><g transform="translate(-30.66 89.424)" clip-path="url(#aq)"><line x1="142.082" y1="364.876" transform="translate(31.043 -57.64)" fill="none" stroke="#b3f5ff" stroke-miterlimit="10" stroke-width="1.664"/></g></g></g></g><g transform="translate(799.79 329.83)" clip-path="url(#e)"><g clip-path="url(#as)"><g clip-path="url(#at)"><g clip-path="url(#b)"><rect width="71.66" height="150.3" transform="translate(1001.633 68.912) rotate(-45)" fill="#fff"/></g></g></g></g><g transform="translate(799.79 329.83)" clip-path="url(#e)"><g clip-path="url(#aw)"><g clip-path="url(#b)"><line x1="55.6" y1="142.81" transform="translate(1052.31 25.32)" fill="none" stroke="#b3f5ff" stroke-miterlimit="10" stroke-width="1.664"/></g></g></g><g transform="translate(799.79 329.83)" clip-path="url(#e)"><g clip-path="url(#az)"><g clip-path="url(#ba)"><g clip-path="url(#b)"><rect width="71.66" height="150.3" transform="translate(1017.988 62.584) rotate(-45)" fill="#fff"/></g></g></g></g><g transform="translate(799.79 329.83)" clip-path="url(#e)"><g clip-path="url(#bd)"><g clip-path="url(#b)"><line x1="55.6" y1="142.81" transform="translate(1068.66 18.99)" fill="none" stroke="#b3f5ff" stroke-miterlimit="10" stroke-width="1.664"/></g></g></g><g transform="translate(799.79 329.83)" clip-path="url(#e)"><g clip-path="url(#bg)"><g clip-path="url(#bh)"><g clip-path="url(#b)"><rect width="91.62" height="46.07" transform="translate(1016.067 99.256) rotate(-45)" fill="#fff"/></g></g></g></g><g transform="translate(799.79 329.83)" clip-path="url(#e)"><g clip-path="url(#bk)"><g clip-path="url(#b)"><line x1="83.22" y2="32.21" transform="translate(1023.13 67.05)" fill="none" stroke="#b3f5ff" stroke-miterlimit="10" stroke-width="1.664"/></g></g></g><g transform="translate(799.79 329.83)" clip-path="url(#e)"><g clip-path="url(#bn)"><g clip-path="url(#bo)"><g clip-path="url(#b)"><rect width="91.62" height="46.07" transform="translate(1009.363 81.968) rotate(-45)" fill="#fff"/></g></g></g></g><g transform="translate(799.79 329.83)" clip-path="url(#e)"><g clip-path="url(#br)"><g clip-path="url(#b)"><line x1="83.22" y2="32.21" transform="translate(1016.43 49.76)" fill="none" stroke="#b3f5ff" stroke-miterlimit="10" stroke-width="1.664"/></g></g></g><g transform="translate(-1360 -316)"><g transform="translate(1339.831 900.365)"><path d="M1318.253,248.989a60.467,60.467,0,1,1-85.782,0,60.466,60.466,0,0,1,85.782,0m30.918-30.919a104.366,104.366,0,1,0,0,147.66,104.366,104.366,0,0,0,0-147.66" transform="translate(-1171.041 -187.535)" fill="#abf5d1" opacity="0.43"/></g></g><g transform="translate(263.79 -83.17)"><path d="M1388.712,278.4a89.407,89.407,0,1,1-126.839,0,89.407,89.407,0,0,1,126.839,0m45.717-45.717a154.317,154.317,0,1,0,0,218.333,154.317,154.317,0,0,0,0-218.333" transform="translate(0 0)" fill="#abf5d1"/></g><path d="M1279.651,168.146,1266.31.17l150.749,75.293Z" transform="translate(93.521 406.752)" fill="#ffc400"/><path d="M1278.41,265.3a26.75,26.75,0,1,1-26.75-26.75,26.75,26.75,0,0,1,26.75,26.75" transform="translate(348.79 13.83)" fill="#ffc400"/><g transform="translate(-546.498 -1000.498)"><g transform="translate(421.988 873.443)" clip-path="url(#bt)"><rect width="411.076" height="411.076" transform="translate(-90.013 113.468) rotate(-29.887)" fill="#79f2c0"/></g><circle cx="106.055" cy="106.055" r="106.055" transform="translate(461.524 1020.266) rotate(-30)" fill="none" stroke="#fff" stroke-miterlimit="10" stroke-width="2"/><circle cx="33.426" cy="33.426" r="33.426" transform="translate(560.719 1049.597) rotate(-30)" fill="none" stroke="#fff" stroke-miterlimit="10" stroke-width="2"/></g><g transform="translate(-206.21 225.83)" clip-path="url(#bu)"><rect width="78.156" height="78.156" transform="translate(258.121 86.136) rotate(-30)" fill="#ffc400"/></g><g transform="translate(138.568 117.696)" clip-path="url(#bv)"><rect width="233.304" height="58.326" transform="translate(45.498 278.606) rotate(-26)" fill="#ffc400"/></g><g transform="translate(376.197 375.631)"><path d="M219.159,19.66a76.779,76.779,0,0,1,.751,109.026,77.645,77.645,0,0,1-109.451,0" transform="translate(-284.866 -155.504)" fill="none" stroke="#091e42" stroke-linecap="round" stroke-miterlimit="10" stroke-width="2.096"/><path d="M117,115.658a63.71,63.71,0,0,0,90.419-.7,64.51,64.51,0,0,0,0-90.926" transform="translate(-280.722 -152.735)" fill="none" stroke="#091e42" stroke-linecap="round" stroke-miterlimit="10" stroke-width="2.096"/><path d="M194.561,29.95a51.965,51.965,0,0,1,0,73.185,51.148,51.148,0,0,1-72.711.6" transform="translate(-277.649 -148.985)" fill="none" stroke="#091e42" stroke-linecap="round" stroke-miterlimit="10" stroke-width="2.096"/></g><g transform="translate(348.79 -48.17)" clip-path="url(#bw)"><rect width="88.27" height="96.546" transform="matrix(0.927, -0.375, 0.375, 0.927, -30.666, 155.952)" fill="#091e42"/></g><g transform="translate(0.79 143.83)" clip-path="url(#bx)"><rect width="51" height="51" transform="translate(241.91 136.55)" fill="#0065ff"/></g><g transform="translate(1296.98 28.09) rotate(-50)" fill="#e60707" stroke="#707070" stroke-width="1" opacity="0.26"><ellipse cx="70" cy="40.5" rx="70" ry="40.5" stroke="none"/><ellipse cx="70" cy="40.5" rx="69.5" ry="40" fill="none"/></g><g transform="translate(666.248 572.797) rotate(-14)" clip-path="url(#by)" style="isolation:isolate"><g transform="translate(1012.24 -5.876)"><g clip-path="url(#bz)"><g transform="translate(10.614 59.438)" clip-path="url(#ca)"><line x1="118.048" y1="303.155" transform="translate(-8.916 -34.453)" fill="none" stroke="#4b939e" stroke-miterlimit="10" stroke-width="1.664"/></g></g></g></g></g></svg>