<svg xmlns="http://www.w3.org/2000/svg" xmlns:xlink="http://www.w3.org/1999/xlink" width="1322" height="260" viewBox="0 0 1322 260"><defs><clipPath id="a"><polygon points="1053.9 55.43 1022.96 93.66 1040.61 139.57 1089.19 147.27 1120.12 109.05 1102.48 63.13 1053.9 55.43" style="fill:none;clip-rule:evenodd"/></clipPath><clipPath id="b"><rect x="1022.91" y="54.55" width="98" height="93" style="fill:none"/></clipPath><clipPath id="c"><polygon points="1102.48 63.13 1120.12 109.05 1089.19 147.27 1040.61 139.57 1022.96 93.66 1053.9 55.43 1102.48 63.13" style="fill:none"/></clipPath><clipPath id="e"><polyline points="1053.9 55.43 1022.96 93.66 1040.61 139.57 1089.19 147.27 1120.12 109.05 1102.48 63.13" style="fill:none;clip-rule:evenodd"/></clipPath><clipPath id="f"><rect x="1049.91" y="137.55" width="85" height="33" style="fill:none"/></clipPath><clipPath id="g"><line x1="1134.09" y1="137.79" x2="1050.87" y2="170" style="fill:none"/></clipPath><clipPath id="j"><rect x="1049.91" y="125.55" width="85" height="57" style="fill:none"/></clipPath><clipPath id="m"><rect x="1043.91" y="119.55" width="84" height="34" style="fill:none"/></clipPath><clipPath id="n"><line x1="1127.39" y1="120.5" x2="1044.16" y2="152.71" style="fill:none"/></clipPath><clipPath id="q"><rect x="1043.91" y="108.55" width="84" height="56" style="fill:none"/></clipPath><clipPath id="t"><rect x="1036.91" y="101.55" width="84" height="33" style="fill:none"/></clipPath><clipPath id="u"><line x1="1120.34" y1="102.33" x2="1037.12" y2="134.54" style="fill:none"/></clipPath><clipPath id="x"><rect x="1036.91" y="90.55" width="84" height="56" style="fill:none"/></clipPath><clipPath id="aa"><rect x="1029.91" y="84.55" width="84" height="33" style="fill:none"/></clipPath><clipPath id="ab"><line x1="1113.64" y1="85.04" x2="1030.42" y2="117.25" style="fill:none"/></clipPath><clipPath id="ae"><rect x="1029.91" y="72.55" width="84" height="57" style="fill:none"/></clipPath><clipPath id="ah"><rect x="1017.91" y="37.55" width="57" height="144" style="fill:none"/></clipPath><clipPath id="ai"><line x1="1074.32" y1="181.13" x2="1018.71" y2="38.32" style="fill:none"/></clipPath><clipPath id="al"><rect x="1017.91" y="26.55" width="57" height="167" style="fill:none"/></clipPath><clipPath id="ao"><rect x="1034.91" y="31.55" width="56" height="144" style="fill:none"/></clipPath><clipPath id="ap"><line x1="1090.67" y1="174.8" x2="1035.06" y2="31.99" style="fill:none"/></clipPath><clipPath id="as"><rect x="1034.91" y="19.55" width="56" height="168" style="fill:none"/></clipPath><clipPath id="av"><rect x="1051.91" y="24.55" width="56" height="144" style="fill:none"/></clipPath><clipPath id="aw"><line x1="1107.91" y1="168.13" x2="1052.31" y2="25.32" style="fill:none"/></clipPath><clipPath id="az"><rect x="1051.91" y="13.55" width="56" height="167" style="fill:none"/></clipPath><clipPath id="bc"><rect x="1067.91" y="18.55" width="57" height="144" style="fill:none"/></clipPath><clipPath id="bd"><line x1="1124.26" y1="161.8" x2="1068.66" y2="18.99" style="fill:none"/></clipPath><clipPath id="bg"><rect x="1067.91" y="6.55" width="57" height="168" style="fill:none"/></clipPath><clipPath id="bj"><rect x="1022.91" y="66.55" width="84" height="33" style="fill:none"/></clipPath><clipPath id="bk"><line x1="1106.35" y1="67.05" x2="1023.13" y2="99.26" style="fill:none"/></clipPath><clipPath id="bn"><rect x="1022.91" y="54.55" width="84" height="57" style="fill:none"/></clipPath><clipPath id="bq"><rect x="1015.91" y="49.55" width="84" height="33" style="fill:none"/></clipPath><clipPath id="br"><line x1="1099.65" y1="49.76" x2="1016.43" y2="81.97" style="fill:none"/></clipPath><clipPath id="bu"><rect x="1015.91" y="37.55" width="84" height="57" style="fill:none"/></clipPath><clipPath id="bw"><path d="M327.6,253.18a49.6,49.6,0,1,1,18.16-67.76,49.6,49.6,0,0,1-18.16,67.76" style="fill:none"/></clipPath><clipPath id="bx"><path d="M289.16,87.75a7.22,7.22,0,1,1,9.66,3.32,7.22,7.22,0,0,1-9.66-3.32" style="fill:none"/></clipPath><clipPath id="by"><rect x="61.91" y="210.55" width="78" height="12" transform="translate(-84.72 66.15) rotate(-26)" style="fill:none"/></clipPath><clipPath id="bz"><polyline points="25.29 164.02 0.21 160.68 15.92 140.84" style="fill:none"/></clipPath><clipPath id="ca"><path d="M253.95,146.59a20.5,20.5,0,1,1-2,28.92,20.5,20.5,0,0,1,2-28.92" style="fill:none"/></clipPath></defs><title>resources</title><path d="M1135.69,131.33a11,11,0,1,1,0-15.56,11,11,0,0,1,0,15.56" style="fill:#091e42"/><g style="clip-path:url(#a)"><g style="isolation:isolate"><g style="clip-path:url(#b)"><g style="clip-path:url(#c)"><g style="clip-path:url(#b)"><rect x="1017.64" y="51.41" width="107.81" height="99.89" transform="translate(242.18 787.38) rotate(-45)" style="fill:#0065ff"/></g></g></g></g></g><g style="clip-path:url(#e)"><g style="isolation:isolate"><g style="clip-path:url(#f)"><g style="clip-path:url(#g)"><g style="clip-path:url(#b)"><rect x="1046.67" y="130.86" width="91.62" height="46.07" transform="translate(211.16 817.57) rotate(-45)" style="fill:#fff"/></g></g></g></g></g><g style="clip-path:url(#e)"><g style="isolation:isolate"><g style="clip-path:url(#j)"><g style="clip-path:url(#b)"><line x1="1134.09" y1="137.79" x2="1050.87" y2="170" style="fill:none;stroke:#b3f5ff;stroke-miterlimit:10;stroke-width:1.6640000343322754px"/></g></g></g></g><g style="clip-path:url(#e)"><g style="isolation:isolate"><g style="clip-path:url(#m)"><g style="clip-path:url(#n)"><g style="clip-path:url(#b)"><rect x="1039.96" y="113.57" width="91.62" height="46.07" transform="translate(221.42 807.77) rotate(-45)" style="fill:#fff"/></g></g></g></g></g><g style="clip-path:url(#e)"><g style="isolation:isolate"><g style="clip-path:url(#q)"><g style="clip-path:url(#b)"><line x1="1127.39" y1="120.5" x2="1044.16" y2="152.71" style="fill:none;stroke:#b3f5ff;stroke-miterlimit:10;stroke-width:1.6640000343322754px"/></g></g></g></g><g style="clip-path:url(#e)"><g style="isolation:isolate"><g style="clip-path:url(#t)"><g style="clip-path:url(#u)"><g style="clip-path:url(#b)"><rect x="1032.92" y="95.39" width="91.62" height="46.07" transform="translate(232.21 797.46) rotate(-45)" style="fill:#fff"/></g></g></g></g></g><g style="clip-path:url(#e)"><g style="isolation:isolate"><g style="clip-path:url(#x)"><g style="clip-path:url(#b)"><line x1="1120.34" y1="102.33" x2="1037.12" y2="134.54" style="fill:none;stroke:#b3f5ff;stroke-miterlimit:10;stroke-width:1.6640000343322754px"/></g></g></g></g><g style="clip-path:url(#e)"><g style="isolation:isolate"><g style="clip-path:url(#aa)"><g style="clip-path:url(#ab)"><g style="clip-path:url(#b)"><rect x="1026.22" y="78.11" width="91.62" height="46.07" transform="translate(242.47 787.66) rotate(-45)" style="fill:#fff"/></g></g></g></g></g><g style="clip-path:url(#e)"><g style="isolation:isolate"><g style="clip-path:url(#ae)"><g style="clip-path:url(#b)"><line x1="1113.64" y1="85.04" x2="1030.42" y2="117.25" style="fill:none;stroke:#b3f5ff;stroke-miterlimit:10;stroke-width:1.6640000343322754px"/></g></g></g></g><g style="clip-path:url(#e)"><g style="isolation:isolate"><g style="clip-path:url(#ah)"><g style="clip-path:url(#ai)"><g style="clip-path:url(#b)"><rect x="1010.68" y="34.58" width="71.66" height="150.3" transform="translate(228.93 772.13) rotate(-45)" style="fill:#fff"/></g></g></g></g></g><g style="clip-path:url(#e)"><g style="isolation:isolate"><g style="clip-path:url(#al)"><g style="clip-path:url(#b)"><line x1="1074.32" y1="181.13" x2="1018.71" y2="38.32" style="fill:none;stroke:#b3f5ff;stroke-miterlimit:10;stroke-width:1.6640000343322754px"/></g></g></g></g><g style="clip-path:url(#e)"><g style="isolation:isolate"><g style="clip-path:url(#ao)"><g style="clip-path:url(#ap)"><g style="clip-path:url(#b)"><rect x="1027.03" y="28.25" width="71.66" height="150.3" transform="translate(238.19 781.84) rotate(-45)" style="fill:#fff"/></g></g></g></g></g><g style="clip-path:url(#e)"><g style="isolation:isolate"><g style="clip-path:url(#as)"><g style="clip-path:url(#b)"><line x1="1090.67" y1="174.8" x2="1035.06" y2="31.99" style="fill:none;stroke:#b3f5ff;stroke-miterlimit:10;stroke-width:1.6640000343322754px"/></g></g></g></g><g style="clip-path:url(#e)"><g style="isolation:isolate"><g style="clip-path:url(#av)"><g style="clip-path:url(#aw)"><g style="clip-path:url(#b)"><rect x="1044.28" y="21.57" width="71.66" height="150.3" transform="translate(247.96 792.08) rotate(-45)" style="fill:#fff"/></g></g></g></g></g><g style="clip-path:url(#e)"><g style="isolation:isolate"><g style="clip-path:url(#az)"><g style="clip-path:url(#b)"><line x1="1107.91" y1="168.13" x2="1052.31" y2="25.32" style="fill:none;stroke:#b3f5ff;stroke-miterlimit:10;stroke-width:1.6640000343322754px"/></g></g></g></g><g style="clip-path:url(#e)"><g style="isolation:isolate"><g style="clip-path:url(#bc)"><g style="clip-path:url(#bd)"><g style="clip-path:url(#b)"><rect x="1060.63" y="15.24" width="71.66" height="150.3" transform="translate(257.23 801.79) rotate(-45)" style="fill:#fff"/></g></g></g></g></g><g style="clip-path:url(#e)"><g style="isolation:isolate"><g style="clip-path:url(#bg)"><g style="clip-path:url(#b)"><line x1="1124.26" y1="161.8" x2="1068.66" y2="18.99" style="fill:none;stroke:#b3f5ff;stroke-miterlimit:10;stroke-width:1.6640000343322754px"/></g></g></g></g><g style="clip-path:url(#e)"><g style="isolation:isolate"><g style="clip-path:url(#bj)"><g style="clip-path:url(#bk)"><g style="clip-path:url(#b)"><rect x="1018.93" y="60.12" width="91.62" height="46.07" transform="translate(253.06 777.24) rotate(-45)" style="fill:#fff"/></g></g></g></g></g><g style="clip-path:url(#e)"><g style="isolation:isolate"><g style="clip-path:url(#bn)"><g style="clip-path:url(#b)"><line x1="1106.35" y1="67.05" x2="1023.13" y2="99.26" style="fill:none;stroke:#b3f5ff;stroke-miterlimit:10;stroke-width:1.6640000343322754px"/></g></g></g></g><g style="clip-path:url(#e)"><g style="isolation:isolate"><g style="clip-path:url(#bq)"><g style="clip-path:url(#br)"><g style="clip-path:url(#b)"><rect x="1012.23" y="42.83" width="91.62" height="46.07" transform="translate(263.32 767.44) rotate(-45)" style="fill:#fff"/></g></g></g></g></g><g style="clip-path:url(#e)"><g style="isolation:isolate"><g style="clip-path:url(#bu)"><g style="clip-path:url(#b)"><line x1="1099.65" y1="49.76" x2="1016.43" y2="81.97" style="fill:none;stroke:#b3f5ff;stroke-miterlimit:10;stroke-width:1.6640000343322754px"/></g></g></g></g><g style="isolation:isolate"><path d="M1207.56,202.78a15,15,0,1,1-21.28,0,15.07,15.07,0,0,1,21.28,0m7.67-7.67a25.89,25.89,0,1,0,0,36.63,25.9,25.9,0,0,0,0-36.63" style="fill:#abf5d1"/></g><polygon points="1271.22 61.99 1266.31 0.17 1321.79 27.88 1271.22 61.99" style="fill:#ffc400"/><path d="M1236.91,244.55a6,6,0,1,1-6-6,6,6,0,0,1,6,6" style="fill:#ffc400"/><g style="clip-path:url(#bw)"><rect x="248.2" y="155.62" width="109.2" height="109.2" transform="matrix(0.87, -0.5, 0.5, 0.87, -64.54, 179.57)" style="fill:#79f2c0"/></g><circle cx="302.35" cy="210.1" r="28.27" transform="translate(-64.54 179.32) rotate(-30)" style="fill:none;stroke:#fff;stroke-miterlimit:10;stroke-width:2px"/><circle cx="302.35" cy="210.83" r="8.91" transform="translate(-64.91 179.42) rotate(-30)" style="fill:none;stroke:#fff;stroke-miterlimit:10;stroke-width:2px"/><g style="clip-path:url(#bx)"><rect x="283.42" y="72.36" width="24.44" height="24.44" transform="translate(-2.68 159.15) rotate(-30)" style="fill:#ffc400"/></g><g style="clip-path:url(#by)"><rect x="56.91" y="205.55" width="88" height="22" transform="translate(-84.72 66.15) rotate(-26)" style="fill:#ffc400"/></g><path d="M177,19.66a47,47,0,0,1,.46,66.74,47.53,47.53,0,0,1-67,0" style="fill:none;stroke:#091e42;stroke-linecap:round;stroke-miterlimit:10;stroke-width:2.0959999561309814px"/><path d="M117,80.12a39,39,0,0,0,55.35-.43,39.49,39.49,0,0,0,0-55.66" style="fill:none;stroke:#091e42;stroke-linecap:round;stroke-miterlimit:10;stroke-width:2.0959999561309814px"/><path d="M166.36,29.95a31.81,31.81,0,0,1,0,44.8,31.31,31.31,0,0,1-44.51.37" style="fill:none;stroke:#091e42;stroke-linecap:round;stroke-miterlimit:10;stroke-width:2.0959999561309814px"/><g style="clip-path:url(#bz)"><rect x="-5.59" y="139.05" width="32" height="35" transform="translate(-57.89 15.3) rotate(-22)" style="fill:#091e42"/></g><g style="clip-path:url(#ca)"><rect x="241.91" y="136.55" width="51" height="51" style="fill:#0065ff"/></g></svg>
