<svg xmlns="http://www.w3.org/2000/svg" xmlns:xlink="http://www.w3.org/1999/xlink" viewBox="0 0 1920 1080"><defs><style>.a{clip-path:url(#d);}.b{fill:#129cf3;}.b,.c,.d,.e,.g{stroke:#707070;}.b,.c,.d{opacity:0.54;}.c{fill:#f34012;}.d{fill:#f31212;}.e{fill:#e4081e;opacity:0.32;}.f{fill:rgba(255,255,255,0.7);}.g{fill:#fff;}.h{stroke:none;}.i{fill:none;}.j{fill:rgba(255,255,255,0);}.k{filter:url(#a);}</style><filter id="a" x="557" y="72" width="282" height="282" filterUnits="userSpaceOnUse"><feOffset dy="3" input="SourceAlpha"/><feGaussianBlur stdDeviation="3" result="b"/><feFlood flood-color="#e82525" flood-opacity="0.161"/><feComposite operator="in" in2="b"/><feComposite in="SourceGraphic"/></filter><clipPath id="d"><rect width="1920" height="1080"/></clipPath></defs><g id="c" class="a"><rect class="j" width="1920" height="1080"/><g class="b" transform="translate(-58 -50)"><circle class="h" cx="136" cy="136" r="136"/><circle class="i" cx="136" cy="136" r="135.5"/></g><g class="b" transform="translate(214 128)"><circle class="h" cx="94" cy="94" r="94"/><circle class="i" cx="94" cy="94" r="93.5"/></g><g class="c" transform="translate(1356 19)"><circle class="h" cx="67" cy="67" r="67"/><circle class="i" cx="67" cy="67" r="66.5"/></g><g class="b" transform="translate(402 274)"><circle class="h" cx="42" cy="42" r="42"/><circle class="i" cx="42" cy="42" r="41.5"/></g><g class="d" transform="translate(1837 19)"><circle class="h" cx="33.5" cy="33.5" r="33.5"/><circle class="i" cx="33.5" cy="33.5" r="33"/></g><path class="e" d="M2170-88,1994,124l528,344Z" transform="translate(-504 6)"/><path class="e" d="M2170-88,1994,124l528,344Z" transform="matrix(-0.07, 0.998, -0.998, -0.07, 325.047, -1734.246)"/><g class="k" transform="matrix(1, 0, 0, 1, 0, 0)"><circle class="f" cx="132" cy="132" r="132" transform="translate(566 78)"/></g><g class="g" transform="translate(634 145)"><ellipse class="h" cx="64" cy="65" rx="64" ry="65"/><ellipse class="i" cx="64" cy="65" rx="63.5" ry="64.5"/></g><g class="g" transform="translate(649 161)"><circle class="h" cx="49" cy="49" r="49"/><circle class="i" cx="49" cy="49" r="48.5"/></g></g></svg>