<?xml version="1.0" encoding="UTF-8"?>
<svg viewBox="0 0 400 400" xmlns="http://www.w3.org/2000/svg" xmlns:xlink="http://www.w3.org/1999/xlink">
 <defs>
  <filter id="k">
   <feGaussianBlur stdDeviation=".59363"/>
  </filter>
  <filter id="e">
   <feGaussianBlur stdDeviation="1.025"/>
  </filter>
  <filter id="d">
   <feGaussianBlur stdDeviation="2.5625"/>
  </filter>
  <filter id="a">
   <feGaussianBlur stdDeviation=".53036"/>
  </filter>
  <filter id="j">
   <feGaussianBlur stdDeviation=".36095"/>
  </filter>
  <linearGradient id="b">
   <stop stop-color="#fff" offset="0"/>
   <stop stop-color="#fff" stop-opacity="0" offset="1"/>
  </linearGradient>
  <linearGradient id="i" x1="275.61" x2="342" y1="300.86" y2="391.45" gradientUnits="userSpaceOnUse">
   <stop offset="0"/>
   <stop stop-color="#999" offset="1"/>
  </linearGradient>
  <linearGradient id="c" x1="241.41" x2="315.47" y1="287.49" y2="367.88" gradientUnits="userSpaceOnUse" xlink:href="#b"/>
  <linearGradient id="g" x1="1404.9" x2="1426.3" y1="88.254" y2="113.14" gradientUnits="userSpaceOnUse" xlink:href="#b"/>
  <linearGradient id="h" x1="1588.6" x2="1596.4" y1="130.83" y2="139.94" gradientUnits="userSpaceOnUse" xlink:href="#b"/>
  <radialGradient id="f" cx="312.78" cy="386.57" r="53.036" gradientTransform="matrix(-.59327 -.59327 .71505 -.71505 243.27 849.03)" gradientUnits="userSpaceOnUse">
   <stop stop-color="#fff" stop-opacity=".40816" offset="0"/>
   <stop stop-color="#fff" stop-opacity="0" offset="1"/>
  </radialGradient>
 </defs>
 <g transform="matrix(2.3082 0 0 2.3082 -3132.5 -94.183)">
  <path d="m1415.2 45.125-4.4376 16.656-12.219-12.219-13 7.5 4.5 16.688-16.688-4.4688-7.5 12.969 12.406 12.344-16.875 4.3438v15l17.031 4.3438-12.562 12.312 7.5 12.969 16.938-4.7812-4.75 17 13 7.5 12.281-12.594 4.375 17.062h15l4.3437-17.062 12.312 12.594 13-7.5-4.75-16.938 16.938 4.7188 7.5-12.969-12.438-12.125 16.906-4.5312v-15l-16.719-4.4375 12.25-12.25-7.5-12.969-16.656 4.5 4.4688-16.719-13-7.5-12.188 12.25-4.4687-16.688h-15z" fill="#e6e6e6"/>
  <path transform="matrix(1.039 0 0 1.039 246.31 -26.674)" d="m1183.5 128.11c0 28.305-22.945 51.25-51.25 51.25s-51.25-22.945-51.25-51.25 22.945-51.25 51.25-51.25 51.25 22.945 51.25 51.25z" fill="#ccc"/>
  <path d="m1415.5 47.074-4.2965 16.127-11.83-11.83-12.586 7.2615 4.3568 16.157-16.157-4.3266-7.2614 12.556 12.012 11.951-16.338 4.2056v14.523l16.49 4.2056-12.163 11.921 7.2614 12.556 16.399-4.6292-4.5989 16.459 12.586 7.2615 11.891-12.193 4.2358 16.52h14.523l4.2056-16.52 11.921 12.193 12.586-7.2615-4.599-16.399 16.399 4.5687 7.2614-12.556-12.042-11.739 16.369-4.3872v-14.523l-16.187-4.2964 11.86-11.86-7.2614-12.556-16.127 4.3569 4.3267-16.187-12.586-7.2615-11.8 11.86-4.3266-16.157h-14.523z" fill="#ececec" filter="url(#k)"/>
  <path transform="matrix(1.0195 0 0 1.0195 268.4 -24.175)" d="m1183.5 128.11c0 28.305-22.945 51.25-51.25 51.25s-51.25-22.945-51.25-51.25 22.945-51.25 51.25-51.25 51.25 22.945 51.25 51.25z" fill="#ececec"/>
  <path transform="matrix(.84133 0 0 .84133 470.14 -1.3477)" d="m1183.5 128.11c0 28.305-22.945 51.25-51.25 51.25s-51.25-22.945-51.25-51.25 22.945-51.25 51.25-51.25 51.25 22.945 51.25 51.25z" fill="#b3b3b3" filter="url(#e)"/>
  <path transform="matrix(.75112 0 0 .75112 572.29 10.21)" d="m1183.5 128.11c0 28.305-22.945 51.25-51.25 51.25s-51.25-22.945-51.25-51.25 22.945-51.25 51.25-51.25 51.25 22.945 51.25 51.25z" fill="#e6e6e6" filter="url(#d)"/>
  <path transform="matrix(.53478 0 0 .53478 817.24 37.925)" d="m1183.5 128.11c0 28.305-22.945 51.25-51.25 51.25s-51.25-22.945-51.25-51.25 22.945-51.25 51.25-51.25 51.25 22.945 51.25 51.25z" fill="#ccc"/>
  <path transform="matrix(.48621 0 0 .48621 1275.1 -61.846)" d="m356.79 346.11c0 29.291-23.745 53.036-53.036 53.036s-53.036-23.745-53.036-53.036 23.745-53.036 53.036-53.036 53.036 23.745 53.036 53.036z" fill="#999"/>
  <path transform="matrix(.47925 0 0 .47925 1277.2 -59.436)" d="m356.79 346.11c0 29.291-23.745 53.036-53.036 53.036s-53.036-23.745-53.036-53.036 23.745-53.036 53.036-53.036 53.036 23.745 53.036 53.036z" fill="url(#c)"/>
  <path transform="matrix(.43627 0 0 .43627 1290.2 -44.562)" d="m356.79 346.11c0 29.291-23.745 53.036-53.036 53.036s-53.036-23.745-53.036-53.036 23.745-53.036 53.036-53.036 53.036 23.745 53.036 53.036z" fill="#ececec" filter="url(#a)"/>
  <path transform="matrix(.41871 0 0 .41871 1295.6 -38.483)" d="m356.79 346.11c0 29.291-23.745 53.036-53.036 53.036s-53.036-23.745-53.036-53.036 23.745-53.036 53.036-53.036 53.036 23.745 53.036 53.036z" fill="#999" filter="url(#a)"/>
  <path transform="matrix(.40247 0 0 .40247 1300.5 -32.863)" d="m356.79 346.11c0 29.291-23.745 53.036-53.036 53.036s-53.036-23.745-53.036-53.036 23.745-53.036 53.036-53.036 53.036 23.745 53.036 53.036z" fill="url(#i)"/>
  <path transform="matrix(.37869 0 0 .37869 1308.3 -23.623)" d="m356.79 346.11c0 29.291-23.745 53.036-53.036 53.036s-53.036-23.745-53.036-53.036 23.745-53.036 53.036-53.036 53.036 23.745 53.036 53.036z" fill="url(#f)"/>
  <path d="m1422.2 86.371c-6.6576 0.15017-13.078 3.6748-16.649 9.8595-3.8407 6.6523-3.3531 14.616 0.5766 20.642 0.426-13.251 10.554-23.231 23.135-22.501 4.1247 0.23926 8.0179 1.5982 11.416 3.791-1.627-3.7206-4.4035-6.9685-8.1874-9.1532-3.2397-1.8704-6.8046-2.7165-10.292-2.6378z" fill="url(#g)" opacity=".31771"/>
  <g fill="#4d4d4d" filter="url(#j)">
   <path transform="matrix(.2579 0 0 .2579 1092.6 120.65)" d="m1288.2 76.737c0 4.4873-3.6377 8.125-8.125 8.125s-8.125-3.6377-8.125-8.125 3.6377-8.125 8.125-8.125 8.125 3.6377 8.125 8.125z"/>
   <path transform="matrix(.2579 0 0 .2579 1092.6 52.647)" d="m1288.2 76.737c0 4.4873-3.6377 8.125-8.125 8.125s-8.125-3.6377-8.125-8.125 3.6377-8.125 8.125-8.125 8.125 3.6377 8.125 8.125z"/>
   <path transform="matrix(.2579 0 0 .2579 1126.6 86.647)" d="m1288.2 76.737c0 4.4873-3.6377 8.125-8.125 8.125s-8.125-3.6377-8.125-8.125 3.6377-8.125 8.125-8.125 8.125 3.6377 8.125 8.125z"/>
   <path transform="matrix(.2579 0 0 .2579 1058.6 86.647)" d="m1288.2 76.737c0 4.4873-3.6377 8.125-8.125 8.125s-8.125-3.6377-8.125-8.125 3.6377-8.125 8.125-8.125 8.125 3.6377 8.125 8.125z"/>
   <path transform="matrix(.18236 .18236 -.18236 .18236 1179.2 -116.96)" d="m1288.2 76.737c0 4.4873-3.6377 8.125-8.125 8.125s-8.125-3.6377-8.125-8.125 3.6377-8.125 8.125-8.125 8.125 3.6377 8.125 8.125z"/>
   <path transform="matrix(.18236 .18236 -.18236 .18236 1227.3 -165.05)" d="m1288.2 76.737c0 4.4873-3.6377 8.125-8.125 8.125s-8.125-3.6377-8.125-8.125 3.6377-8.125 8.125-8.125 8.125 3.6377 8.125 8.125z"/>
   <path transform="matrix(.18236 .18236 -.18236 .18236 1227.3 -116.96)" d="m1288.2 76.737c0 4.4873-3.6377 8.125-8.125 8.125s-8.125-3.6377-8.125-8.125 3.6377-8.125 8.125-8.125 8.125 3.6377 8.125 8.125z"/>
   <path transform="matrix(.18236 .18236 -.18236 .18236 1179.2 -165.05)" d="m1288.2 76.737c0 4.4873-3.6377 8.125-8.125 8.125s-8.125-3.6377-8.125-8.125 3.6377-8.125 8.125-8.125 8.125 3.6377 8.125 8.125z"/>
  </g>
  <path transform="matrix(.53677 0 0 .53677 879.25 102.85)" d="m1183.5 128.11c0 28.305-22.945 51.25-51.25 51.25s-51.25-22.945-51.25-51.25 22.945-51.25 51.25-51.25 51.25 22.945 51.25 51.25z" fill="#999"/>
  <g transform="translate(.5,2)" fill="#ccc">
   <path d="m1482.1 205.17-9.2801-36.151 9.2801-34.97h8.7001l9.2801 34.675-9.2801 36.446h-8.7001z"/>
   <path d="m1450.9 165.26 36.151-9.2801 34.97 9.2801v8.7001l-34.675 9.2801-36.446-9.2801v-8.7001z"/>
   <path d="m1458.3 191.68 19-32.125 31.29-18.166 6.152 6.1519-17.957 31.081-32.333 19.209-6.152-6.1519z"/>
   <path d="m1464.4 141.39 32.124 19 18.166 31.29-6.152 6.1519-31.081-17.957-19.209-32.333 6.152-6.1519z"/>
  </g>
  <g transform="matrix(.97514 0 0 .97514 37.448 6.2158)" fill="#ececec">
   <path d="m1482.1 205.17-9.2801-36.151 9.2801-34.97h8.7001l9.2801 34.675-9.2801 36.446h-8.7001z"/>
   <path d="m1450.9 165.26 36.151-9.2801 34.97 9.2801v8.7001l-34.675 9.2801-36.446-9.2801v-8.7001z"/>
   <path d="m1458.3 191.68 19-32.125 31.29-18.166 6.152 6.1519-17.957 31.081-32.333 19.209-6.152-6.1519z"/>
   <path d="m1464.4 141.39 32.124 19 18.166 31.29-6.152 6.1519-31.081-17.957-19.209-32.333 6.152-6.1519z"/>
  </g>
  <path transform="matrix(.52213 0 0 .52213 895.82 104.72)" d="m1183.5 128.11c0 28.305-22.945 51.25-51.25 51.25s-51.25-22.945-51.25-51.25 22.945-51.25 51.25-51.25 51.25 22.945 51.25 51.25z" fill="#ececec"/>
  <path transform="matrix(.39984 0 0 .39984 1034.3 120.39)" d="m1183.5 128.11c0 28.305-22.945 51.25-51.25 51.25s-51.25-22.945-51.25-51.25 22.945-51.25 51.25-51.25 51.25 22.945 51.25 51.25z" fill="#b3b3b3" filter="url(#e)"/>
  <path transform="matrix(.35696 0 0 .35696 1082.8 125.88)" d="m1183.5 128.11c0 28.305-22.945 51.25-51.25 51.25s-51.25-22.945-51.25-51.25 22.945-51.25 51.25-51.25 51.25 22.945 51.25 51.25z" fill="#e6e6e6" filter="url(#d)"/>
  <g transform="matrix(.91067 0 0 .91067 34.373 46.407)">
   <path transform="matrix(.19574 0 0 .19574 1373.5 112.41)" d="m1183.5 128.11c0 28.305-22.945 51.25-51.25 51.25s-51.25-22.945-51.25-51.25 22.945-51.25 51.25-51.25 51.25 22.945 51.25 51.25z" fill="#ccc"/>
   <path transform="matrix(.17796 0 0 .17796 1541.1 75.892)" d="m356.79 346.11c0 29.291-23.745 53.036-53.036 53.036s-53.036-23.745-53.036-53.036 23.745-53.036 53.036-53.036 53.036 23.745 53.036 53.036z" fill="#999"/>
   <path transform="matrix(.17541 0 0 .17541 1541.8 76.774)" d="m356.79 346.11c0 29.291-23.745 53.036-53.036 53.036s-53.036-23.745-53.036-53.036 23.745-53.036 53.036-53.036 53.036 23.745 53.036 53.036z" fill="url(#c)"/>
   <path transform="matrix(.15968 0 0 .15968 1546.6 82.219)" d="m356.79 346.11c0 29.291-23.745 53.036-53.036 53.036s-53.036-23.745-53.036-53.036 23.745-53.036 53.036-53.036 53.036 23.745 53.036 53.036z" fill="#ececec" filter="url(#a)"/>
   <path transform="matrix(.15326 0 0 .15326 1548.6 84.443)" d="m356.79 346.11c0 29.291-23.745 53.036-53.036 53.036s-53.036-23.745-53.036-53.036 23.745-53.036 53.036-53.036 53.036 23.745 53.036 53.036z" fill="#4d4d4d" filter="url(#a)"/>
   <path d="m1594.9 130.14c-2.4369 0.055-4.7868 1.345-6.0938 3.6088-1.4058 2.4349-1.2273 5.3498 0.211 7.5552 0.156-4.85 3.8629-8.5029 8.468-8.2358 1.5097 0.0876 2.9347 0.58497 4.1786 1.3876-0.5955-1.3618-1.6117-2.5506-2.9968-3.3503-1.1857-0.6846-2.4905-0.99429-3.767-0.9655z" fill="url(#h)" opacity=".31771"/>
  </g>
 </g>
</svg>
