<svg xmlns="http://www.w3.org/2000/svg" xmlns:xlink="http://www.w3.org/1999/xlink" width="24.081" height="20.668" viewBox="0 0 24.081 20.668">
  <defs>
    <clipPath id="clip-path">
      <rect width="24.081" height="20.668" fill="none"/>
    </clipPath>
  </defs>
  <g id="icon_wallet" clip-path="url(#clip-path)">
    <g id="icon_wallet-2" data-name="icon_wallet" transform="translate(0 -34.55)" opacity="0.6">
      <path id="Path_19" data-name="Path 19" d="M22.732,43.538h-.573V40.1a2.551,2.551,0,0,0-2.548-2.548h-.528l0-1.279a1.72,1.72,0,0,0-1.719-1.719H2.089A2.09,2.09,0,0,0,0,36.609V53.5a1.72,1.72,0,0,0,1.719,1.719h17.9a2.551,2.551,0,0,0,2.548-2.548V49.223h.573a1.345,1.345,0,0,0,1.343-1.343v-3A1.352,1.352,0,0,0,22.732,43.538Zm-20.643-7.8h15.28a.533.533,0,0,1,.533.528l0,1.284H2.089a.906.906,0,0,1,0-1.812ZM20.974,52.665a1.366,1.366,0,0,1-1.363,1.363H1.714a.534.534,0,0,1-.533-.533V38.526a2.08,2.08,0,0,0,.909.207H19.611A1.366,1.366,0,0,1,20.974,40.1v3.442H16.929a1.345,1.345,0,0,0-1.343,1.343v3a1.345,1.345,0,0,0,1.343,1.343h4.045v3.442Zm1.916-4.785a.156.156,0,0,1-.158.158h-5.8a.156.156,0,0,1-.158-.158v-3a.159.159,0,0,1,.158-.158h5.8a.159.159,0,0,1,.158.158v3Z" transform="translate(0 0)" fill="#fff"/>
    </g>
  </g>
</svg>
