<svg xmlns="http://www.w3.org/2000/svg" width="41.18" height="35.009" viewBox="0 0 41.18 35.009"><defs><style>.a{opacity:0.5;}.b{fill:#fff;}</style></defs><g class="a" transform="translate(12.939 11)"><g transform="translate(-12.939 -11)"><path class="b" d="M91,27.985a9.921,9.921,0,0,0-2.353-3.069,9.291,9.291,0,0,0-.736-.593,9.779,9.779,0,0,0-2.618-1.371h-.041a9.942,9.942,0,0,0-12.11,13.808l-.573.655-8.04,9.124a3.8,3.8,0,0,0-.655,3.969,3.764,3.764,0,0,0,1,1.391,3.8,3.8,0,0,0,5.36-.348l.061-.061h0a2.312,2.312,0,0,0,3.109-3.4l-.061-.041-.061-.041-.1-.1a1.432,1.432,0,0,1,1.984-2.025l.041.041h.02a2.312,2.312,0,0,0,3.048-3.457l.573-.655A9.942,9.942,0,0,0,91,28.026Zm-4.521,5.032a3.662,3.662,0,0,1-1.043.839,3.723,3.723,0,1,1,1.043-.839Z" transform="translate(-50.834 -17.831)"/><path class="b" d="M16.075,19.529a2.312,2.312,0,0,0,1.493-2.844l.818-.266a9.963,9.963,0,0,0,4.071,2.823A9.942,9.942,0,0,1,33.177,3.122,9.942,9.942,0,0,0,15.993,9.2l-.818.266L3.617,13.31a3.8,3.8,0,0,0,2.393,7.2h.082a2.312,2.312,0,0,0,4.4-1.371l-.041-.082V19l-.041-.143A1.432,1.432,0,0,1,13.15,18.1v.061h.02a2.312,2.312,0,0,0,2.9,1.371Z" transform="translate(-1.281 0.035)"/></g></g></svg>