<svg xmlns="http://www.w3.org/2000/svg" xmlns:xlink="http://www.w3.org/1999/xlink" viewBox="0 0 244.87 230.6">
<defs>
<style>.cls-1{fill:#79e2f2;}.cls-2{fill:#4c9aff;}.cls-3{fill:#ffe380;}.cls-4{opacity:0.5;}.cls-5{fill:none;stroke:#c1c7d0;stroke-linecap:round;stroke-miterlimit:10;stroke-width:3.15px;stroke-dasharray:0 9.46;}.cls-6{fill:url(#linear-gradient);}.cls-7{fill:#b3f5ff;}.cls-8{fill:#505f79;opacity:0.15;}.cls-9{fill:url(#linear-gradient-2);}.cls-10{fill:#172b4d;opacity:0.2;}.cls-11{fill:url(#linear-gradient-3);}.cls-12{clip-path:url(#clip-path);}.cls-13{fill:#00b8d9;}.cls-14{clip-path:url(#clip-path-2);}.cls-15{fill:#0065ff;}.cls-16{clip-path:url(#clip-path-3);}.cls-17{fill:#ffc400;}.cls-18{fill:#fff0b2;}.cls-19{fill:#b2d4ff;}</style><linearGradient id="linear-gradient" x1="45.28" y1="213.15" x2="128.14" y2="130.29" gradientUnits="userSpaceOnUse"><stop offset="0.16" stop-color="#00c7e5"/><stop offset="0.28" stop-color="#20cfea"/><stop offset="0.53" stop-color="#5fdff3"/><stop offset="0.74" stop-color="#8cebf9"/><stop offset="0.91" stop-color="#a9f2fd"/><stop offset="1" stop-color="#b3f5ff"/></linearGradient><linearGradient id="linear-gradient-2" x1="109.57" y1="164.69" x2="213.96" y2="60.3" gradientUnits="userSpaceOnUse"><stop offset="0.16" stop-color="#0052cc"/><stop offset="0.25" stop-color="#0059e0"/><stop offset="0.36" stop-color="#0060f1"/><stop offset="0.48" stop-color="#0064fc"/><stop offset="0.62" stop-color="#0065ff"/><stop offset="0.67" stop-color="#0568ff"/><stop offset="0.72" stop-color="#1572ff"/><stop offset="0.79" stop-color="#2e82ff"/><stop offset="0.86" stop-color="#5198ff"/><stop offset="0.93" stop-color="#7eb4ff"/><stop offset="1" stop-color="#b2d4ff"/>
</linearGradient><linearGradient id="linear-gradient-3" x1="30.76" y1="97.24" x2="108.13" y2="19.87" gradientUnits="userSpaceOnUse"><stop offset="0.16" stop-color="#ff991f"/>
<stop offset="0.21" stop-color="#ff9e1b"/><stop offset="0.49" stop-color="#ffba07"/><stop offset="0.66" stop-color="#ffc400"/><stop offset="0.81" stop-color="#ffd340"/><stop offset="0.94" stop-color="#ffdf6e"/><stop offset="1" stop-color="#ffe380"/></linearGradient><clipPath id="clip-path"><circle id="_Ellipse_" data-name="&lt;Ellipse&gt;" class="cls-1" cx="151.14" cy="16.58" r="16.58"/></clipPath><clipPath id="clip-path-2"><circle id="_Ellipse_2" data-name="&lt;Ellipse&gt;" class="cls-2" cx="16.58" cy="127.16" r="16.58"/></clipPath><clipPath id="clip-path-3"><circle id="_Ellipse_3" data-name="&lt;Ellipse&gt;" class="cls-3" cx="188.67" cy="188.89" r="16.58"/></clipPath></defs><title>Q and A</title><g id="Layer_2" data-name="Layer 2"><g id="Objects"><g class="cls-4"><circle class="cls-5" cx="118.99" cy="112.91" r="102.41"/></g><path id="_Path_" data-name="&lt;Path&gt;" class="cls-6" d="M111.88,130.93H61.54a40.79,40.79,0,0,0-40.79,40.79h0a40.79,40.79,0,0,0,40.79,40.79h2.31A24.58,24.58,0,0,1,87.61,230.2l.07.26a.19.19,0,0,0,.36,0l.07-.26a24.58,24.58,0,0,1,23.76-17.69h0a40.79,40.79,0,0,0,40.79-40.79h0A40.79,40.79,0,0,0,111.88,130.93Z"/><path class="cls-7" d="M79.91,184.48l-1.26,5.66H68l9.48-31.77H92l9.43,31.77H90.74l-1.26-5.71a34.39,34.39,0,0,1-4.93.39A30.85,30.85,0,0,1,79.91,184.48Zm8-6.87L84.7,163.21l-3.24,14.46c1.06.1,2.08.15,3.09.15A27,27,0,0,0,87.94,177.62Z"/><path class="cls-8" d="M111.88,130.93h-40a51.41,51.41,0,0,0,50.3,40.85h2.91a31.33,31.33,0,0,1,25.45,13,40.72,40.72,0,0,0,2.14-13h0A40.79,40.79,0,0,0,111.88,130.93Z"/><path id="_Path_2" data-name="&lt;Path&gt;" class="cls-9" d="M193.48,61.11H130.06A51.39,51.39,0,0,0,78.66,112.5h0a51.39,51.39,0,0,0,51.39,51.39H133a31,31,0,0,1,29.94,22.28l.09.32a.24.24,0,0,0,.46,0l.09-.32a31,31,0,0,1,29.94-22.28h0a51.39,51.39,0,0,0,51.39-51.39h0A51.39,51.39,0,0,0,193.48,61.11Z"/><path class="cls-10" d="M123.15,68h0a38.3,38.3,0,0,0-.54-6.37A51.41,51.41,0,0,0,79,106.92a23.4,23.4,0,0,1,6.09-.82h0A38.09,38.09,0,0,0,123.15,68Z"/><path id="_Path_3" data-name="&lt;Path&gt;" class="cls-11" d="M92.95,20.47h-47A38.09,38.09,0,0,0,7.86,58.55h0A38.09,38.09,0,0,0,45.94,96.64H48.1a23,23,0,0,1,22.19,16.52l.07.24a.18.18,0,0,0,.34,0l.07-.24A23,23,0,0,1,92.95,96.64h0A38.09,38.09,0,0,0,131,58.55h0A38.09,38.09,0,0,0,92.95,20.47Z"/><circle id="_Ellipse_4" data-name="&lt;Ellipse&gt;" class="cls-1" cx="151.14" cy="16.58" r="16.58"/><g class="cls-12"><path class="cls-13" d="M156.71,20.45a8.69,8.69,0,1,0-11.18,0,4.58,4.58,0,0,1,1.63,3.49h0a4.55,4.55,0,0,1-2.83,4.21,18.09,18.09,0,0,0-5.47,3.49,31.55,31.55,0,0,0,24.57,0c-2.56-1.1-4.05-2.91-5.44-3.47a4.57,4.57,0,0,1-2.86-4.22A4.48,4.48,0,0,1,156.71,20.45Z"/><path class="cls-13" d="M142.65,25.24a1.25,1.25,0,0,1-1.14-1.85,6.8,6.8,0,0,0,.83-3.27V13.93A8.88,8.88,0,0,1,157.6,8a8.52,8.52,0,0,1,2.34,5.95v6.2a6.84,6.84,0,0,0,.83,3.27,1.25,1.25,0,0,1-1.15,1.84Z"/></g><circle id="_Ellipse_5" data-name="&lt;Ellipse&gt;" class="cls-2" cx="16.58" cy="127.16" r="16.58"/><g class="cls-14"><path class="cls-15" d="M21.86,130.85a8.69,8.69,0,1,0-11.18,0,4.58,4.58,0,0,1,1.63,3.49h0a4.55,4.55,0,0,1-2.83,4.21A18.09,18.09,0,0,0,4,142a31.55,31.55,0,0,0,24.57,0c-2.56-1.1-4.05-2.91-5.44-3.47a4.57,4.57,0,0,1-2.86-4.22A4.48,4.48,0,0,1,21.86,130.85Z"/></g><circle id="_Ellipse_6" data-name="&lt;Ellipse&gt;" class="cls-3" cx="188.67" cy="188.89" r="16.58"/><g class="cls-16"><path class="cls-17" d="M189.23,206.77a28,28,0,0,0,11.25-2.49,16.84,16.84,0,0,0-5.12-3.49,4.56,4.56,0,0,1-2.65-4.21h0a4.71,4.71,0,0,1,1.53-3.49,8.92,8.92,0,0,0,2.87-6.62c0-4.93-3.85-8.91-8.52-8.68-4.67-.23-8.52,3.74-8.52,8.68a8.92,8.92,0,0,0,2.87,6.62,4.71,4.71,0,0,1,1.53,3.49h0a4.56,4.56,0,0,1-2.65,4.21,16.84,16.84,0,0,0-5.12,3.49A28,28,0,0,0,188,206.77Z"/><path class="cls-17" d="M196.54,197.09H180.67a.92.92,0,0,1-.92-.92V186a9.05,9.05,0,0,1,2.6-6.27A8.86,8.86,0,0,1,197.47,186v10.21A.92.92,0,0,1,196.54,197.09Z"/></g><path class="cls-18" d="M49.53,60.61c0-10.63,6.46-18.05,18-18.05S85.47,50,85.47,58.69c0,5.45-3.1,8.81-7.69,10.52h7.85v9H67.58C56,78.24,49.53,71.35,49.53,60.61Zm10.68,0c0,4.86,2.08,8.6,7.32,8.6s7.26-3.74,7.26-8.6c0-4.65-2.08-8.55-7.26-8.55S60.21,56,60.21,60.61Z"/><path class="cls-19" d="M195.34,141.45H176l-4.66-4.31c-4,3.19-9.4,5.17-16.73,5.17-14.23,0-20.7-6.56-20.7-15.53,0-7.07,4.57-12,11-14.84-3-3.54-5.26-7.5-5.26-12.94,0-9.31,6.12-15.18,19.58-15.18,11.21,0,18.11,4.66,18.11,14.23,0,7.68-5.43,12.59-12.85,14.23l9.57,9a28.1,28.1,0,0,0,4.57-15.87h14.66c-.26,11.3-4.4,17.34-12,22.68l14.06,13.2Zm-32.09-12L153.08,120c-.95-.86-1.81-1.72-2.76-2.59a7.88,7.88,0,0,0-2,5.61c0,4.31,3.28,7.59,8.8,7.59A19.29,19.29,0,0,0,163.26,129.46Zm-4-22.08a9,9,0,0,0,4.23-7.59c0-3.19-1.64-4.57-4.23-4.57-2.85,0-4.4,1.64-4.4,4.57C154.89,102.38,156.27,104.54,159.29,107.38Z"/></g></g></svg>
