<svg xmlns="http://www.w3.org/2000/svg" xmlns:xlink="http://www.w3.org/1999/xlink" width="684.146" height="377.517" viewBox="0 0 684.146 377.517">
  <defs>
    <clipPath id="clip-path">
      <path id="Path_100" data-name="Path 100" d="M508.063,310.589H292.894V283.013l-41.143-85.271,24.831-70.161L517,122.219l-8.933,158.852Z" fill="none"/>
    </clipPath>
  </defs>
  <g id="Group_149" data-name="Group 149" transform="translate(-32.927 -61.242)">
    <g id="OBJECTS">
      <g id="Group_6" data-name="Group 6">
        <g id="Group_4" data-name="Group 4">
          <path id="Path_3" data-name="Path 3" d="M455.526,295.4c10.434-10.208,24.524,23.18,29.395,35.926l9.76-11.2c-6.829-8.144-31.477-39.645-11.256-47.627,13.916-5.494,13.6,32.709,13.118,45.491l13.181-15.127c-3.4-7.859-19.692-48.094,2.82-49.841,15.08-1.17,3.121,36.072-.981,47.731l14.025-16.1c5.205-12.577,20.229-45.647,30.39-35.144,14.3,14.785-16.685,32.147-28.177,37.862l-13.382,15.357c11.791-7.012,43.407-24.355,45.259-9.91,2.838,22.135-38.851,14.813-47.921,12.965l-14.282,16.39c9.926-2.558,51.75-12.457,49.06,3.118-3.877,22.441-43.046,1.924-50.074-1.955l-10.17,11.672c.059.166.115.32.16.449,11.2,1.69,51.686,8.774,43.339,21.81-11.934,18.639-38.847-13.049-44.917-20.633L462.341,362.5l-2.6-2.27L482.6,334C471.224,327.938,440.844,309.765,455.526,295.4Z" fill="#35c4a6"/>
          <g id="Group_3" data-name="Group 3">
            <g id="Group_2" data-name="Group 2">
              <path id="Path_4" data-name="Path 4" d="M509.469,417.054c-11.48,0-22.669-3.154-26.809-12.607-9.111-20.8,15.319-39.108,31.191-46.645,6-2.85,12.291-5.26,18.372-7.591,5.549-2.127,11.287-4.325,16.762-6.844h0a131.421,131.421,0,0,0,38.882-27.316,2.418,2.418,0,0,1,4.131,1.81c-.662,15.976-1.779,31.492-8.1,45.664-4.795,10.745-12.719,20.971-24.935,32.181-6.293,5.779-14.818,12.926-24.958,16.94A71.279,71.279,0,0,1,509.469,417.054Zm40.447-71.663c-5.541,2.549-11.313,4.762-16.9,6.9-6.04,2.315-12.287,4.71-18.214,7.523-15.146,7.193-38.531,24.5-30.105,43.738,6.969,15.915,37.092,11.531,48.478,7.022,9.8-3.881,18.121-10.862,24.274-16.509,11.983-11,19.738-20.991,24.406-31.448,6.164-13.813,7.261-29.1,7.913-44.85a.181.181,0,0,0-.12-.189.157.157,0,0,0-.2.035,133.645,133.645,0,0,1-39.539,27.777Z" fill="#35c4a6"/>
            </g>
          </g>
        </g>
        <g id="Group_5" data-name="Group 5">
          <path id="Path_5" data-name="Path 5" d="M310.783,354.82c-10.435-10.208-24.525,23.18-29.4,35.927l-9.76-11.2c6.83-8.144,31.477-39.645,11.257-47.627-13.917-5.494-13.6,32.71-13.118,45.491l-13.182-15.127c3.4-7.858,19.693-48.094-2.819-49.841-15.08-1.17-3.122,36.073.981,47.732l-14.026-16.1c-5.2-12.577-20.229-45.647-30.389-35.144-14.3,14.785,16.685,32.147,28.176,37.862l13.383,15.358c-11.792-7.012-43.407-24.356-45.259-9.911-2.838,22.135,38.851,14.813,47.921,12.966L268.833,381.6c-9.926-2.558-51.749-12.457-49.059,3.118,3.876,22.442,43.046,1.924,50.073-1.955l10.171,11.672c-.06.166-.115.321-.161.449-11.2,1.69-51.686,8.774-43.339,21.81,11.934,18.64,38.847-13.049,44.917-20.633l22.532,25.857,2.6-2.269-22.859-26.232C295.084,387.357,325.465,369.184,310.783,354.82Z" fill="#35c4a6"/>
          <path id="Path_6" data-name="Path 6" d="M273.193,338.347a133.36,133.36,0,0,0-16.716-44.908,1.3,1.3,0,0,1,1.512-1.9c14.791,4.535,29.724,9.566,41.754,19.212,10.544,8.454,18.209,19.977,24.528,31.924,4.664,8.818,8.74,18.145,9.944,28.048,1.681,13.831-2.592,43.6-20,46.355-21.819,3.447-32.823-24.568-35.954-41.1C275.9,363.532,275.4,350.819,273.193,338.347Z" fill="#35c4a6"/>
        </g>
      </g>
      <g id="Group_21" data-name="Group 21">
        <g id="Group_8" data-name="Group 8">
          <g id="Group_7" data-name="Group 7">
            <path id="Path_7" data-name="Path 7" d="M577.262,100.273l-.018-1.165A15.131,15.131,0,0,0,584.715,97l.594,1A16.307,16.307,0,0,1,577.262,100.273Zm-8.115-2.011a16.4,16.4,0,0,1-6.051-5.77l.992-.61a15.235,15.235,0,0,0,5.621,5.359Zm22.029-6.217-1.012-.578a15.146,15.146,0,0,0,1.986-7.505q0-.483-.03-.962l1.162-.072c.022.341.032.685.033,1.033A16.31,16.31,0,0,1,591.176,92.045ZM560.7,84.482c-.005-.174-.008-.348-.006-.524a16.336,16.336,0,0,1,1.89-7.624l1.028.545a15.186,15.186,0,0,0-1.753,7.083c0,.164,0,.322.007.481Zm28.962-8.844a15.215,15.215,0,0,0-5.787-5.179l.531-1.038A16.384,16.384,0,0,1,590.633,75ZM568.88,71.175l-.626-.983a16.276,16.276,0,0,1,7.972-2.523l.054,1.164A15.1,15.1,0,0,0,568.88,71.175Z" fill="#bcdffd"/>
          </g>
        </g>
        <g id="Group_10" data-name="Group 10">
          <g id="Group_9" data-name="Group 9">
            <path id="Path_8" data-name="Path 8" d="M80.692,356.535a50.77,50.77,0,0,1-8.162-1.122l.253-1.138a49.787,49.787,0,0,0,7.974,1.1Zm8.235-.2-.122-1.158a49.467,49.467,0,0,0,7.909-1.494l.31,1.124A50.685,50.685,0,0,1,88.927,356.331Zm-24.273-3.357a50.58,50.58,0,0,1-7.371-3.691l.6-1a49.411,49.411,0,0,0,7.2,3.606Zm40.11-1-.489-1.059a49.336,49.336,0,0,0,7.008-3.955l.653.965A50.847,50.847,0,0,1,104.764,351.975Zm-54.155-7.526A51.048,51.048,0,0,1,44.8,338.6l.891-.751a49.91,49.91,0,0,0,5.672,5.712Zm67.752-1.681-.8-.846a50.121,50.121,0,0,0,5.385-5.987l.926.708A51.053,51.053,0,0,1,118.361,342.768ZM40.016,331.9a50.578,50.578,0,0,1-3.636-7.389l1.084-.428a49.4,49.4,0,0,0,3.552,7.218Zm88.307-2.189-1.028-.549a49.35,49.35,0,0,0,3.19-7.395l1.1.374A50.465,50.465,0,0,1,128.323,329.709ZM34,316.621a50.934,50.934,0,0,1-1.069-8.171l1.164-.057a49.727,49.727,0,0,0,1.044,7.982Zm99.578-2.482-1.15-.186a49.927,49.927,0,0,0,.647-8.024c0-1.64-.081-3.3-.242-4.924l1.16-.114c.164,1.665.247,3.36.247,5.038A51.075,51.075,0,0,1,133.574,314.139ZM34.342,300.347l-1.158-.129a50.522,50.522,0,0,1,1.583-8.086l1.121.316A49.464,49.464,0,0,0,34.342,300.347Zm97.047-7.262a49.35,49.35,0,0,0-2.712-7.578l1.062-.48a50.614,50.614,0,0,1,2.776,7.758ZM38.7,284.9l-1.055-.5a50.862,50.862,0,0,1,4.1-7.149l.96.66A49.64,49.64,0,0,0,38.7,284.9Zm86.065-6.43a49.777,49.777,0,0,0-5-6.312l.852-.794a50.891,50.891,0,0,1,5.114,6.459Zm-76.976-6.8-.841-.806a50.9,50.9,0,0,1,6.163-5.468l.7.93A49.936,49.936,0,0,0,47.792,271.672Zm66.03-4.936a49.773,49.773,0,0,0-6.747-4.395l.554-1.024a50.884,50.884,0,0,1,6.907,4.5Zm-53.2-4.708-.54-1.033a50.507,50.507,0,0,1,7.588-3.212l.365,1.106A49.392,49.392,0,0,0,60.617,262.028ZM99.7,259.1a49.307,49.307,0,0,0-7.8-1.992l.2-1.15A50.544,50.544,0,0,1,100.082,258ZM75.854,257l-.179-1.151a51.135,51.135,0,0,1,7.854-.608h.364l-.011,1.166-.331,0A47.99,47.99,0,0,0,75.854,257Z" fill="#bcdffd"/>
          </g>
        </g>
        <g id="Group_12" data-name="Group 12">
          <g id="Group_11" data-name="Group 11">
            <path id="Path_9" data-name="Path 9" d="M695.143,307.471a20.176,20.176,0,0,1-8.008-2.314l.546-1.029a19.012,19.012,0,0,0,7.549,2.18Zm8.265-1.079-.385-1.1a19.1,19.1,0,0,0,6.73-4.056l.792.853A20.246,20.246,0,0,1,703.408,306.392Zm-22.685-6.562a20.231,20.231,0,0,1-3.749-7.444l1.126-.3a19.063,19.063,0,0,0,3.536,7.018Zm34.651-4.532-1.067-.466a19.086,19.086,0,0,0,1.6-7.7h1.165A20.235,20.235,0,0,1,715.374,295.3Zm.42-10.256a18.987,18.987,0,0,0-2.43-7.47l1.01-.58a20.149,20.149,0,0,1,2.579,7.925Zm-38.12-.8-1.152-.175a20.166,20.166,0,0,1,2.913-7.81l.985.623A19.021,19.021,0,0,0,677.674,284.239ZM708.141,271.7a19.008,19.008,0,0,0-7.132-3.3l.262-1.135a20.176,20.176,0,0,1,7.566,3.5Zm-22.256-.473-.655-.963a20.175,20.175,0,0,1,7.708-3.175l.212,1.145A19.04,19.04,0,0,0,685.885,271.227Z" fill="#bcdffd"/>
          </g>
        </g>
        <g id="Group_14" data-name="Group 14">
          <g id="Group_13" data-name="Group 13">
            <path id="Path_10" data-name="Path 10" d="M546.126,68.233a6.991,6.991,0,1,1-6.991-6.991A6.991,6.991,0,0,1,546.126,68.233Z" fill="#bcdffd"/>
          </g>
        </g>
        <g id="Group_16" data-name="Group 16">
          <g id="Group_15" data-name="Group 15">
            <path id="Path_11" data-name="Path 11" d="M90.542,237.766a6.409,6.409,0,1,1-6.409-6.409A6.408,6.408,0,0,1,90.542,237.766Z" fill="#bcdffd"/>
          </g>
        </g>
        <g id="Group_18" data-name="Group 18">
          <g id="Group_17" data-name="Group 17">
            <circle id="Ellipse_1" data-name="Ellipse 1" cx="4.661" cy="4.661" r="4.661" transform="translate(675.46 259.321)" fill="#bcdffd"/>
          </g>
        </g>
        <g id="Group_20" data-name="Group 20">
          <g id="Group_19" data-name="Group 19">
            <path id="Path_12" data-name="Path 12" d="M281.631,73.476a4.078,4.078,0,1,1-4.078-4.078A4.078,4.078,0,0,1,281.631,73.476Z" fill="#bcdffd"/>
          </g>
        </g>
      </g>
      <g id="Group_33" data-name="Group 33">
        <path id="Path_13" data-name="Path 13" d="M255.443,136.347H216.4a4.679,4.679,0,0,0-4.679,4.679v25.168a4.679,4.679,0,0,0,4.679,4.679h11.622l3.671,6.358,4.229,7.325,4.229-7.325,3.671-6.358h11.622a4.679,4.679,0,0,0,4.679-4.679V141.026A4.679,4.679,0,0,0,255.443,136.347Z" fill="#fff"/>
        <path id="Path_14" data-name="Path 14" d="M228.125,208.977c-8.158-5.028-13.243,4.784-13.274,4.844-.031-.06-5.116-9.872-13.275-4.844-9.372,5.776-.212,24.02,13.273,28.448h0C228.337,233,237.5,214.753,228.125,208.977Z" fill="#ff5c5b"/>
        <g id="Group_26" data-name="Group 26">
          <g id="Group_22" data-name="Group 22">
            <path id="Path_15" data-name="Path 15" d="M173.965,156.3a43.98,43.98,0,0,0,10.205.061,5.54,5.54,0,0,0,2.352-.648,1.949,1.949,0,0,0,1.033-1.988,2.446,2.446,0,0,0,1.558-.905,2.262,2.262,0,0,0,.471-.586,1.745,1.745,0,0,0,.133-.853,2.634,2.634,0,0,0-1.28-2.222,2.317,2.317,0,0,0,1.121-3.708,2.748,2.748,0,0,0-1.184-.769c.333-.3.8-.446,1.059-.809a1.327,1.327,0,0,0-.292-1.676,2.891,2.891,0,0,0-1.717-.626,26.292,26.292,0,0,0-3.389.09,6.853,6.853,0,0,1-3.355-.692c-.217-1.491.14-3.048-.26-4.5a4.576,4.576,0,0,0-4.042-3.268.92.92,0,0,0-1.174,1.033,15.4,15.4,0,0,0,.724,3.528,4.386,4.386,0,0,1-.338,3.489,11.749,11.749,0,0,0-.857,1.118,8.163,8.163,0,0,0-.43,1.889c-.156.63-.649,1.29-1.295,1.225Z" fill="#fff"/>
          </g>
          <g id="Group_25" data-name="Group 25">
            <g id="Group_23" data-name="Group 23">
              <rect id="Rectangle_2" data-name="Rectangle 2" width="5.177" height="15.217" rx="0.568" transform="translate(168.803 142.346)" fill="#121b46"/>
            </g>
            <g id="Group_24" data-name="Group 24">
              <circle id="Ellipse_2" data-name="Ellipse 2" cx="0.631" cy="0.631" r="0.631" transform="translate(170.634 143.609)" fill="#fff"/>
            </g>
          </g>
        </g>
        <g id="Group_32" data-name="Group 32">
          <path id="Path_16" data-name="Path 16" d="M588.1,179.07H549.057a4.679,4.679,0,0,0-4.679,4.679v25.169a4.678,4.678,0,0,0,4.679,4.678h11.622l3.671,6.358,4.229,7.325,4.229-7.325,3.671-6.358H588.1a4.678,4.678,0,0,0,4.679-4.678V183.749A4.679,4.679,0,0,0,588.1,179.07Z" fill="#fdb32c"/>
          <g id="Group_31" data-name="Group 31">
            <g id="Group_27" data-name="Group 27">
              <path id="Path_17" data-name="Path 17" d="M565.464,207.565a43.926,43.926,0,0,0,10.205.061,5.525,5.525,0,0,0,2.352-.647,1.951,1.951,0,0,0,1.033-1.989,2.44,2.44,0,0,0,1.558-.9,2.262,2.262,0,0,0,.471-.586,1.747,1.747,0,0,0,.133-.854,2.631,2.631,0,0,0-1.28-2.221,2.317,2.317,0,0,0,1.121-3.708,2.749,2.749,0,0,0-1.184-.769c.333-.3.8-.447,1.059-.81a1.327,1.327,0,0,0-.292-1.676,2.89,2.89,0,0,0-1.717-.625,26.3,26.3,0,0,0-3.389.09,6.853,6.853,0,0,1-3.355-.692c-.217-1.491.14-3.048-.26-4.5a4.578,4.578,0,0,0-4.042-3.269A.92.92,0,0,0,566.7,185.5a15.4,15.4,0,0,0,.724,3.528,4.382,4.382,0,0,1-.338,3.489,11.739,11.739,0,0,0-.857,1.117,8.184,8.184,0,0,0-.43,1.89c-.156.63-.649,1.29-1.295,1.224Z" fill="#fff"/>
            </g>
            <g id="Group_30" data-name="Group 30">
              <g id="Group_28" data-name="Group 28">
                <rect id="Rectangle_3" data-name="Rectangle 3" width="5.177" height="15.217" rx="0.568" transform="translate(560.302 193.614)" fill="#121b46"/>
              </g>
              <g id="Group_29" data-name="Group 29">
                <path id="Path_18" data-name="Path 18" d="M563.4,195.508a.632.632,0,1,1-.631-.632A.632.632,0,0,1,563.4,195.508Z" fill="#fff"/>
              </g>
            </g>
          </g>
        </g>
      </g>
      <g id="Group_62" data-name="Group 62">
        <g id="Group_36" data-name="Group 36">
          <g id="Group_34" data-name="Group 34">
            <path id="Path_19" data-name="Path 19" d="M567.6,417.017H556.24c.887,6.99,1.6,12.319,1.9,14.578,0,0-7.931,5.383-13.313,4.687a.83.83,0,0,0-.789.31,1.158,1.158,0,0,0,.11,1.516.808.808,0,0,0,.636.3h21.4a1.613,1.613,0,0,0,1.6-1.381,13.443,13.443,0,0,0-.357-5.1Z" fill="#cc6f49"/>
            <path id="Path_20" data-name="Path 20" d="M555.083,433.5s1.893,1.238,2.185,2.549c.147.661,2.2.544,4.2.266a12.839,12.839,0,0,0,5.607-2.343,1.266,1.266,0,0,1,.824-.326c.728.145.655,4.588-.218,4.952-.8.335-20.44.053-23.547.006a.437.437,0,0,1-.434-.434c-.009-.753.12-2.25,1.26-2.412C546.49,435.538,555.083,433.5,555.083,433.5Z" fill="#121b46"/>
          </g>
          <g id="Group_35" data-name="Group 35">
            <path id="Path_21" data-name="Path 21" d="M593.736,417.017H582.373l2.783,14.9a13.624,13.624,0,0,0,.536,5.1,2.009,2.009,0,0,0,1.841,1.381H605.31c0-.761.024-1.522.04-2.283-5.037-.934-10.962-4.526-10.962-4.526C594.3,429.336,594.071,424.007,593.736,417.017Z" fill="#cc6f49"/>
            <path id="Path_22" data-name="Path 22" d="M597.892,433.5s-1.893,1.238-2.185,2.549c-.146.661-2.2.544-4.2.266a12.85,12.85,0,0,1-5.607-2.343,1.264,1.264,0,0,0-.824-.326c-.728.145-.655,4.588.219,4.952.8.335,20.439.053,23.546.006a.436.436,0,0,0,.434-.434c.009-.753-.12-2.25-1.259-2.412C606.485,435.538,597.892,433.5,597.892,433.5Z" fill="#121b46"/>
          </g>
        </g>
        <g id="Group_47" data-name="Group 47">
          <g id="Group_38" data-name="Group 38">
            <path id="Path_23" data-name="Path 23" d="M554.088,283.895s-6.6,6.02-6.02,10.875,5.049,19.614,3.689,29.712-4.466,18.837-3.689,29.518,7.379,69.911,7.379,69.911,14.953-5.049,20.2-2.719,19.613,4.272,21.555,3.5c0,0-3.3-79.814-14.176-94.767,0,0-1.942-21.459-.049-26.265s-.436-18.061-5.243-19.663S554.088,283.895,554.088,283.895Z" fill="#fdb32c"/>
            <g id="Group_37" data-name="Group 37">
              <path id="Path_24" data-name="Path 24" d="M558.87,291.348s12.744.218,21.483-4.151" fill="none" stroke="#121b46" stroke-miterlimit="10" stroke-width="1.165"/>
              <path id="Path_25" data-name="Path 25" d="M563.02,386.531a80.354,80.354,0,0,0,14.365-18.967" fill="none" stroke="#121b46" stroke-miterlimit="10" stroke-width="1.165"/>
              <path id="Path_26" data-name="Path 26" d="M570.684,384.984q2.809-4.343,5.349-8.851" fill="none" stroke="#121b46" stroke-miterlimit="10" stroke-width="1.165"/>
            </g>
          </g>
          <g id="Group_43" data-name="Group 43">
            <g id="Group_41" data-name="Group 41">
              <g id="Group_39" data-name="Group 39">
                <path id="Path_27" data-name="Path 27" d="M570.975,325.659c.073-.916-6.045-2.548-5.806-3.173.212-.553,1.761-.763,2.57-.733a.264.264,0,0,0,.281-.3c-.035-.337-.235-.83-1.083-.917a14.831,14.831,0,0,0-5.809.451l-.006,0c-.3-.171-3-1.645-7.025-3.862-.711,2.4-1.369,4.841-2.27,7.126a68.125,68.125,0,0,0,8.188,1.093v-.029c1.492,1.387,5.127,4.63,7.148,5.254a.19.19,0,0,0,.239-.255c-.121-.346-.563-1-2.017-2.094,0,0,3.562,1.495,4.208,1.231s-3.613-2.807-3.613-2.807,4.183,1.254,4.631.8-4.051-2.462-4.051-2.462S570.946,326.027,570.975,325.659Z" fill="#cc6f49"/>
                <path id="Path_28" data-name="Path 28" d="M551.952,285.837s-8.448,8.642-13.206,15.342-5.728,10.389-4.563,14.564,8.447,6.6,10.583,7.283,12.623,2.621,12.623,2.621l1.748-6.214L547,312.442l12.428-17.866Z" fill="#fdb32c"/>
              </g>
              <g id="Group_40" data-name="Group 40">
                <path id="Path_29" data-name="Path 29" d="M542.557,310.791l4.369,1.675-1.6-2.622" fill="none" stroke="#121b46" stroke-miterlimit="10" stroke-width="1.165"/>
                <line id="Line_1" data-name="Line 1" y1="4.806" x2="4.952" transform="translate(553.263 300.669)" fill="none" stroke="#121b46" stroke-miterlimit="10" stroke-width="1.165"/>
              </g>
            </g>
            <g id="Group_42" data-name="Group 42">
              <path id="Rectangle_4" data-name="Rectangle 4" d="M1.651,0h33.4A1.651,1.651,0,0,1,36.7,1.651V23.692a0,0,0,0,1,0,0H0a0,0,0,0,1,0,0V1.651A1.651,1.651,0,0,1,1.651,0Z" transform="translate(547.841 305.451)" fill="#dfdfdf"/>
              <rect id="Rectangle_5" data-name="Rectangle 5" width="36.703" height="2.719" transform="translate(547.841 328.755)" fill="#a1b0cf"/>
              <path id="Path_30" data-name="Path 30" d="M569.494,318.268a3.3,3.3,0,1,1-3.3-3.3A3.3,3.3,0,0,1,569.494,318.268Z" fill="#fff"/>
            </g>
          </g>
          <g id="Group_46" data-name="Group 46">
            <g id="Group_44" data-name="Group 44">
              <path id="Path_31" data-name="Path 31" d="M586.658,324.169l-.614-.767c-.152.027-.29.068-.437.1-.231-.148-.468-.291-.7-.442l-.381.713,0,0a14.833,14.833,0,0,0-5.116,2.81,1.032,1.032,0,0,0-.4,1.361.264.264,0,0,0,.4.094c.66-.468,2.071-1.141,2.551-.8.543.391-3.679,5.11-3.117,5.836.226.292,3.322-2.985,3.322-2.985s-2.663,4.147-2.04,4.28,3.435-3.209,3.435-3.209-2.168,4.461-1.483,4.329,2.844-3.337,2.844-3.337a5.6,5.6,0,0,0-.539,2.858.19.19,0,0,0,.34.082c1.347-1.628,2.609-6.326,3.1-8.307l.01.009.012.012c.469-.356.917-.738,1.375-1.107Q587.921,324.956,586.658,324.169Z" fill="#cc6f49"/>
              <path id="Path_32" data-name="Path 32" d="M579.333,285.158a43.153,43.153,0,0,1,5.147,2.524c1.844,1.165,19.225,16.021,19.419,20.294S588.655,327.2,588.655,327.2l-3.981-3.981,6.214-13.011-16.9-15.633Z" fill="#fdb32c"/>
            </g>
            <g id="Group_45" data-name="Group 45">
              <path id="Path_33" data-name="Path 33" d="M593.024,307.3l-2.112,2.913-.291-2.84" fill="none" stroke="#121b46" stroke-miterlimit="10" stroke-width="1.165"/>
              <line id="Line_2" data-name="Line 2" x2="4.078" y2="3.131" transform="translate(585.451 322.516)" fill="none" stroke="#121b46" stroke-miterlimit="10" stroke-width="1.165"/>
              <path id="Path_34" data-name="Path 34" d="M583.12,303.072l-5.68-3.059,5.17,5.1Z" fill="#121b46"/>
            </g>
          </g>
        </g>
        <g id="Group_61" data-name="Group 61">
          <g id="Group_58" data-name="Group 58">
            <path id="Path_35" data-name="Path 35" d="M578.9,266.016a2.2,2.2,0,0,0-2.474-1.557c.477-14.046-11.233-12.154-11.233-12.154-7.35.638-8.188,8.449-8.133,12.428a2.774,2.774,0,0,0-.585-.273,2.2,2.2,0,0,0-2.482,1.556,2.914,2.914,0,0,0,.378,2.428,3.661,3.661,0,0,0,1.668,1.394,4.782,4.782,0,0,0,1.282.147c1.136,9.184,9.455,8.28,9.455,8.28,7.213.357,9.085-4.682,9.505-8.318a3.421,3.421,0,0,0,.573-.109,3.669,3.669,0,0,0,1.669-1.394A2.918,2.918,0,0,0,578.9,266.016Z" fill="#cc6f49"/>
            <g id="Group_57" data-name="Group 57">
              <g id="Group_48" data-name="Group 48">
                <circle id="Ellipse_3" data-name="Ellipse 3" cx="2.352" cy="2.352" r="2.352" transform="translate(570.278 267.171)" fill="#c4533a"/>
                <circle id="Ellipse_4" data-name="Ellipse 4" cx="2.352" cy="2.352" r="2.352" transform="translate(558.57 267.171)" fill="#c4533a"/>
              </g>
              <g id="Group_52" data-name="Group 52">
                <g id="Group_51" data-name="Group 51">
                  <g id="Group_49" data-name="Group 49">
                    <ellipse id="Ellipse_5" data-name="Ellipse 5" cx="0.679" cy="1.391" rx="0.679" ry="1.391" transform="translate(569.039 263.568)" fill="#121b46"/>
                    <path id="Path_36" data-name="Path 36" d="M571.1,263.128a2,2,0,0,1-.46.594,1.618,1.618,0,0,1-.711.368l-.011,0a.251.251,0,1,1-.046-.5,1.465,1.465,0,0,0,1.089-.552l.005-.005a.081.081,0,0,1,.115-.009A.08.08,0,0,1,571.1,263.128Z" fill="#121b46"/>
                  </g>
                  <g id="Group_50" data-name="Group 50">
                    <ellipse id="Ellipse_6" data-name="Ellipse 6" cx="0.679" cy="1.391" rx="0.679" ry="1.391" transform="translate(563.155 263.568)" fill="#121b46"/>
                    <path id="Path_37" data-name="Path 37" d="M562.586,263.044a1.467,1.467,0,0,0,1.09.552.251.251,0,1,1,.02.5.281.281,0,0,1-.065-.005l-.013,0a1.623,1.623,0,0,1-.711-.368,2,2,0,0,1-.459-.594.08.08,0,0,1,.035-.109.082.082,0,0,1,.1.02Z" fill="#121b46"/>
                  </g>
                </g>
              </g>
              <g id="Group_54" data-name="Group 54">
                <g id="Group_53" data-name="Group 53">
                  <path id="Path_38" data-name="Path 38" d="M569.327,269.167a3.337,3.337,0,0,1-1.024,1.164,2.6,2.6,0,0,1-1.521.505,2.642,2.642,0,0,1-1.514-.522,5.122,5.122,0,0,1-.586-.522c-.16-.206-.316-.412-.456-.625.21.153.4.317.593.475.214.13.405.29.622.4a2.814,2.814,0,0,0,1.343.382,2.741,2.741,0,0,0,1.349-.364A5.888,5.888,0,0,0,569.327,269.167Z" fill="#121b46"/>
                  <path id="Path_39" data-name="Path 39" d="M567.492,271.633a1.117,1.117,0,0,1-.715.242,1.172,1.172,0,0,1-.716-.242,3.679,3.679,0,0,0,.716.08A3.13,3.13,0,0,0,567.492,271.633Z" fill="#121b46"/>
                </g>
              </g>
              <g id="Group_56" data-name="Group 56">
                <g id="Group_55" data-name="Group 55">
                  <path id="Path_40" data-name="Path 40" d="M565.079,260.135a1.609,1.609,0,0,0-1.053-.389,3.232,3.232,0,0,0-1.121.159,2.734,2.734,0,0,0-.987.565,2.871,2.871,0,0,0-.674.864.325.325,0,0,0,.5.4l.027-.026a4.126,4.126,0,0,1,.671-.533,2.364,2.364,0,0,1,.741-.3,2.9,2.9,0,0,1,.8-.078,3.068,3.068,0,0,0,.857-.049l.086-.021a.342.342,0,0,0,.146-.586Z" fill="#121b46"/>
                  <path id="Path_41" data-name="Path 41" d="M568.474,260.135a1.609,1.609,0,0,1,1.053-.389,3.236,3.236,0,0,1,1.121.159,2.734,2.734,0,0,1,.987.565,2.872,2.872,0,0,1,.674.864.325.325,0,0,1-.5.4l-.028-.026a4.041,4.041,0,0,0-.671-.533,2.359,2.359,0,0,0-.74-.3,2.9,2.9,0,0,0-.8-.078,3.077,3.077,0,0,1-.858-.049l-.086-.021a.342.342,0,0,1-.25-.412A.349.349,0,0,1,568.474,260.135Z" fill="#121b46"/>
                </g>
              </g>
              <path id="Path_42" data-name="Path 42" d="M566.934,262.834c.12.524.208,1.045.306,1.56s.2,1.027.341,1.514c.034.123.072.243.115.359a1.29,1.29,0,0,1,.118.449.9.9,0,0,1-.487.825,1.1,1.1,0,0,1-.887.047,2.132,2.132,0,0,1-.7-.42c.487.184,1.057.327,1.4.067a.534.534,0,0,0,.241-.5.988.988,0,0,0-.1-.308c-.052-.13-.1-.261-.137-.393a7.357,7.357,0,0,1-.255-1.6A8.434,8.434,0,0,1,566.934,262.834Z" fill="#121b46"/>
              <path id="Path_43" data-name="Path 43" d="M554.845,266.768a1.161,1.161,0,0,1,.362-.921,1.08,1.08,0,0,1,1.05-.1,1.988,1.988,0,0,1,.847.618,3.152,3.152,0,0,1,.526.889.231.231,0,0,1-.38.249l-.015-.015a2.04,2.04,0,0,0-.779-.551.359.359,0,0,0-.327.036.876.876,0,0,0-.234.361c-.118.3-.19.661.071.8a1.745,1.745,0,0,0,1.029.07,1.623,1.623,0,0,1-1.131.152.637.637,0,0,1-.4-.533,1.627,1.627,0,0,1,.066-.616,1.153,1.153,0,0,1,.329-.569.778.778,0,0,1,.711-.146,2.228,2.228,0,0,1,1.014.682l-.4.234a2.475,2.475,0,0,0-1.067-1.336.869.869,0,0,0-.791-.048A1.16,1.16,0,0,0,554.845,266.768Z" fill="#121b46"/>
              <path id="Path_44" data-name="Path 44" d="M578.351,266.768a1.158,1.158,0,0,0-.362-.921,1.079,1.079,0,0,0-1.049-.1,1.985,1.985,0,0,0-.848.618,3.152,3.152,0,0,0-.526.889.231.231,0,0,0,.38.249l.015-.015a2.048,2.048,0,0,1,.779-.551.359.359,0,0,1,.327.036.858.858,0,0,1,.234.361c.118.3.19.661-.07.8a1.749,1.749,0,0,1-1.03.07,1.625,1.625,0,0,0,1.132.152.639.639,0,0,0,.4-.533,1.67,1.67,0,0,0-.066-.616,1.161,1.161,0,0,0-.329-.569.779.779,0,0,0-.712-.146,2.233,2.233,0,0,0-1.014.682l.4.234a2.48,2.48,0,0,1,1.068-1.336.867.867,0,0,1,.79-.048A1.16,1.16,0,0,1,578.351,266.768Z" fill="#121b46"/>
            </g>
          </g>
          <g id="Group_60" data-name="Group 60">
            <path id="Path_45" data-name="Path 45" d="M580.92,285.2l-.124-.034a5.248,5.248,0,0,1-3.539-6.1c.914-4.654,2.449-13.02,2.173-15.364-.388-3.3-2.621-12.72-11.36-13.4s-14.079,5.147-15.147,13.594,1.747,17.575,1.747,17.575c-.082,1.324-4.537,5.538-5.852,6.756a.29.29,0,0,0,.115.487c13.218,4.181,28.283-1.421,32.041-2.978A.282.282,0,0,0,580.92,285.2Zm-14.154-7.516c-5.071,0-9.181-4.76-9.181-10.632s4.11-10.633,9.181-10.633,9.18,4.761,9.18,10.633S571.836,277.681,566.766,277.681Z" fill="#121b46"/>
            <g id="Group_59" data-name="Group 59">
              <path id="Path_46" data-name="Path 46" d="M550.4,288.168s14.662-3.3,21.265-11.749" fill="none" stroke="#fff" stroke-miterlimit="10" stroke-width="1.165"/>
              <path id="Path_47" data-name="Path 47" d="M561.079,276.225s-7.282-3.69-5.438-12.915" fill="none" stroke="#fff" stroke-miterlimit="10" stroke-width="1.165"/>
              <path id="Path_48" data-name="Path 48" d="M559.428,260.592s7.72-3.544,14.711,0C574.139,260.592,567,249.231,559.428,260.592Z" fill="#fff"/>
            </g>
          </g>
        </g>
      </g>
      <g id="Group_112" data-name="Group 112">
        <g id="Group_69" data-name="Group 69">
          <g id="Group_65" data-name="Group 65">
            <g id="Group_63" data-name="Group 63">
              <path id="Rectangle_6" data-name="Rectangle 6" d="M20.391,0H205.654a20.39,20.39,0,0,1,20.39,20.39v314.6a20.391,20.391,0,0,1-20.391,20.391H20.391A20.391,20.391,0,0,1,0,334.988V20.391A20.391,20.391,0,0,1,20.391,0Z" transform="translate(287.457 83.38)" fill="#dfdfdf"/>
              <rect id="Rectangle_7" data-name="Rectangle 7" width="52.433" height="3.884" transform="translate(374.262 91.924)" fill="#adadad"/>
              <rect id="Rectangle_8" data-name="Rectangle 8" width="49.714" height="10.098" transform="translate(375.622 418.951)" fill="#adadad"/>
            </g>
            <g id="Group_64" data-name="Group 64">
              <rect id="Rectangle_9" data-name="Rectangle 9" width="215.169" height="306.171" transform="translate(292.894 106.295)" fill="#fff"/>
              <rect id="Rectangle_10" data-name="Rectangle 10" width="215.169" height="11.652" transform="translate(292.894 106.295)" fill="#121b46"/>
            </g>
          </g>
          <g id="Group_68" data-name="Group 68">
            <circle id="Ellipse_7" data-name="Ellipse 7" cx="8.642" cy="8.642" r="8.642" transform="translate(303.381 314.667)" fill="#6db2e3"/>
            <circle id="Ellipse_8" data-name="Ellipse 8" cx="8.642" cy="8.642" r="8.642" transform="translate(303.381 386.617)" fill="#3cdebc"/>
            <circle id="Ellipse_9" data-name="Ellipse 9" cx="8.642" cy="8.642" r="8.642" transform="translate(327.267 314.667)" fill="#6db2e3"/>
            <rect id="Rectangle_11" data-name="Rectangle 11" width="46.024" height="4.466" transform="translate(349.405 316.609)" fill="#bcdffd"/>
            <g id="Group_67" data-name="Group 67">
              <g id="Group_66" data-name="Group 66">
                <rect id="Rectangle_12" data-name="Rectangle 12" width="191.089" height="4.466" transform="translate(304.934 337.582)" fill="#bcdffd"/>
                <rect id="Rectangle_13" data-name="Rectangle 13" width="191.089" height="4.466" transform="translate(304.934 346.71)" fill="#bcdffd"/>
                <rect id="Rectangle_14" data-name="Rectangle 14" width="46.024" height="4.466" transform="translate(304.934 355.837)" fill="#bcdffd"/>
              </g>
            </g>
            <rect id="Rectangle_15" data-name="Rectangle 15" width="46.024" height="4.466" transform="translate(324.16 388.171)" fill="#bcdffd"/>
            <circle id="Ellipse_10" data-name="Ellipse 10" cx="8.642" cy="8.642" r="8.642" transform="matrix(0.231, -0.973, 0.973, 0.231, 301.621, 165.532)" fill="#ff5c5b"/>
            <rect id="Rectangle_16" data-name="Rectangle 16" width="46.024" height="4.466" transform="translate(324.16 152.028)" fill="#bcdffd"/>
            <rect id="Rectangle_17" data-name="Rectangle 17" width="74.183" height="4.466" transform="translate(349.405 324.96)" fill="#bcdffd"/>
          </g>
        </g>
        <g id="Group_111" data-name="Group 111">
          <rect id="Rectangle_18" data-name="Rectangle 18" width="215.169" height="139.821" transform="translate(292.894 170.768)" fill="#ff5c5b"/>
          <g id="Group_110" data-name="Group 110">
            <g id="Group_109" data-name="Group 109" clip-path="url(#clip-path)">
              <g id="Group_75" data-name="Group 75">
                <g id="Group_70" data-name="Group 70">
                  <path id="Path_49" data-name="Path 49" d="M448.4,323.089c-6.917,0-13.906-3.207-19.4-5.727-7.188-3.3-11.81-12.249-10.3-19.954a14.634,14.634,0,0,1,9.826-11.24c.519-.149,1.047-.265,1.575-.381a15.116,15.116,0,0,0,2.32-.636c2.677-1.056,4.773-3.79,5.607-7.315a32.307,32.307,0,0,0,.316-9.411l-.033-.521c-.334-5.39-.5-11.089,1.468-16.32,1.813-4.829,6.3-9.9,12.238-10.348.712-.055,1.428-.04,2.12-.026a14.678,14.678,0,0,0,2.825-.123c4.27-.754,6.99-5.213,9.176-8.795s5.714-8.346,10.74-8.268a8.831,8.831,0,0,1,7.564,5.328,13.112,13.112,0,0,1,.259,9.314c-.29.924-.661,1.866-1.019,2.777-1.136,2.883-2.208,5.607-1.129,8.142a10.738,10.738,0,0,0,2.269,3.021c.335.355.671.71.989,1.076a16.85,16.85,0,0,1,1.458,19.379c-2.437,3.859-6.371,6.544-10.176,9.141-4.8,3.277-9.334,6.371-10.861,11.551-.792,2.69-.6,5.483-.388,8.44a29.276,29.276,0,0,1-.136,7.7,16.614,16.614,0,0,1-10.062,11.822A18.778,18.778,0,0,1,448.4,323.089Zm4.781-80.726c-.363,0-.719.008-1.077.035-5.425.408-9.552,5.113-11.235,9.6-1.882,5.015-1.721,10.574-1.4,15.838l.033.521a33.071,33.071,0,0,1-.346,9.751c-.921,3.9-3.281,6.936-6.312,8.13a16.243,16.243,0,0,1-2.5.692c-.5.11-1.008.22-1.5.362h0a13.444,13.444,0,0,0-9,10.343c-1.386,7.087,3.031,15.637,9.647,18.673,7.236,3.32,17.155,7.867,25.71,4.331a15.438,15.438,0,0,0,9.365-10.97,28.438,28.438,0,0,0,.118-7.39c-.206-2.93-.42-5.959.432-8.852,1.644-5.578,6.563-8.936,11.322-12.184,3.706-2.529,7.539-5.145,9.847-8.8a15.648,15.648,0,0,0-1.354-18c-.306-.352-.63-.7-.954-1.037a11.741,11.741,0,0,1-2.495-3.366c-1.266-2.974-.055-6.05,1.116-9.025.352-.892.715-1.814.994-2.7a11.958,11.958,0,0,0-.212-8.484,7.642,7.642,0,0,0-6.521-4.643c-4.437-.047-7.682,4.361-9.725,7.71-2.308,3.782-5.18,8.49-9.968,9.335a15.859,15.859,0,0,1-3.051.141C453.8,242.369,453.485,242.363,453.179,242.363Z" fill="#ff9f9e"/>
                </g>
                <g id="Group_71" data-name="Group 71">
                  <path id="Path_50" data-name="Path 50" d="M487.43,217.084a3.933,3.933,0,1,1,3.933-3.933A3.937,3.937,0,0,1,487.43,217.084Zm0-6.7a2.768,2.768,0,1,0,2.767,2.767A2.77,2.77,0,0,0,487.43,210.384Z" fill="#ff9f9e"/>
                </g>
                <g id="Group_72" data-name="Group 72">
                  <path id="Path_51" data-name="Path 51" d="M470.1,196.4a1.456,1.456,0,1,1-1.456-1.457A1.456,1.456,0,0,1,470.1,196.4Z" fill="#ff9f9e"/>
                </g>
                <g id="Group_73" data-name="Group 73">
                  <circle id="Ellipse_11" data-name="Ellipse 11" cx="1.893" cy="1.893" r="1.893" transform="translate(311.634 278.547)" fill="#ff9f9e"/>
                </g>
                <g id="Group_74" data-name="Group 74">
                  <path id="Path_52" data-name="Path 52" d="M487.139,290.781a3.641,3.641,0,1,1,3.641-3.641A3.646,3.646,0,0,1,487.139,290.781Zm0-6.117a2.476,2.476,0,1,0,2.476,2.476A2.478,2.478,0,0,0,487.139,284.664Z" fill="#ff9f9e"/>
                </g>
              </g>
              <g id="Group_108" data-name="Group 108">
                <g id="Group_77" data-name="Group 77">
                  <path id="Path_53" data-name="Path 53" d="M368.242,279.906s-11.263,18.643-14.564,34.761h75.93S423.782,286.7,417.18,280.1Z" fill="#121b46"/>
                  <g id="Group_76" data-name="Group 76">
                    <line id="Line_3" data-name="Line 3" x2="53.016" transform="translate(366.397 285.392)" fill="none" stroke="#fff" stroke-miterlimit="10" stroke-width="1.165"/>
                    <path id="Path_54" data-name="Path 54" d="M374.117,285.829s-4.224,12.38-11.943,11.069" fill="none" stroke="#fff" stroke-miterlimit="10" stroke-width="1.165"/>
                    <path id="Path_55" data-name="Path 55" d="M396.838,285.247v22.43l-6.117,6.117v-28.4" fill="none" stroke="#fff" stroke-miterlimit="10" stroke-width="1.165"/>
                    <path id="Path_56" data-name="Path 56" d="M414.024,285.392s-1.02,11.8,8.884,10.341" fill="none" stroke="#fff" stroke-miterlimit="10" stroke-width="1.165"/>
                  </g>
                </g>
                <g id="Group_97" data-name="Group 97">
                  <g id="Group_88" data-name="Group 88">
                    <g id="Group_87" data-name="Group 87">
                      <g id="Group_80" data-name="Group 80">
                        <g id="Group_78" data-name="Group 78">
                          <path id="Path_57" data-name="Path 57" d="M455.6,203.307l-9.367.282s-3.03,13.783-7.179,32.168c-1.371-2.178-2.656-4.24-3.84-6.165A159.851,159.851,0,0,1,420.4,252.759c3.127,5.307,6.722,11.1,10.8,17.137l.169.25c7.239,10.684,23.94,6.758,25.642-6.034.02-.146.039-.291.058-.437C459.6,244.514,460.03,223.5,455.6,203.307Z" fill="#f7bb8b"/>
                          <path id="Path_58" data-name="Path 58" d="M450.064,189.443c-.214-2.441-.531-4.987-.927-4.9-.657.136-1.046,1.842-1.334,4A15.5,15.5,0,0,1,450.064,189.443Z" fill="#f28766"/>
                          <path id="Path_59" data-name="Path 59" d="M454.022,192.441c-.039-2.622-.227-7.752-1.1-8.222-.679-.367-1.431,2.908-1.944,5.724A11.805,11.805,0,0,1,454.022,192.441Z" fill="#f28766"/>
                          <path id="Path_60" data-name="Path 60" d="M460.553,188.97c-.622.447-1.672,1.714-3.015,5.268,0,0,.912-8.013.005-9.151-.719-.9-2.5,5.195-3.21,7.766a6.029,6.029,0,0,1,.988,1.932,7.178,7.178,0,0,1,.251,2.794,6.124,6.124,0,0,1-3.952,7.645,8.178,8.178,0,0,1-3.8.319,6.326,6.326,0,0,1-3,.283,27.464,27.464,0,0,0,2.643,3.839l6.523-1.245s7.141-13.477,7.226-19.119A.4.4,0,0,0,460.553,188.97Z" fill="#f7bb8b"/>
                        </g>
                        <g id="Group_79" data-name="Group 79">
                          <path id="Path_61" data-name="Path 61" d="M437.667,250.291l1.456-14.468-3.3,5.535" fill="none" stroke="#121b46" stroke-miterlimit="10" stroke-width="1.165"/>
                        </g>
                      </g>
                      <g id="Group_86" data-name="Group 86">
                        <g id="Group_85" data-name="Group 85">
                          <g id="Group_83" data-name="Group 83">
                            <path id="Path_62" data-name="Path 62" d="M440.982,185.6l11.244,21.05a2.188,2.188,0,0,0,2.522,1.073c2.074-.577,5.36-1.89,6.171-4.537,1.209-3.946-8.939-23.607-8.939-23.607Z" fill="#dfdfdf"/>
                            <path id="Path_63" data-name="Path 63" d="M428.9,158.268l-3.8,1.137a2.4,2.4,0,0,0-1.683,2.658,86.581,86.581,0,0,0,6.358,20.953,2.4,2.4,0,0,0,2.891,1.349l3.366-1.007Z" fill="#28ad92"/>
                            <g id="Group_81" data-name="Group 81">
                              <path id="Path_64" data-name="Path 64" d="M447.614,148.1l-17.9,5.354c-2.631.788-2.53,8.9.227,18.112s7.125,16.048,9.757,15.261l17.9-5.354Z" fill="#35c4a6"/>
                              <path id="Path_65" data-name="Path 65" d="M457.37,163.364c2.757,9.215,2.859,17.324.227,18.111s-7-6.045-9.756-15.261-2.859-17.324-.227-18.112S454.613,154.148,457.37,163.364Z" fill="#3cdebc"/>
                            </g>
                            <path id="Path_66" data-name="Path 66" d="M481.373,126.564,448.22,152.139l.112,2.276a49.924,49.924,0,0,0,7.9,24.509h0l41.32.246Z" fill="#dfdfdf"/>
                            <path id="Path_67" data-name="Path 67" d="M503.253,148.742c4.4,14.694,2.528,28.231-4.173,30.236-5.19,1.552-11.759-4.267-16.5-13.8a58.191,58.191,0,0,1-3.6-9.176,58.786,58.786,0,0,1-1.919-8.744c-1.516-10.986.758-19.9,6.094-21.495C489.861,123.758,498.858,134.048,503.253,148.742Z" fill="#c4c4c4"/>
                            <path id="Path_68" data-name="Path 68" d="M489.564,152.838c2.73,9.126,3.044,17.8,1.283,23.553-4.628-3.838-9.132-11.263-11.862-20.388s-3.045-17.809-1.283-23.556C482.329,136.283,486.834,143.71,489.564,152.838Z" fill="#919191"/>
                            <g id="Group_82" data-name="Group 82">
                              <path id="Path_69" data-name="Path 69" d="M489.716,146.256l3.589,12-10.725,6.925a58.191,58.191,0,0,1-3.6-9.176,58.786,58.786,0,0,1-1.919-8.744Z" fill="#ebebeb"/>
                              <path id="Path_70" data-name="Path 70" d="M494.247,151.436c.991,3.313.57,6.365-.941,6.817s-3.539-1.867-4.53-5.18-.57-6.365.941-6.817S493.256,148.123,494.247,151.436Z" fill="#35c4a6"/>
                            </g>
                          </g>
                          <g id="Group_84" data-name="Group 84">
                            <path id="Path_71" data-name="Path 71" d="M451.552,150.183s1.36,19.226,10.2,28.644" fill="none" stroke="#121b46" stroke-miterlimit="10" stroke-width="1.165"/>
                            <line id="Line_4" data-name="Line 4" y1="4.466" x2="14.953" transform="translate(437.085 178.924)" fill="none" stroke="#121b46" stroke-miterlimit="10" stroke-width="1.165"/>
                            <path id="Path_72" data-name="Path 72" d="M492.722,151.543c.417,1.719.269,3.231-.33,3.377s-1.424-1.131-1.841-2.851-.268-3.232.331-3.377S492.3,149.823,492.722,151.543Z" fill="none" stroke="#121b46" stroke-miterlimit="10" stroke-width="1.165"/>
                            <path id="Path_73" data-name="Path 73" d="M484.177,126.88a18.609,18.609,0,0,1,10.39,7.282c3.884,5.826,12.234,22.236,9.807,34.373s-9.322,9.127-9.322,9.127" fill="none" stroke="#121b46" stroke-miterlimit="10" stroke-width="1.165"/>
                          </g>
                        </g>
                        <path id="Path_74" data-name="Path 74" d="M445.726,207.908s-3.883-8.545-3.5-10.487,4.806-6.7,6.894-5.923-1.117,6.8-1.117,6.8,5.2,6.312,4.612,9.516S445.726,207.908,445.726,207.908Z" fill="#f7bb8b"/>
                      </g>
                    </g>
                    <path id="Path_75" data-name="Path 75" d="M407.816,201.026s16.937,8.97,19.85,12.465,10.681,20,10.681,20l-16.895,22.721S403.408,229.315,407.816,201.026Z" fill="#fdb32c"/>
                  </g>
                  <g id="Group_92" data-name="Group 92">
                    <g id="Group_89" data-name="Group 89">
                      <path id="Path_76" data-name="Path 76" d="M411.178,206.916a5.53,5.53,0,0,1-.832-3.468,13.587,13.587,0,0,1-2.577-2.39c-.3-1.08-.992-3.716-1.513-6.689a31.34,31.34,0,0,1-.557-7.875v-.01a6.812,6.812,0,0,1,.777-2.833l-25.738-14.473c.019.086.029.163.048.25.408,2.389,3.51,21.14.328,31.086a18.737,18.737,0,0,1-7.269,1.626,13.213,13.213,0,0,0-8.614,3.424c-2.5,2.352-4.724,6.31-4.764,12.908,2.356.294,4.71.757,7.058,1.18,7.021,1.262,14.033,2.605,21.071,3.771,9.074,1.5,18.384,1.831,27.562,2.851C415.758,219.438,414.415,212.346,411.178,206.916Z" fill="#f7bb8b"/>
                      <path id="Path_77" data-name="Path 77" d="M406.256,194.369c-13.993,1.767-21.081-14.944-21.34-15.568a16.507,16.507,0,0,0,9.988,7.165,27.417,27.417,0,0,0,10.708.547c.029-.01.058-.01.087-.019A31.34,31.34,0,0,0,406.256,194.369Z" fill="#eba771"/>
                    </g>
                    <g id="Group_91" data-name="Group 91">
                      <path id="Path_78" data-name="Path 78" d="M380.477,200.286s16.506,18.254,21.361,15.341,6.079-14.045,6.079-14.045,16.642,14.434,18.972,19.094,2.137,13.788-3.689,28.159-3.641,33.79-3.641,33.79H366.3a40.233,40.233,0,0,0,3.107-20.2c-1.359-10.875-14.176-45.637-14.176-45.637S352.707,200.868,380.477,200.286Z" fill="#fdb32c"/>
                      <g id="Group_90" data-name="Group 90">
                        <path id="Path_79" data-name="Path 79" d="M379.991,202.228s13.205,16.8,21.459,15.536,7.476-15.828,7.476-15.828" fill="none" stroke="#121b46" stroke-miterlimit="10" stroke-width="1.165"/>
                        <path id="Path_80" data-name="Path 80" d="M418.415,223.719a33.257,33.257,0,0,0,1.406,4.1c1.278,3.059,3.023,5.953,3.778,9.181,1.39,5.943-.744,12.081-2.848,17.81" fill="none" stroke="#121b46" stroke-miterlimit="10" stroke-width="1.165"/>
                        <path id="Path_81" data-name="Path 81" d="M393.486,254.256a29.656,29.656,0,0,1,11.461.981" fill="none" stroke="#121b46" stroke-miterlimit="10" stroke-width="1.165"/>
                      </g>
                    </g>
                  </g>
                  <g id="Group_96" data-name="Group 96">
                    <g id="Group_94" data-name="Group 94">
                      <g id="Group_93" data-name="Group 93">
                        <path id="Path_82" data-name="Path 82" d="M349.712,249.514c-1.087-1.016-2.187-2.017-3.267-3.041-5.008-4.746-10.177-9.271-15.136-14q-2.071,2.25-4.2,4.646c-3.2,3.613-6.463,7.471-9.718,11.554a14.825,14.825,0,0,0-.409,17.941c2.585,3.574,5.313,7.122,8.187,10.6a159.3,159.3,0,0,0,28.869,27.64l6.8-6.435s-9.537-17.027-20.975-37.878C343.228,256.753,346.536,253.047,349.712,249.514Z" fill="#f7bb8b"/>
                        <path id="Path_83" data-name="Path 83" d="M353.582,302.927s3.611,14.819,7.294,19.094a.4.4,0,0,0,.707-.185c.168-.747.112-2.392-1.244-5.941,0,0,4.639,6.6,6.073,6.845s-3.273-8.971-3.273-8.971,6.005,6.859,7.3,6.555-4.432-8.848-4.432-8.848,6.6,6.71,7.054,6.092c1.145-1.538-7.861-11.213-6.744-12.051.988-.742,3.961.6,5.357,1.554a.552.552,0,0,0,.827-.212c.31-.635.5-1.729-.9-2.824a29.836,29.836,0,0,0-13.971-6.37Z" fill="#f7bb8b"/>
                      </g>
                      <line id="Line_5" data-name="Line 5" x2="4.466" y2="4.466" transform="translate(335.423 256.02)" fill="none" stroke="#121b46" stroke-miterlimit="10" stroke-width="1.165"/>
                    </g>
                    <g id="Group_95" data-name="Group 95">
                      <path id="Path_84" data-name="Path 84" d="M326.684,236.406l19.42,17.866,24.469-25.245s1.586-26.2-3.663-26.675C359.115,201.645,334.064,225.726,326.684,236.406Z" fill="#fdb32c"/>
                      <path id="Path_85" data-name="Path 85" d="M362.319,237.474l9.9-9.322-7.185,17.963Z" fill="#121b46"/>
                    </g>
                  </g>
                </g>
                <g id="Group_107" data-name="Group 107">
                  <g id="Group_106" data-name="Group 106">
                    <path id="Path_86" data-name="Path 86" d="M419.424,163.024c-.288-7.587-1.21-15.4-3.822-22.108-3.362-8.644-19.208-12.005-30.253-2.4-5.133,4.461-6.214,12.549-5.909,19.933a3.949,3.949,0,0,0-.662-.27c-2.249-.561-4.507,1.134-5.18,3.248a6.085,6.085,0,0,0,.788,5.069,7.658,7.658,0,0,0,3.482,2.909,9.816,9.816,0,0,0,3,.3,22.327,22.327,0,0,0,7.357,12.521,20.168,20.168,0,0,0,17.162,4.341c4.783-.989,11.851-4.052,13.609-9.018a12.555,12.555,0,0,0,.518-4.062c.01-.317.01-.634.01-.951C419.549,169.468,419.549,166.261,419.424,163.024Z" fill="#f7bb8b"/>
                    <g id="Group_105" data-name="Group 105">
                      <g id="Group_98" data-name="Group 98">
                        <path id="Path_87" data-name="Path 87" d="M419.52,172.532a4.908,4.908,0,1,1-1.258-9.652,4.647,4.647,0,0,1,1.162.144C419.549,166.261,419.549,169.468,419.52,172.532Z" fill="#eba771"/>
                        <path id="Path_88" data-name="Path 88" d="M388.914,167.787a4.91,4.91,0,1,0,4.91-4.91A4.91,4.91,0,0,0,388.914,167.787Z" fill="#eba771"/>
                      </g>
                      <g id="Group_102" data-name="Group 102">
                        <g id="Group_99" data-name="Group 99">
                          <path id="Path_89" data-name="Path 89" d="M410.767,158.259c0,1.6.634,2.9,1.418,2.9s1.418-1.3,1.418-2.9-.635-2.9-1.418-2.9S410.767,156.656,410.767,158.259Z" fill="#121b46"/>
                          <path id="Path_90" data-name="Path 90" d="M415.079,154.438a4.174,4.174,0,0,1-.959,1.239,3.366,3.366,0,0,1-1.484.767l-.024.006a.525.525,0,1,1-.235-1.023.5.5,0,0,1,.138-.013,3.063,3.063,0,0,0,2.275-1.152l.01-.012a.169.169,0,0,1,.279.188Z" fill="#121b46"/>
                        </g>
                        <g id="Group_101" data-name="Group 101">
                          <g id="Group_100" data-name="Group 100">
                            <path id="Path_91" data-name="Path 91" d="M394.785,157.867a3.066,3.066,0,0,0,2.275,1.152.525.525,0,1,1,.041,1.049.547.547,0,0,1-.135-.013l-.027-.006a3.357,3.357,0,0,1-1.484-.768,4.148,4.148,0,0,1-.959-1.239.169.169,0,0,1,.279-.187Z" fill="#121b46"/>
                          </g>
                          <path id="Path_92" data-name="Path 92" d="M396.674,159.092a4.744,4.744,0,0,1,1.624-1.144,4.158,4.158,0,0,1,1.927-.338,4.772,4.772,0,0,1,1.829.54c.282.137.527.326.79.487l.7.579a.314.314,0,0,1-.379.5l-.031-.021-.685-.481c-.245-.123-.476-.277-.728-.374a3.937,3.937,0,0,0-1.529-.333,3.189,3.189,0,0,0-1.46.374,3.724,3.724,0,0,0-1.152.938l-.029.036a.583.583,0,1,1-.911-.729C396.653,159.115,396.664,159.1,396.674,159.092Z" fill="#121b46"/>
                        </g>
                      </g>
                      <g id="Group_103" data-name="Group 103">
                        <path id="Path_93" data-name="Path 93" d="M411.368,167.042a6.942,6.942,0,0,1-2.138,2.431,5.416,5.416,0,0,1-3.174,1.053,5.492,5.492,0,0,1-3.16-1.09,10.349,10.349,0,0,1-1.224-1.089c-.334-.43-.66-.86-.952-1.3.438.321.837.662,1.239.993.446.271.845.6,1.3.832a5.86,5.86,0,0,0,2.8.8,5.712,5.712,0,0,0,2.816-.76A12.221,12.221,0,0,0,411.368,167.042Z" fill="#121b46"/>
                        <path id="Path_94" data-name="Path 94" d="M407.537,172.19a2.328,2.328,0,0,1-1.493.505,2.444,2.444,0,0,1-1.494-.505,7.709,7.709,0,0,0,1.5.167A6.463,6.463,0,0,0,407.537,172.19Z" fill="#121b46"/>
                      </g>
                      <g id="Group_104" data-name="Group 104">
                        <path id="Path_95" data-name="Path 95" d="M402.5,148.19a3.366,3.366,0,0,0-2.2-.813,6.768,6.768,0,0,0-2.34.332,5.717,5.717,0,0,0-2.06,1.18,6,6,0,0,0-1.407,1.8.679.679,0,0,0,1.052.83l.058-.053a8.368,8.368,0,0,1,1.4-1.112,4.9,4.9,0,0,1,1.546-.635,5.991,5.991,0,0,1,1.676-.162,6.428,6.428,0,0,0,1.79-.1l.18-.044a.711.711,0,0,0,.3-1.222Z" fill="#121b46"/>
                        <path id="Path_96" data-name="Path 96" d="M409.588,148.19a3.362,3.362,0,0,1,2.2-.813,6.768,6.768,0,0,1,2.34.332,5.722,5.722,0,0,1,2.061,1.18,5.979,5.979,0,0,1,1.406,1.8.679.679,0,0,1-1.052.83l-.057-.053a8.374,8.374,0,0,0-1.4-1.112,4.893,4.893,0,0,0-1.546-.635,5.98,5.98,0,0,0-1.675-.162,6.433,6.433,0,0,1-1.791-.1l-.179-.044a.71.71,0,0,1-.3-1.222Z" fill="#121b46"/>
                      </g>
                      <path id="Path_97" data-name="Path 97" d="M406.372,153.824c.251,1.093.436,2.18.638,3.256s.408,2.144.713,3.161c.071.256.15.507.241.749a2.684,2.684,0,0,1,.246.937,1.89,1.89,0,0,1-1.018,1.722,2.288,2.288,0,0,1-1.851.1,4.531,4.531,0,0,1-1.466-.877c1.018.382,2.207.681,2.924.14a1.12,1.12,0,0,0,.5-1.035,2.079,2.079,0,0,0-.213-.645c-.109-.271-.2-.545-.287-.82a15.434,15.434,0,0,1-.533-3.34A17.749,17.749,0,0,1,406.372,153.824Z" fill="#121b46"/>
                      <path id="Path_98" data-name="Path 98" d="M375.376,162.995a2.418,2.418,0,0,1,.756-1.921,2.251,2.251,0,0,1,2.191-.211,4.129,4.129,0,0,1,1.768,1.29,6.608,6.608,0,0,1,1.1,1.854.484.484,0,0,1-.793.521l-.032-.032a4.269,4.269,0,0,0-1.626-1.15.753.753,0,0,0-.683.075,1.812,1.812,0,0,0-.487.753c-.248.637-.4,1.381.146,1.676a3.636,3.636,0,0,0,2.149.147,3.379,3.379,0,0,1-2.361.317,1.331,1.331,0,0,1-.834-1.113,3.454,3.454,0,0,1,.138-1.285,2.419,2.419,0,0,1,.687-1.187,1.625,1.625,0,0,1,1.485-.306,4.662,4.662,0,0,1,2.116,1.424l-.825.488a5.191,5.191,0,0,0-2.229-2.789,1.821,1.821,0,0,0-1.651-.1A2.42,2.42,0,0,0,375.376,162.995Z" fill="#121b46"/>
                    </g>
                  </g>
                  <path id="Path_99" data-name="Path 99" d="M417.046,143.431a15.981,15.981,0,0,0-3.692-7.362c-4.113-4.5-10.685-5.721-16.767-5.861-4.1-.1-8.319.2-12.013,1.993-5.826,2.808-9.333,8.762-13.609,13.609A46.91,46.91,0,0,1,346.473,160.4c-7.7,1.771-15.707,1.55-23.6,2.26s-16.021,2.517-22.068,7.621c-4.708,3.961-7.935,9.752-13.423,12.537-3.041,1.561-6.514,2.027-9.916,2.482l-5.569.722c-8.192,1.084-12.829,10.242-8.518,17.3.023.047.058.093.082.152,2.831,4.544,7.387,8.074,9.111,13.154,1.573,4.649.49,9.741.863,14.635.606,7.69,4.975,14.821,11.022,19.61s13.644,7.364,21.311,8.2a52.764,52.764,0,0,0,8.471.256,14.758,14.758,0,0,1,3.146-10.661c3.263-4.078,6.525-7.935,9.718-11.559a2.35,2.35,0,0,1,.163-.175l-.583-.536c7.376-10.673,32.427-34.757,40.222-34.046a11.683,11.683,0,0,1,5.232-.058,13.566,13.566,0,0,1,1.7-.163,18.913,18.913,0,0,0,7.271-1.608c3.087-9.648.268-27.557-.292-30.831a9.785,9.785,0,0,1-2.959-.291,7.633,7.633,0,0,1-3.473-2.913,6.067,6.067,0,0,1-.792-5.069,4.7,4.7,0,0,1,4.672-3.316,22.171,22.171,0,0,0,3.513,4.544,2.182,2.182,0,0,0,1.528.814c.774-.041,1.269-.814,1.632-1.5.466-.878,1.275-1.783,1.741-2.662a17.989,17.989,0,0,0,14.666-6.416,35.3,35.3,0,0,0,2.841-4.216l3.531-5.823c2.614,2.914,6.737,8.177,10.623,8.644A25.664,25.664,0,0,0,417.046,143.431Z" fill="#121b46"/>
                </g>
              </g>
            </g>
          </g>
        </g>
      </g>
      <g id="Group_143" data-name="Group 143">
        <g id="Group_114" data-name="Group 114">
          <g id="Group_113" data-name="Group 113">
            <path id="Path_101" data-name="Path 101" d="M231.1,406.953c-2.015.729-3.667,1.324-4.825,1.742h0a15.187,15.187,0,0,0-6.409-1.689c-.88-.05-1.158.421-1.245.76a.277.277,0,0,0,.243.349c.831.1,2.382.574,2.515,1.174.151.678-6.345,1.341-6.409,2.29-.025.381,4.612.035,4.612.035s-4.9,1.314-4.51,1.852,4.853-.057,4.853-.057-4.733,1.9-4.113,2.277,4.484-.567,4.484-.567a5.68,5.68,0,0,0-2.376,1.81.2.2,0,0,0,.207.3c1.716-.243,4.73-2.016,6.765-3.323v.007l.011.07a69.888,69.888,0,0,0,8.177.253C232.325,411.844,231.681,409.412,231.1,406.953Z" fill="#f28766"/>
            <path id="Path_102" data-name="Path 102" d="M260.8,375.592,248.86,400.207l-22.138,7.428.874,7.428s26.216-1.6,30.44-5.826,12.234-24.615,12.526-26.654S260.8,375.592,260.8,375.592Z" fill="#fdb32c"/>
          </g>
          <path id="Path_103" data-name="Path 103" d="M268.158,372.048s-5.534,5.656-5.316,10.1.583,28.838.583,28.838l-2.258,1.093-4.66-1.675s2.257-25.78,2.33-28.547.874-6.991,3.5-8.156A26.461,26.461,0,0,1,268.158,372.048Z" fill="#fdb32c"/>
        </g>
        <g id="Group_122" data-name="Group 122">
          <g id="Group_116" data-name="Group 116">
            <g id="Group_115" data-name="Group 115">
              <path id="Path_104" data-name="Path 104" d="M196.422,421.4c-9.834,1.248-16.556,2.16-16.556,2.16l-2.178,9.375,19.7.225C196.883,429.263,196.58,425.342,196.422,421.4Z" fill="#f08d6e"/>
            </g>
            <path id="Path_105" data-name="Path 105" d="M181.232,423.133a18.518,18.518,0,0,1-2.956-4.1c-.859-1.907-.382-10.491-4.674-9.918v19.837l1.765,1.764h-1.955v3.958s4.387,1.526,7.057.1c0,0-2.575-2.861-1.43-6.008S181.232,423.133,181.232,423.133Z" fill="#fdb32c"/>
            <path id="Path_106" data-name="Path 106" d="M191.33,420.743v13.3h94.379s-3.3-19.031-10.972-21.459S191.33,420.743,191.33,420.743Z" fill="#ff5c5b"/>
          </g>
          <g id="Group_121" data-name="Group 121">
            <g id="Group_118" data-name="Group 118">
              <g id="Group_117" data-name="Group 117">
                <path id="Path_107" data-name="Path 107" d="M198.817,418.514l-13.756,7.659-1.111,6.561,3.156,3.69,3.024-1a1.291,1.291,0,0,1,.151-.058c.985-.408,6.68-2.755,14.69-6.091C202.81,425.751,200.734,422.176,198.817,418.514Z" fill="#fa9778"/>
              </g>
              <path id="Path_108" data-name="Path 108" d="M185.47,424.917a18.515,18.515,0,0,1-4.509-2.288c-1.638-1.3-5.152-9.146-8.7-6.669l9.1,17.626,2.377.759-1.737.9,1.816,3.516s4.6-.656,6.315-3.153c0,0-3.6-1.36-4.028-4.682S185.47,424.917,185.47,424.917Z" fill="#fdb32c"/>
            </g>
            <g id="Group_120" data-name="Group 120">
              <path id="Path_109" data-name="Path 109" d="M191.184,421.617l5.535,11.36,34.809-13.836s40.053,22.284,50.831,18.06,11.361-24.906,6.991-27.382-28.207.826-28.207.826l-1.214,1.068s-23.74-10.05-29.42-9.759S191.184,421.617,191.184,421.617Z" fill="#ff5c5b"/>
              <g id="Group_119" data-name="Group 119">
                <path id="Path_110" data-name="Path 110" d="M197.156,432.54l34.518-13.545-1.893-2.33" fill="none" stroke="#121b46" stroke-miterlimit="10" stroke-width="1.165"/>
                <line id="Line_6" data-name="Line 6" x1="32.042" y1="15.002" transform="translate(231.674 418.995)" fill="none" stroke="#121b46" stroke-miterlimit="10" stroke-width="1.165"/>
                <line id="Line_7" data-name="Line 7" x2="9.467" y2="5.098" transform="translate(260.075 411.858)" fill="none" stroke="#121b46" stroke-miterlimit="10" stroke-width="1.165"/>
                <line id="Line_8" data-name="Line 8" x1="8.593" y1="1.456" transform="translate(263.425 413.606)" fill="none" stroke="#121b46" stroke-miterlimit="10" stroke-width="1.165"/>
              </g>
            </g>
          </g>
        </g>
        <g id="Group_131" data-name="Group 131">
          <g id="Group_124" data-name="Group 124">
            <g id="Group_123" data-name="Group 123">
              <path id="Path_111" data-name="Path 111" d="M289.109,374.221a6.5,6.5,0,0,0-4.239-1.684,9.226,9.226,0,0,1-3.563-.795c-1.576-4.89-.054-14.127.147-15.3.01-.043.014-.08.024-.123l-12.667,7.123a3.347,3.347,0,0,1,.383,1.394v0a15.4,15.4,0,0,1-.274,3.876c-.258,1.47-.6,2.768-.746,3.295-1.031,1.249-2.4,1.894-4.225,2.884a6.46,6.46,0,0,1-.1,1.473c-.544,2.949.417,7.08.281,10.144-.158,3.573-.276,7.111-.247,10.688.037,4.452.225,8.7.544,12.995h24.011c-.689-6.4.939-15.919,2.736-26.415C292.072,378.528,290.7,375.719,289.109,374.221Z" fill="#fa9778"/>
              <path id="Path_112" data-name="Path 112" d="M268.92,368.712c6.886.87,10.374-7.354,10.5-7.661a8.126,8.126,0,0,1-4.916,3.526,13.492,13.492,0,0,1-5.269.269c-.015-.005-.029-.005-.043-.01A15.4,15.4,0,0,1,268.92,368.712Z" fill="#fa7c55"/>
            </g>
            <path id="Path_113" data-name="Path 113" d="M268.1,372.262s-2.687,5.563-.745,6.826,14.08-7.38,14.08-7.38,6.6.777,8.447,5.438-.777,33.5-.777,33.5-22.332,1.359-27.964,0c0,0,.1-14.274-.582-18.74s-.267-12.016,1.116-15.075C262.4,375.235,268.1,372.262,268.1,372.262Z" fill="#fff"/>
          </g>
          <g id="Group_130" data-name="Group 130">
            <g id="Group_125" data-name="Group 125">
              <path id="Path_114" data-name="Path 114" d="M281.631,371.368s-10.341,4.807-9.322,10.05,5.535,57.239,5.535,57.239,13.545.437,18.643-2.184-6.409-38.16-5.826-41.51,3.641-18.351-.728-21.119A14.9,14.9,0,0,0,281.631,371.368Z" fill="#fdb32c"/>
              <path id="Path_115" data-name="Path 115" d="M278.524,433.657s9.224,5.34,18.448-.1" fill="none" stroke="#121b46" stroke-miterlimit="10" stroke-width="1.165"/>
            </g>
            <g id="Group_129" data-name="Group 129">
              <g id="Group_126" data-name="Group 126">
                <rect id="Rectangle_19" data-name="Rectangle 19" width="2.061" height="11.97" transform="matrix(-0.71, 0.705, -0.705, -0.71, 246.17, 384.35)" fill="#121b46"/>
                <path id="Path_116" data-name="Path 116" d="M240.049,386.54s.466.875.818,1.038a17.9,17.9,0,0,0,2.229.588h0c.082.067,1.74,1.474,4.216,3.511q1.155-1.547,2.371-3.089c.547-.7,1.074-1.412,1.6-2.128-1.092-.5-2.008-.914-2.71-1.235L247,383.995c-.709-.883-2.76-4.2-3.719-4.131-1.158.085-1.088.536-1.088.536s1.794,2.292,1.39,3.2c-.382.859-4.306-3.416-4.306-3.416l-1.045-.828s-.18,2.395.68,3.2a2.32,2.32,0,0,0,.437,2.306S239.388,386.15,240.049,386.54Z" fill="#fa9778"/>
              </g>
              <g id="Group_128" data-name="Group 128">
                <path id="Path_117" data-name="Path 117" d="M280.611,375.155l-7.865,19.663-25.2-10.778s-4.369,5.534-3.932,5.68,22.721,21.847,32.042,20.245,15.585-28.984,15.585-28.984Z" fill="#fdb32c"/>
                <g id="Group_127" data-name="Group 127">
                  <path id="Path_118" data-name="Path 118" d="M275.319,410.062a7.2,7.2,0,0,0,4.661-2.816c1.845-2.524,8.448-15.924,8.448-15.924S284.835,414.529,275.319,410.062Z" fill="#121b46"/>
                  <path id="Path_119" data-name="Path 119" d="M276.679,396.663,272.7,394.72l2.913-.777" fill="none" stroke="#121b46" stroke-miterlimit="10" stroke-width="1.165"/>
                  <line id="Line_9" data-name="Line 9" x2="10.292" y2="7.962" transform="translate(250.657 395.983)" fill="none" stroke="#121b46" stroke-miterlimit="10" stroke-width="1.165"/>
                  <line id="Line_10" data-name="Line 10" x2="5.049" y2="2.33" transform="translate(255.123 387.147)" fill="none" stroke="#121b46" stroke-miterlimit="10" stroke-width="1.165"/>
                  <path id="Path_120" data-name="Path 120" d="M276.97,379.962s2.136-6.6,6.991-6.409" fill="none" stroke="#121b46" stroke-miterlimit="10" stroke-width="1.165"/>
                </g>
              </g>
            </g>
          </g>
        </g>
        <g id="Group_142" data-name="Group 142">
          <g id="Group_141" data-name="Group 141">
            <path id="Path_121" data-name="Path 121" d="M284.992,352.5a2.263,2.263,0,0,0-2.55-1.6,1.907,1.907,0,0,0-.326.133c.15-3.634-.381-7.615-2.907-9.811-5.435-4.726-13.234-3.072-14.888,1.182-1.891,4.863-1.987,10.882-1.924,16.03a6.18,6.18,0,0,0,.254,2c.864,2.442,4.347,3.95,6.7,4.439a9.932,9.932,0,0,0,8.443-2.137,10.978,10.978,0,0,0,3.621-6.163,4.827,4.827,0,0,0,1.475-.146,3.771,3.771,0,0,0,1.714-1.431A3,3,0,0,0,284.992,352.5Z" fill="#fa9778"/>
            <g id="Group_140" data-name="Group 140">
              <g id="Group_135" data-name="Group 135">
                <g id="Group_134" data-name="Group 134">
                  <g id="Group_132" data-name="Group 132">
                    <path id="Path_122" data-name="Path 122" d="M266.352,350.942c0,.789-.313,1.429-.7,1.429s-.7-.64-.7-1.429.312-1.429.7-1.429S266.352,350.153,266.352,350.942Z" fill="#121b46"/>
                  </g>
                  <g id="Group_133" data-name="Group 133">
                    <ellipse id="Ellipse_12" data-name="Ellipse 12" cx="0.698" cy="1.429" rx="0.698" ry="1.429" transform="translate(271 349.513)" fill="#121b46"/>
                  </g>
                </g>
              </g>
              <g id="Group_137" data-name="Group 137">
                <g id="Group_136" data-name="Group 136">
                  <path id="Path_123" data-name="Path 123" d="M266.056,355.264a3.413,3.413,0,0,0,1.052,1.2,2.668,2.668,0,0,0,1.562.519,2.708,2.708,0,0,0,1.555-.537,5.138,5.138,0,0,0,.6-.536c.164-.211.324-.423.468-.642-.216.158-.412.326-.61.489-.219.133-.416.3-.638.409a2.871,2.871,0,0,1-1.38.392,2.808,2.808,0,0,1-1.385-.374A6,6,0,0,1,266.056,355.264Z" fill="#121b46"/>
                  <path id="Path_124" data-name="Path 124" d="M267.941,357.8a1.145,1.145,0,0,0,.735.249,1.2,1.2,0,0,0,.735-.249,3.815,3.815,0,0,1-.736.083A3.186,3.186,0,0,1,267.941,357.8Z" fill="#121b46"/>
                </g>
              </g>
              <g id="Group_139" data-name="Group 139">
                <g id="Group_138" data-name="Group 138">
                  <path id="Path_125" data-name="Path 125" d="M270.42,345.987a1.655,1.655,0,0,1,1.081-.4,3.316,3.316,0,0,1,1.152.164,2.794,2.794,0,0,1,1.014.581,2.927,2.927,0,0,1,.692.887.334.334,0,0,1-.517.408l-.029-.026a4.1,4.1,0,0,0-.689-.547,2.412,2.412,0,0,0-.761-.313,3.008,3.008,0,0,0-.824-.08,3.139,3.139,0,0,1-.882-.051l-.088-.021a.35.35,0,0,1-.256-.423A.342.342,0,0,1,270.42,345.987Z" fill="#121b46"/>
                  <path id="Path_126" data-name="Path 126" d="M266.932,345.987a1.655,1.655,0,0,0-1.081-.4,3.316,3.316,0,0,0-1.152.164,2.794,2.794,0,0,0-1.014.581,2.927,2.927,0,0,0-.692.887.334.334,0,0,0,.518.408l.028-.026a4.1,4.1,0,0,1,.689-.547,2.412,2.412,0,0,1,.761-.313,3.008,3.008,0,0,1,.824-.08,3.137,3.137,0,0,0,.882-.051l.088-.021a.349.349,0,0,0,.149-.6Z" fill="#121b46"/>
                </g>
              </g>
              <path id="Path_127" data-name="Path 127" d="M267.267,348.626c-.123.538-.214,1.073-.314,1.6s-.2,1.055-.35,1.556c-.035.126-.074.249-.119.369a1.306,1.306,0,0,0-.121.461.93.93,0,0,0,.5.847,1.122,1.122,0,0,0,.911.048,2.2,2.2,0,0,0,.721-.431c-.5.188-1.086.335-1.439.069a.551.551,0,0,1-.247-.509,1.025,1.025,0,0,1,.105-.318c.053-.133.1-.268.141-.4a7.578,7.578,0,0,0,.262-1.644A8.718,8.718,0,0,0,267.267,348.626Z" fill="#121b46"/>
              <path id="Path_128" data-name="Path 128" d="M284.175,353.139a1.186,1.186,0,0,0-.372-.945,1.106,1.106,0,0,0-1.078-.1,2.029,2.029,0,0,0-.87.635,3.256,3.256,0,0,0-.541.912.239.239,0,0,0,.391.257l.016-.016a2.1,2.1,0,0,1,.8-.566.368.368,0,0,1,.336.037.894.894,0,0,1,.24.37c.122.314.2.68-.072.825a1.789,1.789,0,0,1-1.057.073,1.663,1.663,0,0,0,1.162.155.653.653,0,0,0,.41-.547,1.7,1.7,0,0,0-.068-.633,1.179,1.179,0,0,0-.338-.584.8.8,0,0,0-.731-.15,2.3,2.3,0,0,0-1.041.7l.406.241a2.552,2.552,0,0,1,1.1-1.373.9.9,0,0,1,.812-.049A1.188,1.188,0,0,1,284.175,353.139Z" fill="#121b46"/>
            </g>
          </g>
          <path id="Path_129" data-name="Path 129" d="M285.546,347.29c-.42-1.328-1.06-2.855-2.435-3.088a4.446,4.446,0,0,0-.035-3.693,6.236,6.236,0,0,0-2.249-2.389,10.508,10.508,0,0,0-4.276-1.643,21.014,21.014,0,0,0-7.015.571c-1.2.233-2.7.431-3.9.664a3.073,3.073,0,0,0-4.066.734,6.484,6.484,0,0,0-1.177,4.335,26.321,26.321,0,0,0,2.144,8.739c.077-1.168.212-2.332.382-3.483a8.98,8.98,0,0,1,2.077-3.361,11.193,11.193,0,0,0,11.473,2.605,9.7,9.7,0,0,0,.754,2.745,3.641,3.641,0,0,0,2.375,2.352,1.112,1.112,0,0,0,1.283-.542c.154-.433,1.244-.85,1.242-.806a2.611,2.611,0,0,1,.326-.128,2.248,2.248,0,0,1,2.541,1.6,2.959,2.959,0,0,1-.385,2.494,3.733,3.733,0,0,1-1.713,1.433,4.657,4.657,0,0,1-1.48.151,11.311,11.311,0,0,1-1.4,3.554,4.721,4.721,0,0,0,2.75-.4,6.418,6.418,0,0,0,2.459-3.111,12.2,12.2,0,0,0,1.2-3.356A13.41,13.41,0,0,0,285.546,347.29Z" fill="#121b46"/>
        </g>
      </g>
      <g id="Group_144" data-name="Group 144">
        <path id="Path_130" data-name="Path 130" d="M214.356,199.5a12.216,12.216,0,0,0-9.1-4.485c-4.15-.022-8.541,2.05-12.27.228-5-2.442-5.4-10.3-10.479-12.569-3.54-1.581-7.546.337-11.354,1.061a18.583,18.583,0,0,1-17.621-6.535c-1.585-1.991-2.755-4.315-4.555-6.113a13.648,13.648,0,0,0-13.237-3.071,18.332,18.332,0,0,0-10.634,8.935c-1.768,3.221-3.066,7.226-6.472,8.606-3.9,1.581-8.548-1.231-12.459.321-2.81,1.115-4.379,4.271-4.524,7.291a18.456,18.456,0,0,0,1.024,6.331Z" fill="#e3f2ff"/>
        <path id="Path_131" data-name="Path 131" d="M688.153,249.5a7.317,7.317,0,0,0-4.433-3.986c-2.693-.863-5.651-.66-8.161-2.074-2.811-1.585-5.073-5.147-8.191-4.8-2.5.277-4.308,3.069-6.775,3.628-5.1,1.156-8.5-7.383-13.7-7.387-3.1,0-5.686,3.115-8.787,3.227-4.018.145-6.668-4.493-9.122-8.142-3.635-5.406-9.941-9.909-15.328-7-3.582,1.934-5.412,6.427-7.362,10.376s-4.907,8.05-8.866,8.056c-4.161.006-8.354-4.579-11.979-2.237-1.706,1.1-2.526,3.492-2.516,5.737a16.572,16.572,0,0,0,.8,4.6Z" fill="#e3f2ff"/>
      </g>
    </g>
  </g>
</svg>
