<svg xmlns="http://www.w3.org/2000/svg" width="198.448" height="198.467" viewBox="0 0 198.448 198.467">
  <g id="img_steem-engine-icon_brass" transform="translate(0.018 0.018)">
    <g id="Layer_5" data-name="Layer 5" transform="translate(-0.018 -0.018)">
      <path id="Union_1" data-name="Union 1" d="M87.948,197.817a14.88,14.88,0,0,0-28.251-7.6,99.74,99.74,0,0,1-19.519-11.268,14.876,14.876,0,0,0-20.7-20.666A98.485,98.485,0,0,1,8.219,138.759,14.88,14.88,0,0,0,.646,110.5a98.674,98.674,0,0,1,0-22.544A14.876,14.876,0,0,0,8.243,59.7,99.731,99.731,0,0,1,19.51,40.177,14.88,14.88,0,0,0,40.177,19.471,98.658,98.658,0,0,1,59.7,8.219,14.88,14.88,0,0,0,87.964.646a98.641,98.641,0,0,1,22.54,0,14.876,14.876,0,0,0,28.247,7.6A99.938,99.938,0,0,1,158.27,19.511a14.88,14.88,0,0,0,20.706,20.666,98.581,98.581,0,0,1,11.252,19.531A14.88,14.88,0,0,0,197.8,87.964a98.453,98.453,0,0,1,0,22.556,14.876,14.876,0,0,0-7.6,28.247,99.819,99.819,0,0,1-11.268,19.52,14.88,14.88,0,0,0-20.667,20.706,98.356,98.356,0,0,1-19.531,11.252,14.88,14.88,0,0,0-28.255,7.573,98.162,98.162,0,0,1-22.536,0ZM24.829,99.232a74.4,74.4,0,1,0,74.4-74.4,74.4,74.4,0,0,0-74.4,74.4ZM74.866,155.52l62.278-42.254L99.708,84.943l27.6-40.241A61.336,61.336,0,0,1,74.866,155.52ZM43.775,73.055a61.337,61.337,0,0,1,80.39-29.865L61.776,85.439,99.462,113.27,71.818,154.1A61.337,61.337,0,0,1,43.775,73.055Z" fill="#0048b3"/>
    </g>
  </g>
</svg>
