<svg xmlns="http://www.w3.org/2000/svg" width="301" height="192" viewBox="0 0 301 192" xmlns:xlink="http://www.w3.org/1999/xlink">
  <defs>
    <polygon id="a" points=".132 118.4 162.223 118.4 162.223 .376 .132 .376"/>
  </defs>
  <g fill="none" fill-rule="evenodd">
    <path fill="#E4EEF8" d="M289.230769,102.613333 L234.886787,102.613333 L208.442831,102.613333 C204.806787,102.613333 201.831842,99.6373333 201.831842,96 C201.831842,92.3626667 204.806787,89.3866667 208.442831,89.3866667 L234.886787,89.3866667 L267.553336,89.3866667 C273.916413,89.3866667 279.122567,84.1786667 279.122567,77.8133333 C279.122567,71.448 273.916413,66.24 267.553336,66.24 L229.928545,66.24 L190.262611,66.24 C186.626567,66.24 183.651622,63.264 183.651622,59.6266667 C183.651622,55.9893333 186.626567,53.0133333 190.262611,53.0133333 L229.928545,53.0133333 L235.060325,53.0133333 C241.008563,53.0133333 245.874251,48.14592 245.874251,42.1955733 L245.874251,40.6844267 C245.874251,34.73408 241.008563,29.8666667 235.060325,29.8666667 L51.6433934,29.8666667 C45.6968088,29.8666667 40.8294681,34.73408 40.8294681,40.6844267 L40.8294681,42.1955733 C40.8294681,48.14592 45.6968088,53.0133333 51.6433934,53.0133333 L97.7087648,53.0133333 C101.343156,53.0133333 104.319754,55.9893333 104.319754,59.6266667 C104.319754,63.264 101.343156,66.24 97.7087648,66.24 L75.7321846,66.24 C69.3691077,66.24 64.1629538,71.448 64.1629538,77.8133333 C64.1629538,84.1786667 69.3691077,89.3866667 75.7321846,89.3866667 L91.0977758,89.3866667 C94.732167,89.3866667 97.7087648,92.3626667 97.7087648,96 C97.7087648,99.6373333 94.732167,102.613333 91.0977758,102.613333 L36.5571165,102.613333 L11.5692308,102.613333 C5.20615385,102.613333 0,107.821333 0,114.186667 C0,120.552 5.20615385,125.76 11.5692308,125.76 L61.3483253,125.76 L63.8852923,125.76 C63.4506198,125.76 63.0275165,125.807947 62.6159824,125.88896 C65.6504264,126.485813 67.9593143,129.170827 67.9593143,132.373333 C67.9593143,135.57584 65.6504264,138.260853 62.6159824,138.857707 C63.0275165,138.93872 63.4506198,138.986667 63.8852923,138.986667 L61.3483253,138.986667 L50.4567209,138.986667 C44.1531429,138.986667 38.9965714,144.145067 38.9965714,150.45088 L38.9965714,150.66912 C38.9965714,156.974933 44.1531429,162.133333 50.4567209,162.133333 L270.103525,162.133333 C276.405451,162.133333 281.563675,156.974933 281.563675,150.66912 L281.563675,150.45088 C281.563675,144.145067 276.405451,138.986667 270.103525,138.986667 L258.025248,138.986667 C254.389204,138.986667 251.414259,136.010667 251.414259,132.373333 C251.414259,128.736 254.389204,125.76 258.025248,125.76 L281.16371,125.76 L289.230769,125.76 C295.593846,125.76 300.8,120.552 300.8,114.186667 C300.8,107.821333 295.593846,102.613333 289.230769,102.613333"/>
    <path fill="#100816" d="M75.7242072,17.7976795 C74.9187275,17.7976795 74.2112339,17.2097713 74.0850144,16.3893572 C73.9455086,15.4825836 74.5666415,14.6355973 75.473429,14.4960937 C78.1805053,14.0792436 80.9606561,13.8666667 83.7325029,13.8666667 C84.6509159,13.8666667 85.4730035,14.6090252 85.4730035,15.5274241 C85.4730035,16.4458229 84.8103511,17.1881815 83.8919381,17.1881815 L83.7325029,17.1881815 C81.130056,17.1881815 78.5209658,17.3858116 75.978307,17.7777504 C75.8936071,17.7910364 75.8089072,17.7976795 75.7242072,17.7976795 M100.009837,19.7739808 C99.8387766,19.7739808 99.6643944,19.7490694 99.4933337,19.6926037 C96.9872122,18.8705287 94.3963907,18.2427624 91.7906221,17.8259123 C90.8854954,17.6814264 90.2693449,16.8294579 90.413833,15.9226843 C90.5566603,15.0208931 91.3953558,14.3931268 92.3154296,14.5459164 C95.0939195,14.9909994 97.8558017,15.6602847 100.528002,16.5355038 C101.399913,16.8211541 101.873236,17.7611428 101.587581,18.6313797 C101.358393,19.3322193 100.709027,19.7739808 100.009837,19.7739808 M60.180939,22.7899162 C59.5730924,22.7899162 58.9901576,22.4577648 58.696199,21.8798212 C58.282664,21.0610678 58.6098383,20.0612918 59.4269435,19.6461025 C61.9397082,18.3772838 64.5703885,17.29447 67.2492315,16.4358584 C68.126125,16.1551904 69.059485,16.6384708 69.3384966,17.5087077 C69.6191689,18.3839268 69.1375418,19.3172725 68.2656307,19.5979405 C65.752866,20.4034078 63.2849425,21.4181306 60.9299522,22.6105544 C60.6874778,22.7334505 60.4317173,22.7899162 60.180939,22.7899162 M114.525081,27.2341031 C114.18462,27.2341031 113.842499,27.1294754 113.545219,26.9135769 C111.414434,25.3541257 109.145805,23.9524464 106.805761,22.7483973 C105.990317,22.3298864 105.668125,21.3284497 106.086642,20.5130178 C106.508481,19.7009075 107.506612,19.3737382 108.323717,19.7939099 C110.819874,21.0793361 113.236313,22.5706963 115.506604,24.2314537 C116.247313,24.7728606 116.408409,25.8124947 115.868654,26.5515318 C115.543141,26.9982755 115.038263,27.2341031 114.525081,27.2341031 M46.9461592,32.3525574 C46.5193379,32.3525574 46.0925167,32.1881424 45.768664,31.862634 C45.1209586,31.2116171 45.1242802,30.1603576 45.7753072,29.514323 C47.7682468,27.5313787 49.9355686,25.6912594 52.2158237,24.0454488 C52.9615153,23.5073634 53.9961831,23.6734392 54.5342768,24.4174585 C55.0707097,25.1631386 54.9046314,26.201112 54.1622614,26.7375366 C52.0215121,28.282041 49.9870529,30.0108895 48.1170112,31.869277 C47.7931585,32.191464 47.3696589,32.3525574 46.9461592,32.3525574 M126.044272,38.8062607 C125.529429,38.8062607 125.02289,38.5687724 124.697377,38.1203679 C123.149527,35.9813124 121.420652,33.9502061 119.560575,32.0801932 C118.91287,31.4291763 118.916191,30.3779169 119.565557,29.7318822 C120.216584,29.0825261 121.26786,29.0875084 121.913904,29.7368645 C123.896879,31.7297734 125.737027,33.8937403 127.386184,36.1706387 C127.925939,36.914658 127.759861,37.9542922 127.017491,38.4907168 C126.721871,38.7049545 126.381411,38.8062607 126.044272,38.8062607 M37.2936883,45.5140599 C37.0379277,45.5140599 36.7788456,45.4559334 36.5347105,45.3297158 C35.719266,44.9095442 35.4003957,43.9097683 35.8205738,43.0926756 C37.1060198,40.598218 38.6007245,38.1818159 40.2631683,35.9132213 C40.8079052,35.175845 41.8442338,35.0130908 42.5866038,35.5561585 C43.3256522,36.1008869 43.4850874,37.1388603 42.9436721,37.8795581 C41.3825361,40.0053276 39.9791744,42.2722614 38.7717852,44.6139294 C38.4778266,45.1868907 37.8965525,45.5140599 37.2936883,45.5140599 M133.434756,53.3711032 C132.732245,53.3711032 132.081218,52.9226987 131.853691,52.2201983 C131.04655,49.7124547 130.02849,47.2445691 128.834387,44.8862936 C128.419191,44.0675402 128.746366,43.0677642 129.563471,42.6542357 C130.377255,42.234064 131.382028,42.5645548 131.795563,43.3833082 C133.069384,45.8976949 134.153875,48.5283346 135.015822,51.2004933 C135.296494,52.0740517 134.816528,53.0090581 133.944617,53.2913869 C133.775217,53.3445311 133.604156,53.3711032 133.434756,53.3711032 M32.1967452,61.0222126 C32.1087237,61.0222126 32.0207022,61.0155696 31.93102,61.0022835 C31.0258932,60.8561369 30.4097427,60.0025076 30.5558916,59.0973948 C31.0026422,56.3156261 31.6769202,53.5537865 32.5521528,50.8882709 C32.8394683,50.0163733 33.7778107,49.5380751 34.6497217,49.8287077 C35.519972,50.1160187 35.9932952,51.0543466 35.7076405,51.9262443 C34.8855529,54.4256842 34.2544554,57.0164658 33.8342773,59.6271764 C33.7030754,60.4426083 32.9972426,61.0222126 32.1967452,61.0222126 M135.937556,69.4488957 C135.020804,69.4488957 134.276773,68.7580207 134.276773,67.8396218 C134.276773,67.8147104 134.278434,67.6851714 134.280095,67.6619208 C134.278434,65.1143189 134.077479,62.4886614 133.678891,59.9277735 C133.537725,59.0209999 134.158858,58.1740137 135.063984,58.0328493 C135.979076,57.8966672 136.819432,58.5128082 136.960599,59.4195817 C137.384098,62.1465454 137.6,64.9449216 137.6,67.7333333 C137.6,68.6517322 136.855969,69.4488957 135.937556,69.4488957 M32.160208,77.5550527 C31.3547282,77.5550527 30.6488955,76.9721268 30.5193544,76.1533734 C30.0875508,73.3848908 29.8666667,70.5516387 29.8666667,67.7333333 L29.8683274,67.5207564 C29.8683274,66.6040183 30.6106975,65.859999 31.5291105,65.859999 C32.4458627,65.859999 33.1898935,66.6040183 33.1898935,67.5207564 L33.1882327,67.7731915 C33.1882327,70.3789199 33.3941698,73.0394533 33.8027224,75.6368779 C33.943889,76.5436514 33.3244169,77.3939592 32.4192902,77.5367843 C32.3312687,77.5500704 32.2432472,77.5550527 32.160208,77.5550527 M133.369986,85.6196907 C133.198925,85.6196907 133.026204,85.5931185 132.853482,85.5366528 C131.981571,85.2526633 131.506587,84.3143353 131.792242,83.4424377 C132.609347,80.941337 133.235462,78.3488947 133.650658,75.7398448 C133.795146,74.834732 134.627198,74.2102872 135.550594,74.3614162 C136.457381,74.5059021 137.073532,75.3562099 136.930704,76.2613226 C136.487275,79.0430913 135.821301,81.8065916 134.94773,84.473768 C134.718541,85.1746077 134.069175,85.6196907 133.369986,85.6196907 M37.204006,93.086456 C36.5978202,93.086456 36.0165462,92.7559653 35.7225876,92.1813432 C34.4437847,89.6752603 33.354311,87.047942 32.4857215,84.3708011 C32.2017276,83.4989034 32.6800331,82.5622363 33.5519442,82.2782467 C34.4238553,81.9942572 35.3621977,82.4725554 35.6445308,83.3461138 C36.4583144,85.8555182 37.4813568,88.321743 38.6804421,90.670054 C39.0972987,91.4871466 38.773446,92.4885833 37.9580015,92.9054334 C37.7155272,93.0283295 37.4581058,93.086456 37.204006,93.086456 M125.924695,100.144675 C125.584235,100.144675 125.240453,100.040047 124.946494,99.8258096 C124.204124,99.2844027 124.043028,98.2447685 124.584444,97.5040707 C126.138936,95.3733189 127.537316,93.1047243 128.741383,90.7597349 C129.15824,89.9426422 130.163014,89.6204553 130.976797,90.0389661 C131.792242,90.457477 132.114434,91.4589137 131.695916,92.2743456 C130.415453,94.7737855 128.92407,97.1935091 127.266608,99.4637645 C126.942755,99.9071867 126.436217,100.144675 125.924695,100.144675 M46.8016711,106.29446 C46.3765106,106.29446 45.9513502,106.131705 45.6274975,105.807858 C43.641201,103.821592 41.7927495,101.659286 40.1402704,99.3840481 C39.6005159,98.6433503 39.7665942,97.6037162 40.5073034,97.06397 C41.2496734,96.5242238 42.2876628,96.6886388 42.8257565,97.4309974 C44.3785886,99.5667314 46.1107853,101.594516 47.9758447,103.459547 C48.6252108,104.108903 48.6252108,105.160162 47.9758447,105.807858 C47.651992,106.131705 47.2268315,106.29446 46.8016711,106.29446 M114.367306,111.673653 C113.852464,111.673653 113.344264,111.436165 113.020411,110.98776 C112.482318,110.247062 112.646735,109.207428 113.390766,108.669343 C115.524872,107.119856 117.554349,105.389347 119.42273,103.525977 C120.073757,102.878282 121.125033,102.878282 121.772738,103.529299 C122.418782,104.178655 122.418782,105.229914 121.769416,105.87761 C119.778137,107.862215 117.615798,109.707316 115.340525,111.358109 C115.046567,111.572347 114.704445,111.673653 114.367306,111.673653 M59.9949313,115.903602 C59.7408315,115.903602 59.4834102,115.845476 59.2409358,115.72258 C56.7414574,114.443796 54.3216965,112.955758 52.0464238,111.299983 C51.3057146,110.760236 51.1412971,109.720602 51.6810516,108.978244 C52.2241276,108.237546 53.262117,108.076452 54.0028262,108.614538 C56.1369324,110.169007 58.4088835,111.565704 60.7522484,112.764771 C61.5710144,113.183281 61.8932063,114.183057 61.4763498,114.998489 C61.1807304,115.574772 60.5994563,115.903602 59.9949313,115.903602 M99.8088825,119.077309 C99.1063713,119.077309 98.4570051,118.630566 98.2294779,117.928065 C97.9471448,117.056168 98.4254503,116.11784 99.2973613,115.837172 C101.806804,115.026722 104.271406,114.008678 106.624736,112.809611 C107.443502,112.389439 108.443293,112.718269 108.858489,113.533701 C109.275346,114.352455 108.951493,115.352231 108.134388,115.76742 C105.623284,117.047864 102.994264,118.133999 100.320404,118.997593 C100.149343,119.052398 99.9782824,119.077309 99.8088825,119.077309 M75.5182702,120.957287 C75.4319094,120.957287 75.3438879,120.950644 75.2558664,120.937358 C72.4723941,120.495596 69.7088512,119.831293 67.0416337,118.964378 C66.1697226,118.680388 65.6930778,117.743721 65.9770717,116.870163 C66.2610656,115.999926 67.2010688,115.521628 68.0713191,115.805617 C70.5707976,116.619389 73.1632798,117.242173 75.7773523,117.657362 C76.682479,117.800187 77.3002903,118.652156 77.1558022,119.557268 C77.0262611,120.376022 76.3204284,120.957287 75.5182702,120.957287 M83.7325029,121.6 C82.8157507,121.6 82.0468082,120.857641 82.0468082,119.939243 C82.0468082,119.020844 82.7626057,118.278485 83.6810187,118.278485 L83.7325029,118.278485 C86.3631832,118.278485 89.0071498,118.074212 91.5880066,117.672309 C92.5147235,117.537787 93.3434542,118.152268 93.4846208,119.05738 C93.6257874,119.964154 93.0046545,120.812801 92.0995278,120.953965 C89.3492711,121.382441 86.5342439,121.6 83.7325029,121.6"/>
    <path fill="#100816" d="M154.73262 47.5448157C155.365645 53.1053489 160.384282 57.1004056 165.944816 56.4673804 171.505349 55.8343551 175.500406 50.8140902 174.86738 45.2551843 174.234355 39.6946511 169.215718 35.6995944 163.655184 36.3326196 158.094651 36.9640176 154.099594 41.9842825 154.73262 47.5448157M240.065953 11.278149C240.698978 16.8386822 245.717616 20.833739 251.278149 20.2007137 256.838682 19.5676884 260.833739 14.5474236 260.200714 8.98851767 259.567688 3.42798447 254.549051-.56707231 248.988518.06595298 243.427984.697350956 239.432928 5.71761579 240.065953 11.278149"/>
    <path fill="#100816" d="M264.352681,115.999445 L212.593422,51.3962061 L252.193128,10.9951571 C252.511165,10.6715413 252.506221,10.1491565 252.179945,9.83375427 C251.855317,9.51506664 251.334593,9.52492296 251.014908,9.84689602 L210.904367,50.7670445 C210.892832,50.7785435 210.889536,50.7949707 210.878001,50.8081125 L165.17792,45.911165 C164.744533,45.8635261 164.319386,46.1887846 164.271598,46.6388898 C164.222162,47.0906377 164.550086,47.4963895 165.001599,47.5440284 L211.37895,52.5148983 L263.065703,117.026145 C263.227193,117.228199 263.467781,117.333333 263.708368,117.333333 C263.889633,117.333333 264.070897,117.274195 264.224148,117.154277 C264.578438,116.871729 264.637761,116.354272 264.352681,115.999445"/>
    <path fill="#100816" d="M200.599286 52.878149C201.232312 58.4386822 206.250949 62.433739 211.811482 61.8007137 217.372016 61.1676884 221.367072 56.1474236 220.734047 50.5885177 220.101022 45.0279845 215.082384 41.0329277 209.521851 41.665953 203.961318 42.297351 199.966261 47.3176158 200.599286 52.878149M258.199286 123.278149C258.832312 128.838682 263.850949 132.833739 269.411482 132.200714 274.972016 131.567688 278.967072 126.547424 278.334047 120.988518 277.701022 115.427984 272.682384 111.432928 267.121851 112.065953 261.561318 112.697351 257.566261 117.717616 258.199286 123.278149"/>
    <path fill="#FFFFFF" d="M22.4,32 C22.4,46.1378343 33.8621657,57.6 48,57.6 C62.1378343,57.6 73.6,46.1378343 73.6,32 C73.6,17.8621657 62.1378343,6.4 48,6.4 C33.8621657,6.4 22.4,17.8621657 22.4,32"/>
    <path fill="#100816" d="M48.0008377,9.18490596 C34.8323839,9.18490596 24.1183556,19.8986106 24.1183556,33.0666667 C24.1183556,46.2347227 34.8323839,56.9484274 48.0008377,56.9484274 C61.1676161,56.9484274 71.8816444,46.2347227 71.8816444,33.0666667 C71.8816444,19.8986106 61.1676161,9.18490596 48.0008377,9.18490596 M48.0008377,60.8 C32.7080074,60.8 20.2666667,48.3590351 20.2666667,33.0666667 C20.2666667,17.7742983 32.7080074,5.33333333 48.0008377,5.33333333 C63.2919926,5.33333333 75.7333333,17.7742983 75.7333333,33.0666667 C75.7333333,48.3590351 63.2919926,60.8 48.0008377,60.8"/>
    <path fill="#100816" d="M60.994672,36.5565596 L58.6537212,40.3897016 C58.4971083,40.6450276 58.2514733,40.8239184 57.9596788,40.8954747 C57.66129,40.9686573 57.3629012,40.9214952 57.1073748,40.7686249 L57.1057263,40.7686249 L50.3664257,36.7647235 C49.8322933,36.4475989 49.6608433,35.7613087 49.9806634,35.2360203 L50.3993968,34.5513564 L54.2174546,36.7858651 C54.4433069,36.9192201 54.6938875,36.982645 54.9395225,36.982645 C55.4241983,36.982645 55.8973341,36.7354504 56.1627517,36.2947286 C56.5633511,35.62958 56.3424444,34.7692779 55.6665361,34.3740919 L51.8649639,32.1509671 L52.3216142,31.4028783 C52.4782271,31.1475523 52.7238621,30.9670352 53.0173052,30.8971052 C53.1079758,30.8743373 53.1986464,30.8629533 53.2909656,30.8629533 C53.4937381,30.8629533 53.6932135,30.9166206 53.8729062,31.023955 L60.6122068,35.0294827 C60.8693817,35.182353 61.0507229,35.426295 61.1232594,35.7125203 C61.1957959,36.0019982 61.1512849,36.3012337 60.994672,36.5565596 L60.994672,36.5565596 Z M43.7112015,31.2613919 C43.523266,31.5671326 43.2281743,31.7818015 42.8770317,31.8679944 C42.5308348,31.9509347 42.1632066,31.90052 41.8532779,31.7151241 L35.498091,27.9389019 C35.1898109,27.7551322 34.9705528,27.4624018 34.8831793,27.1160042 C34.7958058,26.7696065 34.8518567,26.4134512 35.0381437,26.1060843 L37.1466479,22.6518656 C37.3329349,22.3477512 37.6296751,22.1314559 37.9808177,22.0452631 C38.3270147,21.9639491 38.6946429,22.0143638 39.0045715,22.1981334 L45.3597584,25.9743556 C45.6680385,26.1581253 45.8872966,26.4508557 45.9746701,26.7972533 C46.0603951,27.1436509 46.0059927,27.5014325 45.8197058,27.8071732 L45.4586718,28.3991391 L41.8334952,26.27847 C41.160884,25.8849102 40.2871488,26.1028317 39.8865495,26.7679803 C39.4859502,27.4347551 39.7085053,28.2934309 40.3844137,28.688617 L43.9914562,30.8011547 L43.7112015,31.2613919 Z M63.8812951,35.0376141 C63.6274174,34.0228154 62.9861287,33.1673921 62.0761253,32.6274671 L55.3384733,28.6219395 C54.431767,28.0803882 53.3618536,27.9193865 52.3331541,28.1763387 C51.3044546,28.4267859 50.4373136,29.0594088 49.8883442,29.9554891 L49.4218026,30.7198407 L47.9018331,29.8302655 L48.2529757,29.2529361 C48.8316192,28.3064411 49.0030691,27.1940656 48.7327058,26.1207208 C48.4606939,25.0490023 47.7847856,24.1431643 46.8236769,23.5739663 L40.4701386,19.7961179 C39.5106785,19.2252936 38.3797685,19.0561604 37.295018,19.3244966 C36.2086191,19.5912066 35.2903729,20.2596077 34.7133779,21.2077289 L32.6032251,24.6619476 C32.0262302,25.6084426 31.8547803,26.7191919 32.1251436,27.7925367 C32.3955069,28.8658815 33.0730638,29.7700932 34.0341725,30.3409174 L40.3877108,34.1171396 C41.0487821,34.5106994 41.7906327,34.7123581 42.5440232,34.7123581 C42.8836259,34.7123581 43.2248772,34.6717011 43.5628314,34.5887608 C44.6492304,34.3220509 45.5674766,33.6552761 46.1444715,32.7071549 L46.436266,32.2306548 L47.9562355,33.12023 L47.5473934,33.7902573 C46.4181319,35.6393377 47.0231523,38.0494847 48.89921,39.1651128 L55.6401592,43.1690142 C56.2666108,43.5430586 56.9688961,43.7333333 57.6810726,43.7333333 C58.0025412,43.7333333 58.3256584,43.6959289 58.6438299,43.6162412 C59.6725294,43.3657941 60.5413189,42.7331711 61.0886398,41.8354646 L63.4295905,38.0039489 C63.9769114,37.1078686 64.1368215,36.0540391 63.8812951,35.0376141 L63.8812951,35.0376141 Z"/>
    <path fill="#FFFFFF" d="M231.775799,75.7333333 L91.424201,75.7333333 C86.8811058,75.7333333 83.2,79.4577322 83.2,84.0505486 L83.2,168.796812 C83.2,172.386714 86.0765822,175.29583 89.6263372,175.29583 L140.669252,175.29583 L131.364691,187.128227 L130.934517,187.128227 C129.970731,187.128227 129.189194,187.918603 129.189194,188.89329 L129.189194,190.234937 C129.189194,191.209624 129.970731,192 130.934517,192 L192.265483,192 C193.229269,192 194.010806,191.209624 194.010806,190.234937 L194.010806,188.89329 C194.010806,187.918603 193.229269,187.128227 192.265483,187.128227 L191.938748,187.128227 L182.934651,175.29583 L233.573663,175.29583 C237.121776,175.29583 240,172.386714 240,168.796812 L240,84.0505486 C240,79.4577322 236.317252,75.7333333 231.775799,75.7333333"/>
    <g transform="translate(80 73.6)">
      <mask id="b" fill="white">
        <use xlink:href="#a"/>
      </mask>
      <path fill="#100816" d="M154.051842,98.9797689 L8.30274482,98.9797689 C5.63117954,98.9797689 3.45668832,96.8288356 3.45668832,94.1862133 L3.45668832,82.6257689 L158.897899,82.6257689 L158.897899,94.1862133 C158.897899,96.8288356 156.723408,98.9797689 154.051842,98.9797689 L154.051842,98.9797689 Z M109.363388,111.107547 L53.14747,111.107547 L60.2544654,102.268658 L102.484149,102.268658 L109.363388,111.107547 Z M112.50709,113.689324 C112.645074,113.781413 112.748146,113.912969 112.748146,114.088924 L112.748146,115.417636 C112.748146,115.702124 112.515403,115.933991 112.227798,115.933991 L50.1267892,115.933991 C49.8391845,115.933991 49.6064408,115.702124 49.6064408,115.417636 L49.6064408,114.088924 C49.6064408,113.893236 49.7361123,113.755102 49.8990329,113.667947 C50.0536412,113.735369 50.2182242,113.783058 50.3944445,113.783058 L112.058228,113.783058 C112.216161,113.783058 112.365782,113.743591 112.50709,113.689324 L112.50709,113.689324 Z M10.1231331,3.66448 L152.231454,3.66448 C155.907142,3.66448 158.897899,6.62119111 158.897899,10.2570578 L158.897899,79.33688 L3.45668832,79.33688 L3.45668832,10.2570578 C3.45668832,6.62119111 6.44744497,3.66448 10.1231331,3.66448 L10.1231331,3.66448 Z M152.231454,0.375591111 L10.1231331,0.375591111 C4.61375704,0.375591111 0.131778202,4.80736889 0.131778202,10.2570578 L0.131778202,94.1862133 C0.131778202,98.6426578 3.79749161,102.268658 8.30274482,102.268658 L57.0692015,102.268658 L49.947244,111.125636 C48.3695742,111.219369 47.1127582,112.506969 47.1127582,114.088924 L47.1127582,115.417636 C47.1127582,117.06208 48.4643341,118.400658 50.1267892,118.400658 L112.227798,118.400658 C113.890253,118.400658 115.241829,117.06208 115.241829,115.417636 L115.241829,114.088924 C115.241829,112.549724 114.049849,111.291724 112.53369,111.138791 L105.632839,102.268658 L154.051842,102.268658 C158.557096,102.268658 162.222809,98.6426578 162.222809,94.1862133 L162.222809,10.2570578 C162.222809,4.80736889 157.74083,0.375591111 152.231454,0.375591111 L152.231454,0.375591111 Z" mask="url(#b)"/>
    </g>
    <path fill="#100816" d="M148.564199 102.639891C148.085697 102.339776 147.491585 102.321834 146.992209 102.582804L121.403628 115.972201C120.868927 116.251113 120.533333 116.810567 120.533333 117.422216L120.533333 120.446207C120.533333 121.056224 120.868927 121.61731 121.403628 121.896222L146.992209 135.285619C147.225037 135.406317 147.475528 135.466667 147.727624 135.466667 148.018258 135.466667 148.308891 135.386745 148.564199 135.2269 149.0427 134.931678 149.333333 134.404845 149.333333 133.835604L149.333333 129.969984C149.333333 129.353442 148.991317 128.787463 148.448588 128.511814L129.637704 118.93258 148.448588 109.353347C148.991317 109.077697 149.333333 108.51335 149.333333 107.896808L149.333333 104.032819C149.333333 103.463578 149.0427 102.936745 148.564199 102.639891M172.180581 92.8L168.242349 92.8C167.544391 92.8 166.918927 93.2145417 166.66773 93.842044L150.511874 134.32407C150.312939 134.824771 150.382061 135.387248 150.697321 135.829425 151.010896 136.269977 151.531836 136.533333 152.086492 136.533333L155.967405 136.533333C156.663676 136.533333 157.28914 136.120417 157.538651 135.494541L173.753514 95.0108889C173.954134 94.5118132 173.885013 93.9477114 173.569752 93.5071593 173.257863 93.0633559 172.736924 92.8 172.180581 92.8M201.79321 115.91296L176.204449 102.580294C175.708312 102.320948 175.115839 102.342153 174.635758 102.639014 174.158889 102.935876 173.866667 103.462723 173.866667 104.031979L173.866667 107.896071C173.866667 108.515891 174.211875 109.081885 174.757786 109.355911L193.705703 118.93377 174.757786 128.509997C174.211875 128.785654 173.866667 129.350017 173.866667 129.969837L173.866667 133.83556C173.866667 134.404816 174.158889 134.931664 174.635758 135.228525 174.892658 135.386742 175.183275 135.466667 175.472286 135.466667 175.724369 135.466667 175.974845 135.407947 176.204449 135.287245L201.79321 121.952948C202.329487 121.674029 202.666667 121.112928 202.666667 120.501263L202.666667 117.364645C202.666667 116.75298 202.329487 116.191879 201.79321 115.91296"/>
  </g>
</svg>
