<svg xmlns="http://www.w3.org/2000/svg" viewBox="0 0 64 64" width="64" height="64">
    <linearGradient id="99FYLZeWVNn3Qpgqit2tEa" x1="27" x2="27" y1="14.333" y2="51.712" gradientUnits="userSpaceOnUse" spreadMethod="reflect">
        <stop offset="0" stop-color="#1a6dff"/><stop offset="1" stop-color="#c822ff"/>
    </linearGradient>
    <path fill="url(#99FYLZeWVNn3Qpgqit2tEa)" d="M48.77,16c0.527,0,0.976,0.151,1.341,0.38l-8.809,5.961c-0.072-0.231-0.17-0.455-0.293-0.669 C40.415,20.641,39.31,20,38.125,20H27.25h-1.178l-0.571,1.03L14.853,40.221L6.881,45.61L23.453,16H48.77L48.77,16z M48.77,14H22.28 L1.36,51.38L1,52l15.37-10.39L27.25,22h10.875c1.02,0,1.665,1.12,1.155,2l-1.93,3.43L53,16.84C52.33,15.23,50.75,14,48.77,14 L48.77,14z"/>
    <linearGradient id="99FYLZeWVNn3Qpgqit2tEb" x1="40.5" x2="40.5" y1="14.333" y2="51.712" gradientUnits="userSpaceOnUse" spreadMethod="reflect">
            <stop offset="0" stop-color="#1a6dff"/>
            <stop offset="1" stop-color="#c822ff"/>
        </linearGradient><path fill="url(#99FYLZeWVNn3Qpgqit2tEb)" d="M62.95,14L18,45h21.58l8.44-15.5L63,14H62.95z M46.58,28.11l-0.19,0.2l-0.13,0.23L38.39,43 H24.42l23.3-16.07L46.58,28.11z"/>
            <linearGradient id="99FYLZeWVNn3Qpgqit2tEc" x1="36.07" x2="36.07" y1="26.93" y2="43" gradientUnits="userSpaceOnUse" spreadMethod="reflect">
                <stop offset="0" stop-color="#6dc7ff"/><stop offset="1" stop-color="#e6abff"/>
    </linearGradient><path fill="url(#99FYLZeWVNn3Qpgqit2tEc)" d="M47.72 26.93L46.58 28.11 46.39 28.31 46.26 28.54 38.39 43 24.42 43z"/>
</svg>
