<svg xmlns="http://www.w3.org/2000/svg" width="301" height="192" viewBox="0 0 301 192" xmlns:xlink="http://www.w3.org/1999/xlink">
  <defs>
    <polygon id="a" points=".132 118.4 162.223 118.4 162.223 .376 .132 .376"/>
  </defs>
  <g fill="none" fill-rule="evenodd">
    
    <g transform="translate(80 73.6)">
      <mask id="b" fill="white">
        <use xlink:href="#a"/>
      </mask>
      <path fill="#100816" d="M154.051842,98.9797689 L8.30274482,98.9797689 C5.63117954,98.9797689 3.45668832,96.8288356 3.45668832,94.1862133 L3.45668832,82.6257689 L158.897899,82.6257689 L158.897899,94.1862133 C158.897899,96.8288356 156.723408,98.9797689 154.051842,98.9797689 L154.051842,98.9797689 Z M109.363388,111.107547 L53.14747,111.107547 L60.2544654,102.268658 L102.484149,102.268658 L109.363388,111.107547 Z M112.50709,113.689324 C112.645074,113.781413 112.748146,113.912969 112.748146,114.088924 L112.748146,115.417636 C112.748146,115.702124 112.515403,115.933991 112.227798,115.933991 L50.1267892,115.933991 C49.8391845,115.933991 49.6064408,115.702124 49.6064408,115.417636 L49.6064408,114.088924 C49.6064408,113.893236 49.7361123,113.755102 49.8990329,113.667947 C50.0536412,113.735369 50.2182242,113.783058 50.3944445,113.783058 L112.058228,113.783058 C112.216161,113.783058 112.365782,113.743591 112.50709,113.689324 L112.50709,113.689324 Z M10.1231331,3.66448 L152.231454,3.66448 C155.907142,3.66448 158.897899,6.62119111 158.897899,10.2570578 L158.897899,79.33688 L3.45668832,79.33688 L3.45668832,10.2570578 C3.45668832,6.62119111 6.44744497,3.66448 10.1231331,3.66448 L10.1231331,3.66448 Z M152.231454,0.375591111 L10.1231331,0.375591111 C4.61375704,0.375591111 0.131778202,4.80736889 0.131778202,10.2570578 L0.131778202,94.1862133 C0.131778202,98.6426578 3.79749161,102.268658 8.30274482,102.268658 L57.0692015,102.268658 L49.947244,111.125636 C48.3695742,111.219369 47.1127582,112.506969 47.1127582,114.088924 L47.1127582,115.417636 C47.1127582,117.06208 48.4643341,118.400658 50.1267892,118.400658 L112.227798,118.400658 C113.890253,118.400658 115.241829,117.06208 115.241829,115.417636 L115.241829,114.088924 C115.241829,112.549724 114.049849,111.291724 112.53369,111.138791 L105.632839,102.268658 L154.051842,102.268658 C158.557096,102.268658 162.222809,98.6426578 162.222809,94.1862133 L162.222809,10.2570578 C162.222809,4.80736889 157.74083,0.375591111 152.231454,0.375591111 L152.231454,0.375591111 Z" mask="url(#b)"/>
    </g>
    <path fill="#100816" d="M148.564199 102.639891C148.085697 102.339776 147.491585 102.321834 146.992209 102.582804L121.403628 115.972201C120.868927 116.251113 120.533333 116.810567 120.533333 117.422216L120.533333 120.446207C120.533333 121.056224 120.868927 121.61731 121.403628 121.896222L146.992209 135.285619C147.225037 135.406317 147.475528 135.466667 147.727624 135.466667 148.018258 135.466667 148.308891 135.386745 148.564199 135.2269 149.0427 134.931678 149.333333 134.404845 149.333333 133.835604L149.333333 129.969984C149.333333 129.353442 148.991317 128.787463 148.448588 128.511814L129.637704 118.93258 148.448588 109.353347C148.991317 109.077697 149.333333 108.51335 149.333333 107.896808L149.333333 104.032819C149.333333 103.463578 149.0427 102.936745 148.564199 102.639891M172.180581 92.8L168.242349 92.8C167.544391 92.8 166.918927 93.2145417 166.66773 93.842044L150.511874 134.32407C150.312939 134.824771 150.382061 135.387248 150.697321 135.829425 151.010896 136.269977 151.531836 136.533333 152.086492 136.533333L155.967405 136.533333C156.663676 136.533333 157.28914 136.120417 157.538651 135.494541L173.753514 95.0108889C173.954134 94.5118132 173.885013 93.9477114 173.569752 93.5071593 173.257863 93.0633559 172.736924 92.8 172.180581 92.8M201.79321 115.91296L176.204449 102.580294C175.708312 102.320948 175.115839 102.342153 174.635758 102.639014 174.158889 102.935876 173.866667 103.462723 173.866667 104.031979L173.866667 107.896071C173.866667 108.515891 174.211875 109.081885 174.757786 109.355911L193.705703 118.93377 174.757786 128.509997C174.211875 128.785654 173.866667 129.350017 173.866667 129.969837L173.866667 133.83556C173.866667 134.404816 174.158889 134.931664 174.635758 135.228525 174.892658 135.386742 175.183275 135.466667 175.472286 135.466667 175.724369 135.466667 175.974845 135.407947 176.204449 135.287245L201.79321 121.952948C202.329487 121.674029 202.666667 121.112928 202.666667 120.501263L202.666667 117.364645C202.666667 116.75298 202.329487 116.191879 201.79321 115.91296"/>
  </g>
</svg>
