<svg xmlns="http://www.w3.org/2000/svg" width="188.345" height="188.823" viewBox="0 0 188.345 188.823">
  <g id="Page-1" transform="translate(-0.206 -0.122)" opacity="0.74">
    <g id="steem" transform="translate(0.206 0.122)">
      <g id="Group-9">
        <g id="SteemIt_LogoType_Logo">
          <path id="Shape" d="M166.08,57.013a77.382,77.382,0,0,0-27.187-17.324C144.658,23,165.1,16.931,165.1,16.931S117.406-7.425,64.735,2.291C47.178,5.04,30.341,15.652,18.025,29.652a71.208,71.208,0,0,0,7.927,102.155,74.263,74.263,0,0,0,15.33,9.908c-.065-.064-.065-.192-.131-.256a6.35,6.35,0,0,0,.459.959C34.6,159.935,12.195,164.73,12.195,164.73s29.611,18.219,69.376,22.95a148.387,148.387,0,0,0,33.345.384c18.409-1.47,36.751-11.06,50.705-24.548A74.09,74.09,0,0,0,166.08,57.013ZM152.454,151.88c-11.268,10.867-28.1,17.772-41.075,18.731h-.328a129.266,129.266,0,0,1-28.1-.128c-13.888-1.662-23.911-5.434-33.738-9.078,4.979-4.731,9.958-11.252,11.988-16.877a12.808,12.808,0,0,0-.393-10.293A54.388,54.388,0,0,1,72.2,70.693a58.123,58.123,0,0,1,47.43-15.662,57.488,57.488,0,0,1,33.8,16.109C175.71,93.132,174.924,130.337,152.454,151.88Z" transform="translate(-0.084 -0.002)" fill="#868b8a"/>
        </g>
      </g>
    </g>
  </g>
</svg>
